<?xml version="1.0" encoding="UTF-8" standalone="no"?>
<svg
   xmlns:dc="http://purl.org/dc/elements/1.1/"
   xmlns:cc="http://creativecommons.org/ns#"
   xmlns:rdf="http://www.w3.org/1999/02/22-rdf-syntax-ns#"
   xmlns:svg="http://www.w3.org/2000/svg"
   xmlns="http://www.w3.org/2000/svg"
   xmlns:sodipodi="http://sodipodi.sourceforge.net/DTD/sodipodi-0.dtd"
   xmlns:inkscape="http://www.inkscape.org/namespaces/inkscape"
   width="481.894mm"
   height="226.836mm"
   viewBox="0 0 1366 643"
   version="1.2"
   id="svg1672"
   sodipodi:docname="Teste2Figura.svg"
   inkscape:version="0.92.5 (2060ec1f9f, 2020-04-08)">
  <metadata
     id="metadata1676">
    <rdf:RDF>
      <cc:Work
         rdf:about="">
        <dc:format>image/svg+xml</dc:format>
        <dc:type
           rdf:resource="http://purl.org/dc/dcmitype/StillImage" />
      </cc:Work>
    </rdf:RDF>
  </metadata>
  <sodipodi:namedview
     pagecolor="#ffffff"
     bordercolor="#666666"
     borderopacity="1"
     objecttolerance="10"
     gridtolerance="10"
     guidetolerance="10"
     inkscape:pageopacity="0"
     inkscape:pageshadow="2"
     inkscape:window-width="1366"
     inkscape:window-height="704"
     id="namedview1674"
     showgrid="false"
     inkscape:zoom="0.4277879"
     inkscape:cx="962.43706"
     inkscape:cy="387.95163"
     inkscape:window-x="0"
     inkscape:window-y="27"
     inkscape:window-maximized="1"
     inkscape:current-layer="svg1672"
     showguides="true"
     inkscape:guide-bbox="true">
    <sodipodi:guide
       position="333.71288,166.8177"
       orientation="-0.32658773,0.94516689"
       id="guide3496"
       inkscape:locked="false" />
    <sodipodi:guide
       position="683.01073,39.209306"
       orientation="1,0"
       id="guide3499"
       inkscape:locked="false" />
  </sodipodi:namedview>
  <title
     id="title2">Qt SVG Document</title>
  <desc
     id="desc4">Generated with Qt</desc>
  <defs
     id="defs6" />
  <path
     style="opacity:1;vector-effect:none;fill:#c13344;fill-opacity:0.41237117;stroke:none;stroke-width:1.16174781;stroke-linecap:round;stroke-linejoin:round;stroke-miterlimit:4;stroke-dasharray:none;stroke-dashoffset:0;stroke-opacity:1;paint-order:stroke markers fill"
     d="m 325.87853,326.19703 34.78861,-0.5243 72.36868,-1.27551 47.18879,-0.64244 53.27636,0.41674 45.60967,0.83539 16.26327,-6.03872 -0.55031,6.29332 -0.42368,5.8896 -0.24943,6.05579 -0.22998,5.93028 -0.0488,5.77497 -0.0945,6.65934 -0.10561,5.92176 v 12.39868 l 0.008,12.46305 -267.80127,92.42572 z"
     id="rect3494-3-6-5-6"
     inkscape:connector-curvature="0"
     sodipodi:nodetypes="cccccccccccccccccc" />
  <path
     style="opacity:1;vector-effect:none;fill:#c13344;fill-opacity:0.41237117;stroke:none;stroke-width:1.16266358;stroke-linecap:round;stroke-linejoin:round;stroke-miterlimit:4;stroke-dasharray:none;stroke-dashoffset:0;stroke-opacity:1;paint-order:stroke markers fill"
     d="m 236.64755,295.23336 34.78861,-0.52513 72.36868,-1.27752 47.18879,-0.64345 53.27636,0.4174 45.60967,0.8367 21.47112,0.59112 -1.10927,1.25476 -2.55442,4.65723 -1.6441,5.94893 -0.77235,5.82323 -0.33537,6.18475 -0.25401,6.13946 -0.24063,5.94441 v 12.41823 l 0.008,12.48271 -267.80127,92.57149 z"
     id="rect3494-3-6-5-2"
     inkscape:connector-curvature="0"
     sodipodi:nodetypes="cccccccccccccccccc" />
  <path
     style="opacity:1;vector-effect:none;fill:#c13344;fill-opacity:0.41237117;stroke:none;stroke-width:1.16266358;stroke-linecap:round;stroke-linejoin:round;stroke-miterlimit:4;stroke-dasharray:none;stroke-dashoffset:0;stroke-opacity:1;paint-order:stroke markers fill"
     d="m 147.71701,264.28793 34.78861,-0.52513 72.36869,-1.27752 47.18879,-0.64345 53.27636,0.4174 45.60967,0.8367 21.47112,0.59112 -1.10927,1.25476 -2.55442,4.65723 -1.6441,5.94893 -0.77235,5.82323 -0.33537,6.18475 -0.25401,6.13946 -0.24063,5.94441 v 12.41823 l 0.008,12.48271 -267.80128,92.57149 z"
     id="rect3494-3-6-5-9"
     inkscape:connector-curvature="0"
     sodipodi:nodetypes="cccccccccccccccccc" />
  <path
     style="opacity:1;vector-effect:none;fill:#c13344;fill-opacity:0.41237117;stroke:none;stroke-width:1.16266358;stroke-linecap:round;stroke-linejoin:round;stroke-miterlimit:4;stroke-dasharray:none;stroke-dashoffset:0;stroke-opacity:1;paint-order:stroke markers fill"
     d="m 415.20946,356.92391 34.78861,-0.52513 72.36868,-1.27752 47.18879,-0.64345 53.27635,0.4174 45.60968,0.8367 21.47111,0.59112 -1.10926,1.25476 -2.55442,4.65723 -1.64411,5.94893 -0.77234,5.82323 -0.33538,6.18475 -0.254,6.13946 -0.24063,5.94441 v 12.41823 l 0.008,12.48271 -267.80127,92.57149 z"
     id="rect3494-3-6-5"
     inkscape:connector-curvature="0"
     sodipodi:nodetypes="cccccccccccccccccc" />
  <path
     style="font-style:normal;font-weight:400;font-size:11px;font-family:Ubuntu;vector-effect:none;fill:none;fill-rule:evenodd;stroke:#000000;stroke-width:1.00275087;stroke-linecap:round;stroke-linejoin:round;stroke-miterlimit:4;stroke-dasharray:none;stroke-opacity:1"
     d="m 720.45752,331.78701 v 0 l 16.02352,-12.31808 v 0 l 26.8394,-19.42852 v 0 l 26.73925,-18.92778 v 0 l 53.57865,-36.75395 v 0 l 53.57865,-36.05292 v 0 l 53.57864,-35.65233"
     id="polyline1332-3"
     inkscape:connector-curvature="0"
     sodipodi:nodetypes="ccccccccccccc" />
  <path
     style="opacity:1;vector-effect:none;fill:#c13344;fill-opacity:0.41237117;stroke:none;stroke-width:1.16266358;stroke-linecap:round;stroke-linejoin:round;stroke-miterlimit:4;stroke-dasharray:none;stroke-dashoffset:0;stroke-opacity:1;paint-order:stroke markers fill"
     d="m 504.44044,406.19623 36.88061,-0.51157 66.92232,-0.34688 36.28655,0.1305 41.65411,1.03726 37.70658,1.14662 9.48587,0.64716 -3.26688,1.69732 -3.7529,2.91893 -3.38964,5.18643 -2.10895,5.61996 -1.116,5.78519 -0.66015,6.14886 -0.22679,5.89211 -0.2003,12.51838 v 12.51837 l -214.21443,74.00864 z"
     id="rect3494-3-6"
     inkscape:connector-curvature="0"
     sodipodi:nodetypes="cccccccccccccccccc" />
  <path
     style="opacity:1;vector-effect:none;fill:#c13344;fill-opacity:0.41237117;stroke:none;stroke-width:1.16266358;stroke-linecap:round;stroke-linejoin:round;stroke-miterlimit:4;stroke-dasharray:none;stroke-dashoffset:0;stroke-opacity:1;paint-order:stroke markers fill"
     d="m 593.7716,456.19065 39.2825,-0.21286 67.77461,0.89282 21.10018,1.21525 34.17713,1.96703 12.02147,1.52463 -3.67878,2.12236 -4.73357,4.3872 -2.70397,5.40794 -1.41066,5.38395 -0.63476,5.64791 -0.3581,6.39371 -0.2003,8.41235 0,16.6244 -160.63579,55.48144 z"
     id="rect3494-3"
     inkscape:connector-curvature="0"
     sodipodi:nodetypes="cccccccccccccccc" />
  <path
     style="opacity:1;vector-effect:none;fill:#c13344;fill-opacity:0.41237117;stroke:none;stroke-width:1.05618382;stroke-linecap:round;stroke-linejoin:round;stroke-miterlimit:4;stroke-dasharray:none;stroke-dashoffset:0;stroke-opacity:1;paint-order:stroke markers fill"
     d="m 683.00256,507.2789 32.86766,0.90102 30.44809,1.30086 31.46261,3.30991 11.67082,0.90545 12.0247,2.4615 -3.30485,2.20323 -1.93126,1.63915 -1.87433,2.26658 -2.50553,6.08263 -1.17293,5.86622 -0.32742,6.07761 -0.23568,5.83223 -0.0648,19.20453 -107.05712,37.0544 z"
     id="rect3494"
     inkscape:connector-curvature="0"
     sodipodi:nodetypes="cccccccccccccccc" />
  <polyline
     points="147.1,416.6 682,231.8 "
     id="polyline12"
     style="font-style:normal;font-weight:400;font-size:11px;font-family:Ubuntu;vector-effect:none;fill:none;fill-rule:evenodd;stroke:#000000;stroke-width:1;stroke-linecap:round;stroke-linejoin:round;stroke-opacity:1"
     transform="scale(1.00147)" />
  <polyline
     points="1216.9,416.6 682,231.8 "
     id="polyline14"
     style="font-style:normal;font-weight:400;font-size:11px;font-family:Ubuntu;vector-effect:none;fill:none;fill-rule:evenodd;stroke:#000000;stroke-width:1;stroke-linecap:round;stroke-linejoin:round;stroke-opacity:1"
     transform="scale(1.00147)" />
  <polyline
     points="147.5,416.5 147.5,209.5 "
     id="polyline16"
     style="font-style:normal;font-weight:400;font-size:11px;font-family:Ubuntu;vector-effect:none;fill:none;fill-rule:evenodd;stroke:#000000;stroke-width:1;stroke-linecap:round;stroke-linejoin:round;stroke-opacity:1"
     transform="scale(1.00147)" />
  <polyline
     points="147.1,416.6 153.5,414.4 "
     id="polyline18"
     style="font-style:normal;font-weight:400;font-size:11px;font-family:Ubuntu;vector-effect:none;fill:none;fill-rule:evenodd;stroke:#000000;stroke-width:1;stroke-linecap:round;stroke-linejoin:round;stroke-opacity:1"
     transform="scale(1.00147)" />
  <polyline
     points="682,231.8 675.6,234 "
     id="polyline20"
     style="font-style:normal;font-weight:400;font-size:11px;font-family:Ubuntu;vector-effect:none;fill:none;fill-rule:evenodd;stroke:#000000;stroke-width:1;stroke-linecap:round;stroke-linejoin:round;stroke-opacity:1"
     transform="scale(1.00147)" />
  <text
     xml:space="preserve"
     x="117.172"
     y="427.125"
     font-size="9"
     font-weight="400"
     font-style="normal"
     id="text36"
     style="font-style:normal;font-weight:400;font-size:9.01323032px;font-family:Sans;fill:#000000;fill-opacity:1;fill-rule:evenodd;stroke:none;stroke-width:1.00146997;stroke-linecap:square;stroke-linejoin:bevel;stroke-opacity:1">-0.3</text>
  <polyline
     points="236.3,447.4 242.7,445.2 "
     id="polyline44"
     style="font-style:normal;font-weight:400;font-size:11px;font-family:Ubuntu;vector-effect:none;fill:none;fill-rule:evenodd;stroke:#000000;stroke-width:1;stroke-linecap:round;stroke-linejoin:round;stroke-opacity:1"
     transform="scale(1.00147)" />
  <polyline
     points="771.1,262.6 764.7,264.8 "
     id="polyline46"
     style="font-style:normal;font-weight:400;font-size:11px;font-family:Ubuntu;vector-effect:none;fill:none;fill-rule:evenodd;stroke:#000000;stroke-width:1;stroke-linecap:round;stroke-linejoin:round;stroke-opacity:1"
     transform="scale(1.00147)" />
  <text
     xml:space="preserve"
     x="206.302"
     y="458.17099"
     font-size="9"
     font-weight="400"
     font-style="normal"
     id="text62"
     style="font-style:normal;font-weight:400;font-size:9.01323032px;font-family:Sans;fill:#000000;fill-opacity:1;fill-rule:evenodd;stroke:none;stroke-width:1.00146997;stroke-linecap:square;stroke-linejoin:bevel;stroke-opacity:1">-0.2</text>
  <polyline
     points="325.4,478.2 331.8,476 "
     id="polyline70"
     style="font-style:normal;font-weight:400;font-size:11px;font-family:Ubuntu;vector-effect:none;fill:none;fill-rule:evenodd;stroke:#000000;stroke-width:1;stroke-linecap:round;stroke-linejoin:round;stroke-opacity:1"
     transform="scale(1.00147)" />
  <polyline
     points="860.3,293.4 853.9,295.6 "
     id="polyline72"
     style="font-style:normal;font-weight:400;font-size:11px;font-family:Ubuntu;vector-effect:none;fill:none;fill-rule:evenodd;stroke:#000000;stroke-width:1;stroke-linecap:round;stroke-linejoin:round;stroke-opacity:1"
     transform="scale(1.00147)" />
  <text
     xml:space="preserve"
     x="295.43301"
     y="489.216"
     font-size="9"
     font-weight="400"
     font-style="normal"
     id="text88"
     style="font-style:normal;font-weight:400;font-size:9.01323032px;font-family:Sans;fill:#000000;fill-opacity:1;fill-rule:evenodd;stroke:none;stroke-width:1.00146997;stroke-linecap:square;stroke-linejoin:bevel;stroke-opacity:1">-0.1</text>
  <polyline
     points="414.6,509 421,506.8 "
     id="polyline96"
     style="font-style:normal;font-weight:400;font-size:11px;font-family:Ubuntu;vector-effect:none;fill:none;fill-rule:evenodd;stroke:#000000;stroke-width:1;stroke-linecap:round;stroke-linejoin:round;stroke-opacity:1"
     transform="scale(1.00147)" />
  <polyline
     points="949.4,324.1 943,326.4 "
     id="polyline98"
     style="font-style:normal;font-weight:400;font-size:11px;font-family:Ubuntu;vector-effect:none;fill:none;fill-rule:evenodd;stroke:#000000;stroke-width:1;stroke-linecap:round;stroke-linejoin:round;stroke-opacity:1"
     transform="scale(1.00147)" />
  <text
     xml:space="preserve"
     x="396.58099"
     y="520.26202"
     font-size="9"
     font-weight="400"
     font-style="normal"
     id="text114"
     style="font-style:normal;font-weight:400;font-size:9.01323032px;font-family:Sans;fill:#000000;fill-opacity:1;fill-rule:evenodd;stroke:none;stroke-width:1.00146997;stroke-linecap:square;stroke-linejoin:bevel;stroke-opacity:1"> 0</text>
  <polyline
     points="503.7,539.8 510.1,537.6 "
     id="polyline122"
     style="font-style:normal;font-weight:400;font-size:11px;font-family:Ubuntu;vector-effect:none;fill:none;fill-rule:evenodd;stroke:#000000;stroke-width:1;stroke-linecap:round;stroke-linejoin:round;stroke-opacity:1"
     transform="scale(1.00147)" />
  <polyline
     points="1038.6,355 1032.2,357.2 "
     id="polyline124"
     style="font-style:normal;font-weight:400;font-size:11px;font-family:Ubuntu;vector-effect:none;fill:none;fill-rule:evenodd;stroke:#000000;stroke-width:1;stroke-linecap:round;stroke-linejoin:round;stroke-opacity:1"
     transform="scale(1.00147)" />
  <text
     xml:space="preserve"
     x="473.694"
     y="550.30603"
     font-size="9"
     font-weight="400"
     font-style="normal"
     id="text140"
     style="font-style:normal;font-weight:400;font-size:9.01323032px;font-family:Sans;fill:#000000;fill-opacity:1;fill-rule:evenodd;stroke:none;stroke-width:1.00146997;stroke-linecap:square;stroke-linejoin:bevel;stroke-opacity:1"> 0.1</text>
  <polyline
     points="592.9,570.6 599.3,568.4 "
     id="polyline148"
     style="font-style:normal;font-weight:400;font-size:11px;font-family:Ubuntu;vector-effect:none;fill:none;fill-rule:evenodd;stroke:#000000;stroke-width:1;stroke-linecap:round;stroke-linejoin:round;stroke-opacity:1"
     transform="scale(1.00147)" />
  <polyline
     points="1127.7,385.8 1121.3,388 "
     id="polyline150"
     style="font-style:normal;font-weight:400;font-size:11px;font-family:Ubuntu;vector-effect:none;fill:none;fill-rule:evenodd;stroke:#000000;stroke-width:1;stroke-linecap:round;stroke-linejoin:round;stroke-opacity:1"
     transform="scale(1.00147)" />
  <text
     xml:space="preserve"
     x="562.82397"
     y="581.35101"
     font-size="9"
     font-weight="400"
     font-style="normal"
     id="text166"
     style="font-style:normal;font-weight:400;font-size:9.01323032px;font-family:Sans;fill:#000000;fill-opacity:1;fill-rule:evenodd;stroke:none;stroke-width:1.00146997;stroke-linecap:square;stroke-linejoin:bevel;stroke-opacity:1"> 0.2</text>
  <polyline
     points="682,601.5 688.4,599.2 "
     id="polyline174"
     style="font-style:normal;font-weight:400;font-size:11px;font-family:Ubuntu;vector-effect:none;fill:none;fill-rule:evenodd;stroke:#000000;stroke-width:1;stroke-linecap:round;stroke-linejoin:round;stroke-opacity:1"
     transform="scale(1.00147)" />
  <polyline
     points="1216.9,416.6 1210.5,418.8 "
     id="polyline176"
     style="font-style:normal;font-weight:400;font-size:11px;font-family:Ubuntu;vector-effect:none;fill:none;fill-rule:evenodd;stroke:#000000;stroke-width:1;stroke-linecap:round;stroke-linejoin:round;stroke-opacity:1"
     transform="scale(1.00147)" />
  <text
     xml:space="preserve"
     x="652.95599"
     y="612.39697"
     font-size="9"
     font-weight="400"
     font-style="normal"
     id="text192"
     style="font-style:normal;font-weight:400;font-size:9.01323032px;font-family:Sans;fill:#000000;fill-opacity:1;fill-rule:evenodd;stroke:none;stroke-width:1.00146997;stroke-linecap:square;stroke-linejoin:bevel;stroke-opacity:1"> 0.3</text>
  <polyline
     points="682,601.5 675.6,599.2 "
     id="polyline200"
     style="font-style:normal;font-weight:400;font-size:11px;font-family:Ubuntu;vector-effect:none;fill:none;fill-rule:evenodd;stroke:#000000;stroke-width:1;stroke-linecap:round;stroke-linejoin:round;stroke-opacity:1"
     transform="scale(1.00147)" />
  <polyline
     points="147.1,416.6 153.5,418.8 "
     id="polyline202"
     style="font-style:normal;font-weight:400;font-size:11px;font-family:Ubuntu;vector-effect:none;fill:none;fill-rule:evenodd;stroke:#000000;stroke-width:1;stroke-linecap:round;stroke-linejoin:round;stroke-opacity:1"
     transform="scale(1.00147)" />
  <text
     xml:space="preserve"
     x="690.01001"
     y="612.39697"
     font-size="9"
     font-weight="400"
     font-style="normal"
     id="text218"
     style="font-style:normal;font-weight:400;font-size:9.01323032px;font-family:Sans;fill:#000000;fill-opacity:1;fill-rule:evenodd;stroke:none;stroke-width:1.00146997;stroke-linecap:square;stroke-linejoin:bevel;stroke-opacity:1"> 0</text>
  <polyline
     points="788.9,564.5 782.5,562.3 "
     id="polyline226"
     style="font-style:normal;font-weight:400;font-size:11px;font-family:Ubuntu;vector-effect:none;fill:none;fill-rule:evenodd;stroke:#000000;stroke-width:1;stroke-linecap:round;stroke-linejoin:round;stroke-opacity:1"
     transform="scale(1.00147)" />
  <polyline
     points="254.1,379.6 260.5,381.8 "
     id="polyline228"
     style="font-style:normal;font-weight:400;font-size:11px;font-family:Ubuntu;vector-effect:none;fill:none;fill-rule:evenodd;stroke:#000000;stroke-width:1;stroke-linecap:round;stroke-linejoin:round;stroke-opacity:1"
     transform="scale(1.00147)" />
  <text
     xml:space="preserve"
     x="797.16699"
     y="575.34198"
     font-size="9"
     font-weight="400"
     font-style="normal"
     id="text244"
     style="font-style:normal;font-weight:400;font-size:9.01323032px;font-family:Sans;fill:#000000;fill-opacity:1;fill-rule:evenodd;stroke:none;stroke-width:1.00146997;stroke-linecap:square;stroke-linejoin:bevel;stroke-opacity:1"> 0.2</text>
  <polyline
     points="895.9,527.5 889.5,525.3 "
     id="polyline252"
     style="font-style:normal;font-weight:400;font-size:11px;font-family:Ubuntu;vector-effect:none;fill:none;fill-rule:evenodd;stroke:#000000;stroke-width:1;stroke-linecap:round;stroke-linejoin:round;stroke-opacity:1"
     transform="scale(1.00147)" />
  <polyline
     points="361.1,342.6 367.5,344.8 "
     id="polyline254"
     style="font-style:normal;font-weight:400;font-size:11px;font-family:Ubuntu;vector-effect:none;fill:none;fill-rule:evenodd;stroke:#000000;stroke-width:1;stroke-linecap:round;stroke-linejoin:round;stroke-opacity:1"
     transform="scale(1.00147)" />
  <text
     xml:space="preserve"
     x="904.32397"
     y="538.28802"
     font-size="9"
     font-weight="400"
     font-style="normal"
     id="text270"
     style="font-style:normal;font-weight:400;font-size:9.01323032px;font-family:Sans;fill:#000000;fill-opacity:1;fill-rule:evenodd;stroke:none;stroke-width:1.00146997;stroke-linecap:square;stroke-linejoin:bevel;stroke-opacity:1"> 0.4</text>
  <polyline
     points="1002.9,490.5 996.5,488.3 "
     id="polyline278"
     style="font-style:normal;font-weight:400;font-size:11px;font-family:Ubuntu;vector-effect:none;fill:none;fill-rule:evenodd;stroke:#000000;stroke-width:1;stroke-linecap:round;stroke-linejoin:round;stroke-opacity:1"
     transform="scale(1.00147)" />
  <polyline
     points="468.1,305.8 474.5,308 "
     id="polyline280"
     style="font-style:normal;font-weight:400;font-size:11px;font-family:Ubuntu;vector-effect:none;fill:none;fill-rule:evenodd;stroke:#000000;stroke-width:1;stroke-linecap:round;stroke-linejoin:round;stroke-opacity:1"
     transform="scale(1.00147)" />
  <text
     xml:space="preserve"
     x="1011.48"
     y="501.23401"
     font-size="9"
     font-weight="400"
     font-style="normal"
     id="text296"
     style="font-style:normal;font-weight:400;font-size:9.01323032px;font-family:Sans;fill:#000000;fill-opacity:1;fill-rule:evenodd;stroke:none;stroke-width:1.00146997;stroke-linecap:square;stroke-linejoin:bevel;stroke-opacity:1"> 0.6</text>
  <polyline
     points="1109.9,453.6 1103.5,451.3 "
     id="polyline304"
     style="font-style:normal;font-weight:400;font-size:11px;font-family:Ubuntu;vector-effect:none;fill:none;fill-rule:evenodd;stroke:#000000;stroke-width:1;stroke-linecap:round;stroke-linejoin:round;stroke-opacity:1"
     transform="scale(1.00147)" />
  <polyline
     points="575.1,268.8 581.5,271 "
     id="polyline306"
     style="font-style:normal;font-weight:400;font-size:11px;font-family:Ubuntu;vector-effect:none;fill:none;fill-rule:evenodd;stroke:#000000;stroke-width:1;stroke-linecap:round;stroke-linejoin:round;stroke-opacity:1"
     transform="scale(1.00147)" />
  <text
     xml:space="preserve"
     x="1118.64"
     y="464.17999"
     font-size="9"
     font-weight="400"
     font-style="normal"
     id="text322"
     style="font-style:normal;font-weight:400;font-size:9.01323032px;font-family:Sans;fill:#000000;fill-opacity:1;fill-rule:evenodd;stroke:none;stroke-width:1.00146997;stroke-linecap:square;stroke-linejoin:bevel;stroke-opacity:1"> 0.8</text>
  <polyline
     points="1216.9,416.6 1210.5,414.4 "
     id="polyline330"
     style="font-style:normal;font-weight:400;font-size:11px;font-family:Ubuntu;vector-effect:none;fill:none;fill-rule:evenodd;stroke:#000000;stroke-width:1;stroke-linecap:round;stroke-linejoin:round;stroke-opacity:1"
     transform="scale(1.00147)" />
  <polyline
     points="682,231.8 688.4,234 "
     id="polyline332"
     style="font-style:normal;font-weight:400;font-size:11px;font-family:Ubuntu;vector-effect:none;fill:none;fill-rule:evenodd;stroke:#000000;stroke-width:1;stroke-linecap:round;stroke-linejoin:round;stroke-opacity:1"
     transform="scale(1.00147)" />
  <text
     xml:space="preserve"
     x="1225.79"
     y="427.125"
     font-size="9"
     font-weight="400"
     font-style="normal"
     id="text348"
     style="font-style:normal;font-weight:400;font-size:9.01323032px;font-family:Sans;fill:#000000;fill-opacity:1;fill-rule:evenodd;stroke:none;stroke-width:1.00146997;stroke-linecap:square;stroke-linejoin:bevel;stroke-opacity:1"> 1</text>
  <polyline
     points="147.5,416.5 153.5,416.5 "
     id="polyline356"
     style="font-style:normal;font-weight:400;font-size:11px;font-family:Ubuntu;vector-effect:none;fill:none;fill-rule:evenodd;stroke:#000000;stroke-width:1;stroke-linecap:round;stroke-linejoin:round;stroke-opacity:1"
     transform="scale(1.00147)" />
  <text
     xml:space="preserve"
     x="124.182"
     y="422.11801"
     font-size="9"
     font-weight="400"
     font-style="normal"
     id="text372"
     style="font-style:normal;font-weight:400;font-size:9.01323032px;font-family:Sans;fill:#000000;fill-opacity:1;fill-rule:evenodd;stroke:none;stroke-width:1.00146997;stroke-linecap:square;stroke-linejoin:bevel;stroke-opacity:1"> 0</text>
  <polyline
     points="147.5,375.5 153.5,375.5 "
     id="polyline380"
     style="font-style:normal;font-weight:400;font-size:11px;font-family:Ubuntu;vector-effect:none;fill:none;fill-rule:evenodd;stroke:#000000;stroke-width:1;stroke-linecap:round;stroke-linejoin:round;stroke-opacity:1"
     transform="scale(1.00147)" />
  <text
     xml:space="preserve"
     x="124.182"
     y="380.056"
     font-size="9"
     font-weight="400"
     font-style="normal"
     id="text396"
     style="font-style:normal;font-weight:400;font-size:9.01323032px;font-family:Sans;fill:#000000;fill-opacity:1;fill-rule:evenodd;stroke:none;stroke-width:1.00146997;stroke-linecap:square;stroke-linejoin:bevel;stroke-opacity:1"> 1</text>
  <polyline
     points="147.5,333.5 153.5,333.5 "
     id="polyline404"
     style="font-style:normal;font-weight:400;font-size:11px;font-family:Ubuntu;vector-effect:none;fill:none;fill-rule:evenodd;stroke:#000000;stroke-width:1;stroke-linecap:round;stroke-linejoin:round;stroke-opacity:1"
     transform="scale(1.00147)" />
  <text
     xml:space="preserve"
     x="124.182"
     y="338.996"
     font-size="9"
     font-weight="400"
     font-style="normal"
     id="text420"
     style="font-style:normal;font-weight:400;font-size:9.01323032px;font-family:Sans;fill:#000000;fill-opacity:1;fill-rule:evenodd;stroke:none;stroke-width:1.00146997;stroke-linecap:square;stroke-linejoin:bevel;stroke-opacity:1"> 2</text>
  <polyline
     points="147.5,292.5 153.5,292.5 "
     id="polyline428"
     style="font-style:normal;font-weight:400;font-size:11px;font-family:Ubuntu;vector-effect:none;fill:none;fill-rule:evenodd;stroke:#000000;stroke-width:1;stroke-linecap:round;stroke-linejoin:round;stroke-opacity:1"
     transform="scale(1.00147)" />
  <text
     xml:space="preserve"
     x="124.182"
     y="296.935"
     font-size="9"
     font-weight="400"
     font-style="normal"
     id="text444"
     style="font-style:normal;font-weight:400;font-size:9.01323032px;font-family:Sans;fill:#000000;fill-opacity:1;fill-rule:evenodd;stroke:none;stroke-width:1.00146997;stroke-linecap:square;stroke-linejoin:bevel;stroke-opacity:1"> 3</text>
  <polyline
     points="147.5,250.5 153.5,250.5 "
     id="polyline452"
     style="font-style:normal;font-weight:400;font-size:11px;font-family:Ubuntu;vector-effect:none;fill:none;fill-rule:evenodd;stroke:#000000;stroke-width:1;stroke-linecap:round;stroke-linejoin:round;stroke-opacity:1"
     transform="scale(1.00147)" />
  <text
     xml:space="preserve"
     x="124.182"
     y="255.875"
     font-size="9"
     font-weight="400"
     font-style="normal"
     id="text468"
     style="font-style:normal;font-weight:400;font-size:9.01323032px;font-family:Sans;fill:#000000;fill-opacity:1;fill-rule:evenodd;stroke:none;stroke-width:1.00146997;stroke-linecap:square;stroke-linejoin:bevel;stroke-opacity:1"> 4</text>
  <polyline
     points="147.5,209.5 153.5,209.5 "
     id="polyline476"
     style="font-style:normal;font-weight:400;font-size:11px;font-family:Ubuntu;vector-effect:none;fill:none;fill-rule:evenodd;stroke:#000000;stroke-width:1;stroke-linecap:round;stroke-linejoin:round;stroke-opacity:1"
     transform="scale(1.00147)" />
  <text
     xml:space="preserve"
     x="124.182"
     y="213.813"
     font-size="9"
     font-weight="400"
     font-style="normal"
     id="text492"
     style="font-style:normal;font-weight:400;font-size:9.01323032px;font-family:Sans;fill:#000000;fill-opacity:1;fill-rule:evenodd;stroke:none;stroke-width:1.00146997;stroke-linecap:square;stroke-linejoin:bevel;stroke-opacity:1"> 5</text>
  <path
     transform="scale(1.00147)"
     style="font-style:normal;font-weight:400;font-size:11px;font-family:Ubuntu;vector-effect:none;fill:none;fill-rule:evenodd;stroke:#060606;stroke-width:1.00127884;stroke-linecap:round;stroke-linejoin:round;stroke-opacity:1;stroke-miterlimit:4;stroke-dasharray:none"
     d="m 503.7,405.6 53.5,-0.7 v 0 l 53.5,-0.3 v 0 l 53.5,0.5 v 0 l 53.4,1.7 v 0 l 13.4,0.9 v 0 h 1.3 v 0"
     id="polyline532"
     inkscape:connector-curvature="0"
     sodipodi:nodetypes="ccccccccccccc" />
  <polyline
     points="717.6,465.9 717.6,461.7 717.6,461.7 717.6,457.6 717.6,457.6 717.6,453.4 717.6,453.4 717.6,449.3 717.6,449.3 717.7,445.1 717.7,445.1 717.8,440.9 717.8,440.9 718,436.7 718,436.7 718.3,432.5 718.3,432.5 718.8,428.1 718.8,428.1 719.6,423.7 719.6,423.7 719.8,423.1 719.8,423.1 720.3,421.2 720.3,421.2 723,415.3 723,415.3 725.6,412 725.6,412 728.3,409.9 728.3,409.9 731,408.4 "
     id="polyline572"
     style="font-style:normal;font-weight:400;font-size:11px;font-family:Ubuntu;vector-effect:none;fill:none;fill-rule:evenodd;stroke:#000000;stroke-width:1.00127884;stroke-linecap:round;stroke-linejoin:round;stroke-opacity:1;stroke-miterlimit:4;stroke-dasharray:2.00255768,4.00511536;stroke-dashoffset:0"
     transform="scale(1.00147)" />
  <path
     transform="scale(1.00147)"
     style="font-style:normal;font-weight:400;font-size:11px;font-family:Ubuntu;vector-effect:none;fill:none;fill-rule:evenodd;stroke:#000000;stroke-width:1.00127884;stroke-linecap:round;stroke-linejoin:round;stroke-opacity:1;stroke-miterlimit:4;stroke-dasharray:none;"
     d="m 592.9,455.5 53.5,-0.1 v 0 l 53.4,0.8 v 0 l 53.5,2.9 v 0 l 13.7,1.6 v 0"
     id="polyline612"
     inkscape:connector-curvature="0"
     sodipodi:nodetypes="ccccccccc" />
  <path
     transform="scale(1.00147)"
     style="font-style:normal;font-weight:400;font-size:11px;font-family:Ubuntu;vector-effect:none;fill:none;fill-rule:evenodd;stroke:#000000;stroke-width:1.00127884;stroke-linecap:round;stroke-linejoin:round;stroke-opacity:1;stroke-miterlimit:4;stroke-dasharray:none"
     d="m 325.4,307.7 53.5,-1.2 v 0 l 53.5,-1.1 v 0 l 53.5,-0.7 v 0 l 53.5,-0.5 v 0 l 53.5,0.1 v 0 l 5.3,0.1 v 0"
     id="polyline692"
     inkscape:connector-curvature="0"
     sodipodi:nodetypes="ccccccccccccc" />
  <polyline
     points="236.3,259.2 289.8,257.8 289.8,257.8 343.3,256.6 343.3,256.6 396.8,255.6 396.8,255.6 450.2,254.9 450.2,254.9 503.7,254.5 503.7,254.5 505.9,254.5 505.9,254.5 506.4,254.5 506.4,254.5 507,254.4 507,254.4 507.2,254.5 "
     id="polyline732"
     style="font-style:normal;font-weight:400;font-size:11px;font-family:Ubuntu;vector-effect:none;fill:none;fill-rule:evenodd;stroke:#121212;stroke-width:1.00127884;stroke-linecap:round;stroke-linejoin:round;stroke-opacity:1;stroke-miterlimit:4;stroke-dasharray:none"
     transform="scale(1.00147)" />
  <polyline
     points="147.1,210.8 200.6,209.4 200.6,209.4 254.1,208.1 254.1,208.1 307.6,206.9 307.6,206.9 361.1,206 361.1,206 414.6,205.3 414.6,205.3 417.3,205.3 "
     id="polyline772"
     style="font-style:normal;font-weight:400;font-size:11px;font-family:Ubuntu;vector-effect:none;fill:none;fill-rule:evenodd;stroke:#000000;stroke-width:1.00127884;stroke-linecap:round;stroke-linejoin:round;stroke-opacity:1;stroke-miterlimit:4;stroke-dasharray:none"
     transform="scale(1.00147)" />
  <path
     transform="scale(1.00147)"
     style="font-style:normal;font-weight:400;font-size:11px;font-family:Ubuntu;vector-effect:none;fill:none;fill-rule:evenodd;stroke:#000000;stroke-width:1.00127885;stroke-linecap:round;stroke-linejoin:round;stroke-miterlimit:4;stroke-dasharray:2.0025577,4.0051154;stroke-opacity:1;stroke-dashoffset:0"
     d="m 788.9,564.5 v -4.2 0 -4.1 0 -4.2 0 l 0.1,-4.1 v 0 -4.2 0 l 0.2,-4.2 v 0 l 0.2,-4.2 v 0 l 0.5,-4.4 v 0 l 1.1,-4.5 v 0 l 2.2,-4.9 v 0 l 1.1,-1.4 v 0 l 2.7,-2.5 v 0 l 2.6,-1.7 v 0 l 0.9,-0.4 v 0 l 4.5,-2"
     id="polyline812" />
  <polyline
     points="753.3,515.2 753.3,511 753.3,511 753.3,506.9 753.3,506.9 753.3,502.7 753.3,502.7 753.3,498.6 753.3,498.6 753.4,494.4 753.4,494.4 753.5,490.2 753.5,490.2 753.7,486 753.7,486 754.1,481.7 754.1,481.7 754.7,477.3 754.7,477.3 755.9,472.8 755.9,472.8 758.3,467.8 758.3,467.8 758.6,467.4 758.6,467.4 764,462.5 764,462.5 767,460.9 "
     id="polyline852"
     style="font-style:normal;font-weight:400;font-size:11px;font-family:Ubuntu;vector-effect:none;fill:none;fill-rule:evenodd;stroke:#000000;stroke-width:1.00127885;stroke-linecap:round;stroke-linejoin:round;stroke-opacity:1;stroke-miterlimit:4;stroke-dasharray:2.0025577, 4.00511540000000021;stroke-dashoffset:0"
     transform="scale(1.00147)" />
  <polyline
     points="800.5,515.5 815.7,508.9 815.7,508.9 842.4,497.5 842.4,497.5 895.9,475.4 895.9,475.4 949.4,454.1 949.4,454.1 1002.9,433.3 1002.9,433.3 1056.4,413 1056.4,413 1109.9,393.5 "
     id="polyline892"
     style="font-style:normal;font-weight:400;font-size:11px;font-family:Ubuntu;vector-effect:none;fill:none;fill-rule:evenodd;stroke:#000000;stroke-width:1.00127884;stroke-linecap:round;stroke-linejoin:round;stroke-opacity:1;stroke-miterlimit:4;stroke-dasharray:none"
     transform="scale(1.00147)" />
  <polyline
     points="767,460.9 769.3,459.9 769.3,459.9 774.7,457.7 774.7,457.7 806.8,444.6 806.8,444.6 833.5,433.8 833.5,433.8 860.3,423.3 860.3,423.3 887,412.8 887,412.8 913.8,402.5 913.8,402.5 940.5,392.3 940.5,392.3 967.2,382.2 "
     id="polyline932"
     style="font-style:normal;font-weight:400;font-size:11px;font-family:Ubuntu;vector-effect:none;fill:none;fill-rule:evenodd;stroke:#000000;stroke-width:1.00127884;stroke-linecap:round;stroke-linejoin:round;stroke-opacity:1;stroke-miterlimit:4;stroke-dasharray:none"
     transform="scale(1.00147)" />
  <polyline
     points="731,408.4 733.7,407.3 733.7,407.3 739,405.2 739,405.2 771.1,392.4 771.1,392.4 797.9,382 797.9,382 813.9,375.8 813.9,375.8 819.2,373.7 819.2,373.7 824.6,371.7 "
     id="polyline972"
     style="font-style:normal;font-weight:400;font-size:11px;font-family:Ubuntu;vector-effect:none;fill:none;fill-rule:evenodd;stroke:#000000;stroke-width:1.00127884;stroke-linecap:round;stroke-linejoin:round;stroke-opacity:1;stroke-miterlimit:4;stroke-dasharray:none"
     transform="scale(1.00147)" />
  <polyline
     points="414.6,356.4 468.1,355.4 468.1,355.4 521.6,354.6 521.6,354.6 575.1,354.2 575.1,354.2 628.6,354.4 628.6,354.4 682,355.5 682,355.5 688.9,355.8 "
     id="polyline1012"
     style="font-style:normal;font-weight:400;font-size:11px;font-family:Ubuntu;vector-effect:none;fill:none;fill-rule:evenodd;stroke:#000000;stroke-width:1.00127884;stroke-linecap:round;stroke-linejoin:round;stroke-opacity:1;stroke-miterlimit:4;stroke-dasharray:none"
     transform="scale(1.00147)" />
  <polyline
     points="682,416.6 682,412.4 682,412.4 682,408.3 682,408.3 682,404.1 682,404.1 682,400 682,400 682,395.8 682,395.8 682,391.7 682,391.7 682.1,387.5 682.1,387.5 682.2,383.3 682.2,383.3 682.3,382.9 682.3,382.9 683,372.1 683,372.1 683.6,368.3 683.6,368.3 684.6,363.4 684.6,363.4 686.8,358.4 686.8,358.4 687.3,357.6 687.3,357.6 688.9,355.9 688.9,355.9 690,355 "
     id="polyline1052"
     style="font-style:normal;font-weight:400;font-size:11px;font-family:Ubuntu;vector-effect:none;fill:none;fill-rule:evenodd;stroke:#000000;stroke-width:1.00127884;stroke-linecap:round;stroke-linejoin:round;stroke-opacity:1;stroke-miterlimit:4;stroke-dasharray:2.00255768, 4.00511535999999957;stroke-dashoffset:0"
     transform="scale(1.00147)" />
  <polyline
     points="592.9,385.8 592.9,381.6 592.9,381.6 592.9,377.5 592.9,377.5 592.9,373.3 592.9,373.3 592.9,369.2 592.9,369.2 592.9,365 592.9,365 592.9,360.9 592.9,360.9 592.9,356.7 592.9,356.7 593,352.5 593,352.5 593,348.4 593,348.4 593.1,344.2 593.1,344.2 593.2,340 593.2,340 593.3,335.8 593.3,335.8 593.5,331.6 593.5,331.6 593.7,327.4 593.7,327.4 594,323.1 594,323.1 594.5,318.5 594.5,318.5 595,314.5 595,314.5 595.6,311.6 595.6,311.6 596.1,309.2 596.1,309.2 596.6,307.3 596.6,307.3 597.2,305.8 597.2,305.8 597.7,304.6 "
     id="polyline1092"
     style="font-style:normal;font-weight:400;font-size:11px;font-family:Ubuntu;vector-effect:none;fill:none;fill-rule:evenodd;stroke:#000000;stroke-width:1.00127884;stroke-linecap:round;stroke-linejoin:round;stroke-opacity:1;stroke-miterlimit:4;stroke-dasharray:2.00255768,4.00511536;stroke-dashoffset:0"
     transform="scale(1.00147)" />
  <polyline
     points="503.7,355 503.7,350.8 503.7,350.8 503.7,346.7 503.7,346.7 503.7,342.5 503.7,342.5 503.7,338.4 503.7,338.4 503.7,334.2 503.7,334.2 503.8,330.1 503.8,330.1 503.8,325.9 503.8,325.9 503.8,321.8 503.8,321.8 503.8,317.6 503.8,317.6 503.8,313.4 503.8,313.4 503.8,309.4 503.8,309.4 503.9,305.2 503.9,305.2 503.9,301 503.9,301 504,296.9 504,296.9 504.1,292.7 504.1,292.7 504.2,288.5 504.2,288.5 504.4,284.3 504.4,284.3 504.5,280.1 504.5,280.1 504.8,275.9 504.8,275.9 505,271.6 505,271.6 505.4,267.4 505.4,267.4 505.9,262.4 505.9,262.4 506.4,258.4 506.4,258.4 507,255.2 507,255.2 507.2,254.4 "
     id="polyline1132"
     style="font-style:normal;font-weight:400;font-size:11px;font-family:Ubuntu;vector-effect:none;fill:none;fill-rule:evenodd;stroke:#000000;stroke-width:1.00127885;stroke-linecap:round;stroke-linejoin:round;stroke-opacity:1;stroke-miterlimit:4;stroke-dasharray:2.0025577,4.0051154;stroke-dashoffset:0"
     transform="scale(1.00147)" />
  <polyline
     points="414.6,324.1 414.6,320 414.6,320 414.6,315.8 414.6,315.8 414.6,311.8 414.6,311.8 414.6,307.6 414.6,307.6 414.6,303.5 414.6,303.5 414.6,299.3 414.6,299.3 414.6,295.2 414.6,295.2 414.6,291 414.6,291 414.6,286.9 414.6,286.9 414.6,282.7 414.6,282.7 414.6,278.6 414.6,278.6 414.6,274.4 414.6,274.4 414.7,270.3 414.7,270.3 414.7,266.1 414.7,266.1 414.7,261.9 414.7,261.9 414.8,257.8 414.8,257.8 414.8,253.6 414.8,253.6 414.9,249.4 414.9,249.4 415,245.3 415,245.3 415.1,241.1 415.1,241.1 415.2,236.9 415.2,236.9 415.3,232.7 415.3,232.7 415.5,228.5 415.5,228.5 415.7,224.3 415.7,224.3 415.9,220.1 415.9,220.1 416.2,215.8 416.2,215.8 416.5,211.6 416.5,211.6 416.7,208.8 416.7,208.8 417.3,205.2 "
     id="polyline1172"
     style="font-style:normal;font-weight:400;font-size:11px;font-family:Ubuntu;vector-effect:none;fill:none;fill-rule:evenodd;stroke:#000000;stroke-width:1.00127885;stroke-linecap:round;stroke-linejoin:round;stroke-opacity:1;stroke-miterlimit:4;stroke-dasharray:2.0025577,4.0051154;stroke-dashoffset:0"
     transform="scale(1.00147)" />
  <polyline
     points="417.3,205.2 468.1,170.1 468.1,170.1 521.6,133.9 521.6,133.9 575.1,98.2 575.1,98.2 628.6,62.8 628.6,62.8 682,27.6 "
     id="polyline1212"
     style="font-style:normal;font-weight:400;font-size:11px;font-family:Ubuntu;vector-effect:none;fill:none;fill-rule:evenodd;stroke:#000000;stroke-width:1.00127884;stroke-linecap:round;stroke-linejoin:round;stroke-opacity:1;stroke-miterlimit:4;stroke-dasharray:none"
     transform="scale(1.00147)" />
  <polyline
     points="507.2,254.4 557.2,219.1 557.2,219.1 610.7,182.6 610.7,182.6 664.2,146.6 664.2,146.6 717.6,111.1 717.6,111.1 771.1,75.7 "
     id="polyline1252"
     style="font-style:normal;font-weight:400;font-size:11px;font-family:Ubuntu;vector-effect:none;fill:none;fill-rule:evenodd;stroke:#000000;stroke-width:1.00127884;stroke-linecap:round;stroke-linejoin:round;stroke-opacity:1;stroke-miterlimit:4;stroke-dasharray:none"
     transform="scale(1.00147)" />
  <path
     transform="scale(1.00147)"
     style="font-style:normal;font-weight:400;font-size:11px;font-family:Ubuntu;vector-effect:none;fill:none;fill-rule:evenodd;stroke:#000000;stroke-width:1.00127884;stroke-linecap:round;stroke-linejoin:round;stroke-opacity:1;stroke-miterlimit:4;stroke-dasharray:none"
     d="m 598.2,304.1 v 0 l 48.2,-35.5 v 0 l 53.4,-37.2 v 0 l 53.5,-36.2 v 0 l 53.5,-35.8 v 0 L 860.3,124"
     id="polyline1292"
     inkscape:connector-curvature="0"
     sodipodi:nodetypes="ccccccccccc" />
  <path
     transform="scale(1.00147)"
     style="font-style:normal;font-weight:400;font-size:11px;font-family:Ubuntu;vector-effect:none;fill:none;fill-rule:evenodd;stroke:#000000;stroke-width:1.00127885;stroke-linecap:round;stroke-linejoin:round;stroke-miterlimit:4;stroke-dasharray:2.0025577,4.0051154;stroke-opacity:1;stroke-dashoffset:0"
     d="m 688.9,355.9 v 0 l 19.8,-16 v 0 l 5.3,-4.3 v 0 l 2.7,-2.2 v 0 l 2.7,-2.1 v 0"
     id="polyline1332"
     inkscape:connector-curvature="0"
     sodipodi:nodetypes="cccccccccc" />
  <polyline
     points="1109.5,453.5 1109.5,424.5 1109.5,424.5 1109.5,393.5 "
     id="polyline1372"
     style="font-style:normal;font-weight:400;font-size:11px;font-family:Ubuntu;vector-effect:none;fill:none;fill-rule:evenodd;stroke:#000000;stroke-width:1.00127885;stroke-linecap:round;stroke-linejoin:round;stroke-opacity:1;stroke-miterlimit:4;stroke-dasharray:2.0025577,4.0051154;stroke-dashoffset:0"
     transform="scale(1.00147)" />
  <polyline
     points="967.5,441.5 967.5,437.5 967.5,437.5 967.5,424.5 967.5,424.5 967.5,408.5 967.5,408.5 967.5,391.5 967.5,391.5 967.5,382.5 "
     id="polyline1412"
     style="font-style:normal;font-weight:400;font-size:11px;font-family:Ubuntu;vector-effect:none;fill:none;fill-rule:evenodd;stroke:#000000;stroke-width:1.00127885;stroke-linecap:round;stroke-linejoin:round;stroke-opacity:1;stroke-miterlimit:4;stroke-dasharray:2.0025577, 4.00511540000000021;stroke-dashoffset:0"
     transform="scale(1.00147)" />
  <polyline
     points="824.5,428.5 824.5,424.5 824.5,424.5 824.5,420.5 824.5,420.5 824.5,416.5 824.5,416.5 824.5,412.5 824.5,412.5 824.5,408.5 824.5,408.5 824.5,404.5 824.5,404.5 824.5,399.5 824.5,399.5 824.5,395.5 824.5,395.5 824.5,391.5 824.5,391.5 824.5,387.5 824.5,387.5 824.5,383.5 824.5,383.5 824.5,379.5 824.5,379.5 824.5,377.5 824.5,377.5 824.5,375.5 824.5,375.5 824.5,375.5 824.5,375.5 824.5,372.5 824.5,372.5 824.5,371.5 "
     id="polyline1452"
     style="font-style:normal;font-weight:400;font-size:11px;font-family:Ubuntu;vector-effect:none;fill:none;fill-rule:evenodd;stroke:#000000;stroke-width:1.00127884;stroke-linecap:round;stroke-linejoin:round;stroke-opacity:1;stroke-miterlimit:4;stroke-dasharray:2.00255768,4.00511536;stroke-dashoffset:0"
     transform="scale(1.00147)" />
  <polyline
     points="1109.9,393.5 1136.6,374.1 1136.6,374.1 1163.4,355.4 1163.4,355.4 1216.9,318.8 "
     id="polyline1492"
     style="font-style:normal;font-weight:400;font-size:11px;font-family:Ubuntu;vector-effect:none;fill:none;fill-rule:evenodd;stroke:#000000;stroke-width:1.00127884;stroke-linecap:round;stroke-linejoin:round;stroke-opacity:1;stroke-miterlimit:4;stroke-dasharray:none"
     transform="scale(1.00147)" />
  <polyline
     points="967.2,382.2 994,361.9 994,361.9 1020.7,342.8 1020.7,342.8 1074.2,305.9 1074.2,305.9 1127.7,269.8 "
     id="polyline1532"
     style="font-style:normal;font-weight:400;font-size:11px;font-family:Ubuntu;vector-effect:none;fill:none;fill-rule:evenodd;stroke:#000000;stroke-width:1.00127884;stroke-linecap:round;stroke-linejoin:round;stroke-opacity:1;stroke-miterlimit:4;stroke-dasharray:none"
     transform="scale(1.00147)" />
  <path
     transform="scale(1.00147)"
     style="font-style:normal;font-weight:400;font-size:11px;font-family:Ubuntu;vector-effect:none;fill:none;fill-rule:evenodd;stroke:#000000;stroke-width:1.00127888;stroke-linecap:round;stroke-linejoin:round;stroke-miterlimit:4;stroke-dasharray:3.00383655, 3.00383655;stroke-dashoffset:0;stroke-opacity:1"
     d="m 824.6,371.7 10.7,-8.6 v 0 l 5.3,-4.2 v 0"
     id="polyline1572"
     inkscape:connector-curvature="0"
     sodipodi:nodetypes="ccccc" />
  <polyline
     points="1216.9,416.6 682,601.5 "
     id="polyline1660"
     style="font-style:normal;font-weight:400;font-size:11px;font-family:Ubuntu;vector-effect:none;fill:none;fill-rule:evenodd;stroke:#000000;stroke-width:1;stroke-linecap:round;stroke-linejoin:round;stroke-opacity:1"
     transform="scale(1.00147)" />
  <polyline
     points="147.1,416.6 682,601.5 "
     id="polyline1662"
     style="font-style:normal;font-weight:400;font-size:11px;font-family:Ubuntu;vector-effect:none;fill:none;fill-rule:evenodd;stroke:#000000;stroke-width:1;stroke-linecap:round;stroke-linejoin:round;stroke-opacity:1"
     transform="scale(1.00147)" />
  <path
     transform="scale(1.00147)"
     style="font-style:normal;font-weight:400;font-size:11px;font-family:Ubuntu;vector-effect:none;fill:none;fill-rule:evenodd;stroke:#000000;stroke-width:1.00127888;stroke-linecap:round;stroke-linejoin:round;stroke-miterlimit:4;stroke-dasharray:none;stroke-opacity:1"
     d="m 682,506.6 53.4,1.5 v 0 l 46.45016,4.25431 1.89457,0.17352 1.57499,0.14426 1.50381,0.13773 0.89932,0.0824 c 0.39238,0.0359 0.48606,0.0623 0.87844,0.0981 l -0.30834,-0.0482 1.53834,0.25387 1.00954,0.21254 1.56308,0.32907 2.79925,0.58931 L 800.3,515.4"
     id="polyline652"
     inkscape:connector-curvature="0"
     sodipodi:nodetypes="ccccccccccccccc" />
  <path
     inkscape:connector-curvature="0"
     style="font-style:normal;font-weight:400;font-size:11px;font-family:Ubuntu;vector-effect:none;fill:none;fill-rule:evenodd;stroke:#000000;stroke-width:1.00275087;stroke-linecap:round;stroke-linejoin:round;stroke-miterlimit:4;stroke-dasharray:none;stroke-opacity:1"
     d="m 841.83568,359.42758 v 0 l 37.55513,-28.34161 v 0 l 53.57864,-37.45498 v 0 l 53.5787,-36.4535 v 0 l 53.57875,-35.85263"
     id="polyline1572-7"
     sodipodi:nodetypes="ccccccccc" />
  <circle
     style="opacity:1;vector-effect:none;fill:#000000;fill-opacity:1;stroke:none;stroke-width:0.69421208;stroke-linecap:round;stroke-linejoin:round;stroke-miterlimit:4;stroke-dasharray:2.08263612, 2.08263612;stroke-dashoffset:0;stroke-opacity:1;paint-order:stroke markers fill"
     id="path3575"
     cx="841.73553"
     cy="359.60294"
     r="5.4239826" />
  <circle
     style="opacity:1;vector-effect:none;fill:#000000;fill-opacity:1;stroke:none;stroke-width:0.69421208;stroke-linecap:round;stroke-linejoin:round;stroke-miterlimit:4;stroke-dasharray:2.08263616, 2.08263616;stroke-dashoffset:0;stroke-opacity:1;paint-order:stroke markers fill"
     id="path3575-5"
     cx="720.55768"
     cy="332.16434"
     r="5.4239826" />
</svg>
