<?xml version="1.0" encoding="UTF-8" standalone="no"?>
<!-- Created with Inkscape (http://www.inkscape.org/) -->

<svg
   xmlns:dc="http://purl.org/dc/elements/1.1/"
   xmlns:cc="http://creativecommons.org/ns#"
   xmlns:rdf="http://www.w3.org/1999/02/22-rdf-syntax-ns#"
   xmlns:svg="http://www.w3.org/2000/svg"
   xmlns="http://www.w3.org/2000/svg"
   xmlns:sodipodi="http://sodipodi.sourceforge.net/DTD/sodipodi-0.dtd"
   xmlns:inkscape="http://www.inkscape.org/namespaces/inkscape"
   version="1.1"
   id="svg4518"
   xml:space="preserve"
   width="386.40948"
   height="387.45996"
   viewBox="0 0 386.40948 387.45996"
   sodipodi:docname="Critical_End_point.svg"
   inkscape:version="0.92.5 (2060ec1f9f, 2020-04-08)"><metadata
     id="metadata4524"><rdf:RDF><cc:Work
         rdf:about=""><dc:format>image/svg+xml</dc:format><dc:type
           rdf:resource="http://purl.org/dc/dcmitype/StillImage" /><dc:title /></cc:Work></rdf:RDF></metadata><defs
     id="defs4522"><marker
       inkscape:stockid="Arrow1Mend"
       orient="auto"
       refY="0"
       refX="0"
       id="marker5102"
       style="overflow:visible"
       inkscape:isstock="true"><path
         id="path5100"
         d="M 0,0 5,-5 -12.5,0 5,5 Z"
         style="fill:#000000;fill-opacity:0.99516901;fill-rule:evenodd;stroke:#000000;stroke-width:1.00000003pt;stroke-opacity:0.99516901"
         transform="matrix(-0.4,0,0,-0.4,-4,0)"
         inkscape:connector-curvature="0" /></marker><marker
       inkscape:stockid="Arrow2Mend"
       orient="auto"
       refY="0"
       refX="0"
       id="Arrow2Mend"
       style="overflow:visible"
       inkscape:isstock="true"><path
         id="path4823"
         style="fill:#000000;fill-opacity:0.99516901;fill-rule:evenodd;stroke:#000000;stroke-width:0.625;stroke-linejoin:round;stroke-opacity:0.99516901"
         d="M 8.7185878,4.0337352 -2.2072895,0.01601326 8.7185884,-4.0017078 c -1.7454984,2.3720609 -1.7354408,5.6174519 -6e-7,8.035443 z"
         transform="scale(-0.6)"
         inkscape:connector-curvature="0" /></marker><marker
       inkscape:stockid="Arrow1Mend"
       orient="auto"
       refY="0"
       refX="0"
       id="Arrow1Mend"
       style="overflow:visible"
       inkscape:isstock="true"><path
         id="path4805"
         d="M 0,0 5,-5 -12.5,0 5,5 Z"
         style="fill:#000000;fill-opacity:0.99516901;fill-rule:evenodd;stroke:#000000;stroke-width:1.00000003pt;stroke-opacity:0.99516901"
         transform="matrix(-0.4,0,0,-0.4,-4,0)"
         inkscape:connector-curvature="0" /></marker><marker
       inkscape:stockid="Arrow1Lend"
       orient="auto"
       refY="0"
       refX="0"
       id="Arrow1Lend"
       style="overflow:visible"
       inkscape:isstock="true"><path
         id="path4799"
         d="M 0,0 5,-5 -12.5,0 5,5 Z"
         style="fill:#000000;fill-opacity:0.99516901;fill-rule:evenodd;stroke:#000000;stroke-width:1.00000003pt;stroke-opacity:0.99516901"
         transform="matrix(-0.8,0,0,-0.8,-10,0)"
         inkscape:connector-curvature="0" /></marker><marker
       inkscape:stockid="Arrow1Mend"
       orient="auto"
       refY="0"
       refX="0"
       id="Arrow1Mend-3"
       style="overflow:visible"
       inkscape:isstock="true"><path
         id="path4805-6"
         d="M 0,0 5,-5 -12.5,0 5,5 Z"
         style="fill:#000000;fill-opacity:0.99516901;fill-rule:evenodd;stroke:#000000;stroke-width:1.00000003pt;stroke-opacity:0.99516901"
         transform="matrix(-0.4,0,0,-0.4,-4,0)"
         inkscape:connector-curvature="0" /></marker></defs><sodipodi:namedview
     pagecolor="#ffffff"
     bordercolor="#000000"
     borderopacity="0.25"
     objecttolerance="10"
     gridtolerance="10"
     guidetolerance="10"
     inkscape:pageopacity="0"
     inkscape:pageshadow="2"
     inkscape:window-width="1920"
     inkscape:window-height="1016"
     id="namedview4520"
     showgrid="false"
     showguides="true"
     inkscape:guide-bbox="true"
     inkscape:zoom="1.3800404"
     inkscape:cx="0.032551923"
     inkscape:cy="201.54491"
     inkscape:window-x="0"
     inkscape:window-y="27"
     inkscape:window-maximized="1"
     inkscape:current-layer="g2664" /><g
     id="g4526"
     inkscape:groupmode="layer"
     inkscape:label="Critical_End_point"
     transform="matrix(1.3333333,0,0,1.3333333,1.449233,-60.787149)"><g
       id="g2664"><path
         inkscape:connector-curvature="0"
         id="path4548"
         style="fill:none;stroke:#000000;stroke-width:1.93959045;stroke-linecap:butt;stroke-linejoin:miter;stroke-miterlimit:4;stroke-dasharray:none;stroke-opacity:0.99516901;marker-end:url(#Arrow1Mend)"
         d="M 24.691,308.539 H 284.89789" /><path
         inkscape:connector-curvature="0"
         id="path4552"
         style="fill:none;stroke:#000000;stroke-width:2.83464599;stroke-linecap:butt;stroke-linejoin:miter;stroke-miterlimit:4;stroke-dasharray:8.503937, 8.503937;stroke-dashoffset:0;stroke-opacity:0.99516901"
         d="m 52.607784,289.02112 c 0,0 51.425996,-116.786 209.999996,-148.926" /><path
         inkscape:connector-curvature="0"
         id="path4556"
         style="fill:none;stroke:#000000;stroke-width:2.83464599;stroke-linecap:butt;stroke-linejoin:miter;stroke-miterlimit:4;stroke-dasharray:none;stroke-opacity:0.99516901"
         d="M 134.90878,193.75512 55.361784,77.841119" /><path
         d="m 139.84978,194.66512 c 0,2.594 -2.101,4.699 -4.695,4.699 -2.594,0 -4.699,-2.105 -4.699,-4.699 0,-2.594 2.105,-4.695 4.699,-4.695 2.594,0 4.695,2.101 4.695,4.695 z"
         style="fill:#ffffff;fill-opacity:1;fill-rule:nonzero;stroke:none"
         id="path4558"
         inkscape:connector-curvature="0" /><path
         inkscape:connector-curvature="0"
         id="path4562"
         style="fill:none;stroke:#000000;stroke-width:1.00029802;stroke-linecap:butt;stroke-linejoin:miter;stroke-miterlimit:4;stroke-dasharray:none;stroke-opacity:0.99516901"
         d="m 139.84978,194.66512 c 0,2.594 -2.101,4.699 -4.695,4.699 -2.594,0 -4.699,-2.105 -4.699,-4.699 0,-2.594 2.105,-4.695 4.699,-4.695 2.594,0 4.695,2.101 4.695,4.695 z" /><g
         transform="translate(-91.721345,83.864617)"
         id="g1539"><g
           id="g1518"><path
             d="m 205.74878,191.50112 -0.285,-3.387 h -9.196 l -0.289,3.387 h 0.379 c 0.211,-2.422 0.438,-2.922 2.707,-2.922 0.274,0 0.664,0 0.817,0.032 0.312,0.062 0.312,0.226 0.312,0.574 v 7.929 c 0,0.512 0,0.723 -1.578,0.723 h -0.602 v 0.469 c 0.618,-0.047 2.153,-0.047 2.844,-0.047 0.692,0 2.242,0 2.86,0.047 v -0.469 h -0.602 c -1.582,0 -1.582,-0.211 -1.582,-0.723 v -7.929 c 0,-0.305 0,-0.512 0.273,-0.574 0.165,-0.032 0.571,-0.032 0.856,-0.032 2.273,0 2.5,0.5 2.711,2.922 z"
             style="fill:#000000;fill-opacity:1;fill-rule:nonzero;stroke:none"
             id="path4564"
             inkscape:connector-curvature="0" /><path
             d="m 210.53778,192.57112 c 0,-0.484 -0.469,-0.918 -1.113,-0.918 -1.102,0 -1.641,1.008 -1.852,1.653 v -1.653 l -2.094,0.165 v 0.464 c 1.055,0 1.176,0.106 1.176,0.844 v 4.035 c 0,0.676 -0.168,0.676 -1.176,0.676 v 0.469 l 1.715,-0.047 c 0.606,0 1.313,0 1.914,0.047 v -0.469 h -0.316 c -1.113,0 -1.145,-0.164 -1.145,-0.707 v -2.316 c 0,-1.493 0.633,-2.832 1.778,-2.832 0.105,0 0.132,0 0.164,0.015 -0.043,0.016 -0.348,0.196 -0.348,0.586 0,0.422 0.316,0.649 0.648,0.649 0.274,0 0.649,-0.18 0.649,-0.664 z"
             style="fill:#000000;fill-opacity:1;fill-rule:nonzero;stroke:none"
             id="path4566"
             inkscape:connector-curvature="0" /><path
             d="m 218.22878,196.96612 v -0.844 h -0.375 v 0.844 c 0,0.871 -0.379,0.965 -0.543,0.965 -0.496,0 -0.558,-0.68 -0.558,-0.754 v -3.012 c 0,-0.633 0,-1.219 -0.539,-1.777 -0.59,-0.586 -1.34,-0.828 -2.063,-0.828 -1.234,0 -2.273,0.711 -2.273,1.703 0,0.453 0.301,0.707 0.691,0.707 0.422,0 0.692,-0.301 0.692,-0.692 0,-0.179 -0.075,-0.679 -0.766,-0.695 0.406,-0.523 1.144,-0.691 1.625,-0.691 0.738,0 1.598,0.59 1.598,1.926 v 0.558 c -0.77,0.047 -1.825,0.09 -2.774,0.543 -1.129,0.512 -1.504,1.293 -1.504,1.957 0,1.219 1.461,1.594 2.41,1.594 0.993,0 1.684,-0.602 1.973,-1.309 0.059,0.602 0.465,1.235 1.172,1.235 0.316,0 1.234,-0.211 1.234,-1.43 z m -2.511,-0.77 c 0,1.43 -1.086,1.942 -1.762,1.942 -0.738,0 -1.356,-0.524 -1.356,-1.277 0,-0.829 0.633,-2.079 3.118,-2.168 z"
             style="fill:#000000;fill-opacity:1;fill-rule:nonzero;stroke:none"
             id="path4568"
             inkscape:connector-curvature="0" /><path
             d="m 226.53778,198.30612 v -0.469 c -0.781,0 -1.156,0 -1.172,-0.449 v -2.875 c 0,-1.297 0,-1.762 -0.469,-2.305 -0.211,-0.254 -0.707,-0.555 -1.578,-0.555 -1.101,0 -1.808,0.645 -2.23,1.579 v -1.579 l -2.121,0.165 v 0.464 c 1.054,0 1.171,0.106 1.171,0.844 v 4.035 c 0,0.676 -0.164,0.676 -1.171,0.676 v 0.469 l 1.699,-0.047 1.687,0.047 v -0.469 c -1.008,0 -1.175,0 -1.175,-0.676 v -2.769 c 0,-1.567 1.07,-2.41 2.035,-2.41 0.945,0 1.113,0.812 1.113,1.671 v 3.508 c 0,0.676 -0.168,0.676 -1.176,0.676 v 0.469 l 1.703,-0.047 z"
             style="fill:#000000;fill-opacity:1;fill-rule:nonzero;stroke:none"
             id="path4570"
             inkscape:connector-curvature="0" /><path
             d="m 232.27178,196.38012 c 0,-0.801 -0.449,-1.25 -0.629,-1.43 -0.5,-0.484 -1.086,-0.605 -1.718,-0.722 -0.84,-0.168 -1.852,-0.364 -1.852,-1.235 0,-0.527 0.395,-1.144 1.688,-1.144 1.656,0 1.73,1.351 1.761,1.82 0.012,0.137 0.18,0.137 0.18,0.137 0.195,0 0.195,-0.078 0.195,-0.363 v -1.52 c 0,-0.258 0,-0.363 -0.164,-0.363 -0.078,0 -0.105,0 -0.301,0.183 -0.046,0.059 -0.195,0.196 -0.257,0.239 -0.571,-0.422 -1.188,-0.422 -1.414,-0.422 -1.836,0 -2.411,1.011 -2.411,1.851 0,0.528 0.243,0.95 0.649,1.282 0.48,0.39 0.902,0.48 1.988,0.691 0.328,0.062 1.563,0.301 1.563,1.387 0,0.765 -0.524,1.367 -1.7,1.367 -1.265,0 -1.804,-0.856 -2.093,-2.137 -0.043,-0.195 -0.059,-0.254 -0.211,-0.254 -0.196,0 -0.196,0.106 -0.196,0.375 v 1.989 c 0,0.253 0,0.359 0.168,0.359 0.075,0 0.09,-0.012 0.375,-0.301 0.032,-0.031 0.032,-0.058 0.301,-0.344 0.664,0.629 1.34,0.645 1.656,0.645 1.731,0 2.422,-1.008 2.422,-2.09 z"
             style="fill:#000000;fill-opacity:1;fill-rule:nonzero;stroke:none"
             id="path4572"
             inkscape:connector-curvature="0" /><path
             d="m 236.50278,198.30612 v -0.469 c -0.992,0 -1.051,-0.074 -1.051,-0.66 v -5.524 l -2.109,0.165 v 0.464 c 0.98,0 1.113,0.094 1.113,0.829 v 4.05 c 0,0.676 -0.164,0.676 -1.172,0.676 v 0.469 l 1.656,-0.047 c 0.524,0 1.051,0.031 1.563,0.047 z m -0.828,-9.094 c 0,-0.406 -0.344,-0.797 -0.797,-0.797 -0.512,0 -0.813,0.422 -0.813,0.797 0,0.406 0.348,0.801 0.797,0.801 0.512,0 0.813,-0.422 0.813,-0.801 z"
             style="fill:#000000;fill-opacity:1;fill-rule:nonzero;stroke:none"
             id="path4574"
             inkscape:connector-curvature="0" /><path
             d="m 243.21778,196.51312 c 0,-0.149 -0.149,-0.149 -0.196,-0.149 -0.136,0 -0.164,0.059 -0.195,0.149 -0.438,1.402 -1.414,1.582 -1.973,1.582 -0.797,0 -2.121,-0.649 -2.121,-3.07 0,-2.454 1.235,-3.086 2.031,-3.086 0.137,0 1.082,0.011 1.61,0.554 -0.617,0.047 -0.707,0.5 -0.707,0.696 0,0.39 0.273,0.691 0.691,0.691 0.395,0 0.696,-0.258 0.696,-0.707 0,-1.023 -1.145,-1.613 -2.305,-1.613 -1.883,0 -3.266,1.629 -3.266,3.492 0,1.762 1.235,3.148 2.77,3.391 v 1.246 c 0.558,0 1.144,0.136 1.144,0.617 0,0.617 -1.429,0.617 -2.558,0.617 h -0.196 v 0.395 h 0.391 c 1.625,0 3.629,0 3.629,-1.012 0,-0.707 -0.817,-1.008 -1.629,-1.008 v -0.844 c 1.746,-0.179 2.184,-1.804 2.184,-1.941 z"
             style="fill:#000000;fill-opacity:1;fill-rule:nonzero;stroke:none"
             id="path4576"
             inkscape:connector-curvature="0" /><path
             d="m 250.92478,196.96612 v -0.844 h -0.375 v 0.844 c 0,0.871 -0.379,0.965 -0.543,0.965 -0.496,0 -0.559,-0.68 -0.559,-0.754 v -3.012 c 0,-0.633 0,-1.219 -0.539,-1.777 -0.59,-0.586 -1.34,-0.828 -2.063,-0.828 -1.234,0 -2.273,0.711 -2.273,1.703 0,0.453 0.301,0.707 0.691,0.707 0.422,0 0.692,-0.301 0.692,-0.692 0,-0.179 -0.074,-0.679 -0.766,-0.695 0.406,-0.523 1.145,-0.691 1.625,-0.691 0.739,0 1.598,0.59 1.598,1.926 v 0.558 c -0.77,0.047 -1.824,0.09 -2.774,0.543 -1.128,0.512 -1.503,1.293 -1.503,1.957 0,1.219 1.46,1.594 2.41,1.594 0.992,0 1.683,-0.602 1.972,-1.309 0.059,0.602 0.465,1.235 1.172,1.235 0.317,0 1.235,-0.211 1.235,-1.43 z m -2.512,-0.77 c 0,1.43 -1.086,1.942 -1.762,1.942 -0.738,0 -1.355,-0.524 -1.355,-1.277 0,-0.829 0.633,-2.079 3.117,-2.168 z m 1.519,-7.464 -0.242,-0.227 c 0,0 -0.57,0.723 -1.234,0.723 -0.348,0 -0.723,-0.227 -0.977,-0.375 -0.406,-0.242 -0.679,-0.348 -0.933,-0.348 -0.574,0 -0.86,0.332 -1.629,1.176 l 0.242,0.226 c 0,0 0.574,-0.722 1.234,-0.722 0.348,0 0.723,0.222 0.981,0.375 0.406,0.242 0.676,0.347 0.933,0.347 0.571,0 0.856,-0.332 1.625,-1.175 z"
             style="fill:#000000;fill-opacity:1;fill-rule:nonzero;stroke:none"
             id="path4578"
             inkscape:connector-curvature="0" /><path
             d="m 258.27178,195.08312 c 0,-1.926 -1.508,-3.523 -3.328,-3.523 -1.883,0 -3.344,1.64 -3.344,3.523 0,1.942 1.567,3.387 3.329,3.387 1.82,0 3.343,-1.473 3.343,-3.387 z m -1.25,-0.121 c 0,0.543 0,1.356 -0.332,2.02 -0.332,0.675 -0.992,1.113 -1.746,1.113 -0.648,0 -1.308,-0.317 -1.715,-1.008 -0.379,-0.664 -0.379,-1.582 -0.379,-2.125 0,-0.586 0,-1.398 0.364,-2.062 0.406,-0.692 1.113,-1.008 1.715,-1.008 0.664,0 1.308,0.332 1.703,0.98 0.39,0.645 0.39,1.52 0.39,2.09 z"
             style="fill:#000000;fill-opacity:1;fill-rule:nonzero;stroke:none"
             id="path4580"
             inkscape:connector-curvature="0" /><path
             d="m 271.65078,198.30612 v -0.469 c -1.051,0 -1.172,-0.105 -1.172,-0.84 v -9.14 l -2.168,0.168 v 0.464 c 1.055,0 1.176,0.106 1.176,0.844 v 3.25 c -0.437,-0.539 -1.086,-0.93 -1.898,-0.93 -1.778,0 -3.356,1.473 -3.356,3.415 0,1.914 1.473,3.402 3.192,3.402 0.961,0 1.64,-0.512 2.015,-0.992 v 0.992 z m -2.211,-1.778 c 0,0.274 0,0.301 -0.164,0.559 -0.453,0.723 -1.129,1.051 -1.777,1.051 -0.68,0 -1.219,-0.391 -1.582,-0.961 -0.391,-0.617 -0.434,-1.477 -0.434,-2.094 0,-0.555 0.028,-1.461 0.465,-2.137 0.316,-0.464 0.887,-0.964 1.699,-0.964 0.528,0 1.16,0.226 1.629,0.906 0.164,0.254 0.164,0.285 0.164,0.555 z"
             style="fill:#000000;fill-opacity:1;fill-rule:nonzero;stroke:none"
             id="path4582"
             inkscape:connector-curvature="0" /><path
             d="m 278.33478,196.51312 c 0,-0.149 -0.117,-0.18 -0.196,-0.18 -0.132,0 -0.164,0.09 -0.195,0.211 -0.527,1.551 -1.879,1.551 -2.031,1.551 -0.754,0 -1.356,-0.453 -1.699,-1.008 -0.453,-0.723 -0.453,-1.719 -0.453,-2.258 h 4.199 c 0.332,0 0.379,0 0.379,-0.316 0,-1.492 -0.817,-2.953 -2.696,-2.953 -1.746,0 -3.132,1.551 -3.132,3.433 0,2.016 1.582,3.477 3.312,3.477 1.836,0 2.516,-1.672 2.516,-1.957 z m -0.992,-2 h -3.567 c 0.09,-2.242 1.356,-2.621 1.867,-2.621 1.551,0 1.7,2.031 1.7,2.621 z"
             style="fill:#000000;fill-opacity:1;fill-rule:nonzero;stroke:none"
             id="path4584"
             inkscape:connector-curvature="0" /><path
             d="m 290.09278,198.30612 v -0.469 h -0.481 c -1.355,0 -1.402,-0.164 -1.402,-0.723 v -8.441 c 0,-0.363 0,-0.395 -0.344,-0.395 -0.934,0.965 -2.258,0.965 -2.742,0.965 v 0.465 c 0.305,0 1.191,0 1.972,-0.39 v 7.796 c 0,0.543 -0.042,0.723 -1.398,0.723 h -0.48 v 0.469 c 0.523,-0.047 1.836,-0.047 2.437,-0.047 0.602,0 1.91,0 2.438,0.047 z"
             style="fill:#000000;fill-opacity:1;fill-rule:nonzero;stroke:none"
             id="path4586"
             inkscape:connector-curvature="0" /><path
             d="m 297.54578,191.47012 v -0.586 h -0.317 v 0.586 c 0,0.617 -0.316,0.68 -0.453,0.68 -0.422,0 -0.465,-0.485 -0.465,-0.528 v -2.109 c 0,-0.449 0,-0.856 -0.453,-1.246 -0.496,-0.41 -1.129,-0.574 -1.746,-0.574 -1.023,0 -1.898,0.496 -1.898,1.191 0,0.312 0.242,0.496 0.574,0.496 0.359,0 0.586,-0.211 0.586,-0.496 0,-0.121 -0.059,-0.469 -0.645,-0.484 0.344,-0.36 0.961,-0.481 1.367,-0.481 0.618,0 1.34,0.406 1.34,1.356 v 0.39 c -0.648,0.031 -1.535,0.059 -2.332,0.375 -0.949,0.363 -1.265,0.903 -1.265,1.371 0,0.844 1.234,1.114 2.031,1.114 0.828,0 1.418,-0.422 1.656,-0.918 0.047,0.421 0.391,0.859 0.981,0.859 0.269,0 1.039,-0.137 1.039,-0.996 z m -0.227,1.656 c 0,-0.074 -0.105,-0.148 -0.226,-0.148 h -4.801 c -0.121,0 -0.227,0.074 -0.227,0.148 0,0.09 0.106,0.168 0.227,0.168 h 4.801 c 0.121,0 0.226,-0.078 0.226,-0.168 z m -1.883,-2.195 c 0,1.008 -0.918,1.367 -1.476,1.367 -0.629,0 -1.141,-0.375 -1.141,-0.902 0,-0.571 0.524,-1.461 2.617,-1.52 z"
             style="fill:#000000;fill-opacity:1;fill-rule:nonzero;stroke:none"
             id="path4588"
             inkscape:connector-curvature="0" /><path
             d="m 310.17478,195.08312 c 0,-1.926 -1.508,-3.523 -3.329,-3.523 -1.882,0 -3.339,1.64 -3.339,3.523 0,1.942 1.562,3.387 3.324,3.387 1.824,0 3.344,-1.473 3.344,-3.387 z m -1.25,-0.121 c 0,0.543 0,1.356 -0.332,2.02 -0.332,0.675 -0.993,1.113 -1.747,1.113 -0.648,0 -1.308,-0.317 -1.714,-1.008 -0.375,-0.664 -0.375,-1.582 -0.375,-2.125 0,-0.586 0,-1.398 0.359,-2.062 0.406,-0.692 1.113,-1.008 1.715,-1.008 0.664,0 1.312,0.332 1.703,0.98 0.391,0.645 0.391,1.52 0.391,2.09 z"
             style="fill:#000000;fill-opacity:1;fill-rule:nonzero;stroke:none"
             id="path4590"
             inkscape:connector-curvature="0" /><path
             d="m 316.08878,192.57112 c 0,-0.484 -0.465,-0.918 -1.114,-0.918 -1.097,0 -1.64,1.008 -1.851,1.653 v -1.653 l -2.094,0.165 v 0.464 c 1.055,0 1.176,0.106 1.176,0.844 v 4.035 c 0,0.676 -0.164,0.676 -1.176,0.676 v 0.469 l 1.719,-0.047 c 0.601,0 1.308,0 1.91,0.047 v -0.469 h -0.316 c -1.114,0 -1.145,-0.164 -1.145,-0.707 v -2.316 c 0,-1.493 0.633,-2.832 1.777,-2.832 0.106,0 0.137,0 0.168,0.015 -0.047,0.016 -0.347,0.196 -0.347,0.586 0,0.422 0.316,0.649 0.648,0.649 0.27,0 0.645,-0.18 0.645,-0.664 z"
             style="fill:#000000;fill-opacity:1;fill-rule:nonzero;stroke:none"
             id="path4592"
             inkscape:connector-curvature="0" /><path
             d="m 324.44378,198.30612 v -0.469 c -1.055,0 -1.176,-0.105 -1.176,-0.84 v -9.14 l -2.164,0.168 v 0.464 c 1.051,0 1.172,0.106 1.172,0.844 v 3.25 c -0.437,-0.539 -1.082,-0.93 -1.894,-0.93 -1.778,0 -3.36,1.473 -3.36,3.415 0,1.914 1.477,3.402 3.192,3.402 0.965,0 1.64,-0.512 2.019,-0.992 v 0.992 z m -2.211,-1.778 c 0,0.274 0,0.301 -0.168,0.559 -0.449,0.723 -1.129,1.051 -1.777,1.051 -0.676,0 -1.219,-0.391 -1.578,-0.961 -0.391,-0.617 -0.438,-1.477 -0.438,-2.094 0,-0.555 0.032,-1.461 0.469,-2.137 0.313,-0.464 0.887,-0.964 1.699,-0.964 0.528,0 1.16,0.226 1.625,0.906 0.168,0.254 0.168,0.285 0.168,0.555 z"
             style="fill:#000000;fill-opacity:1;fill-rule:nonzero;stroke:none"
             id="path4594"
             inkscape:connector-curvature="0" /><path
             d="m 331.12778,196.51312 c 0,-0.149 -0.121,-0.18 -0.196,-0.18 -0.136,0 -0.164,0.09 -0.195,0.211 -0.527,1.551 -1.883,1.551 -2.031,1.551 -0.754,0 -1.356,-0.453 -1.703,-1.008 -0.449,-0.723 -0.449,-1.719 -0.449,-2.258 h 4.199 c 0.332,0 0.375,0 0.375,-0.316 0,-1.492 -0.813,-2.953 -2.696,-2.953 -1.746,0 -3.128,1.551 -3.128,3.433 0,2.016 1.578,3.477 3.312,3.477 1.836,0 2.512,-1.672 2.512,-1.957 z m -0.992,-2 h -3.571 c 0.094,-2.242 1.356,-2.621 1.867,-2.621 1.551,0 1.704,2.031 1.704,2.621 z"
             style="fill:#000000;fill-opacity:1;fill-rule:nonzero;stroke:none"
             id="path4596"
             inkscape:connector-curvature="0" /></g><path
           inkscape:connector-curvature="0"
           id="path4598"
           style="fill:#000000;fill-opacity:1;fill-rule:nonzero;stroke:none"
           d="m 343.80378,198.30612 v -0.469 c -0.786,0 -1.161,0 -1.176,-0.449 v -2.875 c 0,-1.297 0,-1.762 -0.465,-2.305 -0.211,-0.254 -0.707,-0.555 -1.582,-0.555 -1.266,0 -1.926,0.903 -2.184,1.473 -0.211,-1.308 -1.324,-1.473 -2,-1.473 -1.101,0 -1.808,0.645 -2.23,1.579 v -1.579 l -2.121,0.165 v 0.464 c 1.054,0 1.176,0.106 1.176,0.844 v 4.035 c 0,0.676 -0.168,0.676 -1.176,0.676 v 0.469 l 1.703,-0.047 1.683,0.047 v -0.469 c -1.007,0 -1.171,0 -1.171,-0.676 v -2.769 c 0,-1.567 1.066,-2.41 2.031,-2.41 0.949,0 1.113,0.812 1.113,1.671 v 3.508 c 0,0.676 -0.164,0.676 -1.176,0.676 v 0.469 l 1.703,-0.047 1.684,0.047 v -0.469 c -1.008,0 -1.172,0 -1.172,-0.676 v -2.769 c 0,-1.567 1.067,-2.41 2.031,-2.41 0.95,0 1.114,0.812 1.114,1.671 v 3.508 c 0,0.676 -0.164,0.676 -1.172,0.676 v 0.469 l 1.699,-0.047 z" /></g><path
         d="m 91.107784,87.638119 -0.285,-3.387 h -9.199 l -0.285,3.387 h 0.375 c 0.211,-2.422 0.437,-2.918 2.711,-2.918 0.269,0 0.66,0 0.812,0.027 0.317,0.063 0.317,0.227 0.317,0.574 v 7.934 c 0,0.512 0,0.723 -1.582,0.723 h -0.602 v 0.465 c 0.617,-0.043 2.152,-0.043 2.844,-0.043 0.695,0 2.246,0 2.863,0.043 v -0.465 h -0.605 c -1.579,0 -1.579,-0.211 -1.579,-0.723 v -7.934 c 0,-0.3 0,-0.511 0.27,-0.574 0.168,-0.027 0.574,-0.027 0.859,-0.027 2.274,0 2.5,0.496 2.711,2.918 z"
         style="fill:#000000;fill-opacity:1;fill-rule:nonzero;stroke:none"
         id="path4600"
         inkscape:connector-curvature="0" /><path
         d="m 95.892784,88.708119 c 0,-0.48 -0.464,-0.918 -1.113,-0.918 -1.098,0 -1.641,1.008 -1.851,1.656 v -1.656 l -2.09,0.164 v 0.469 c 1.05,0 1.172,0.105 1.172,0.844 v 4.031 c 0,0.68 -0.165,0.68 -1.172,0.68 v 0.465 l 1.715,-0.043 c 0.601,0 1.308,0 1.91,0.043 v -0.465 h -0.317 c -1.113,0 -1.144,-0.168 -1.144,-0.707 v -2.321 c 0,-1.488 0.633,-2.828 1.777,-2.828 0.106,0 0.137,0 0.168,0.012 -0.047,0.016 -0.348,0.195 -0.348,0.59 0,0.418 0.317,0.644 0.649,0.644 0.269,0 0.644,-0.179 0.644,-0.66 z"
         style="fill:#000000;fill-opacity:1;fill-rule:nonzero;stroke:none"
         id="path4602"
         inkscape:connector-curvature="0" /><path
         d="m 103.58878,93.103119 v -0.844 h -0.379 v 0.844 c 0,0.875 -0.375,0.965 -0.543,0.965 -0.496,0 -0.555,-0.68 -0.555,-0.754 v -3.012 c 0,-0.629 0,-1.219 -0.543,-1.774 -0.586,-0.589 -1.34,-0.828 -2.061996,-0.828 -1.235,0 -2.274,0.707 -2.274,1.7 0,0.453 0.301,0.707 0.696,0.707 0.417,0 0.691,-0.301 0.691,-0.692 0,-0.18 -0.074,-0.676 -0.77,-0.691 0.407,-0.528 1.145,-0.692 1.625,-0.692 0.738996,0 1.597996,0.586 1.597996,1.926 v 0.555 c -0.769,0.047 -1.819996,0.094 -2.768996,0.543 -1.129,0.512 -1.504,1.297 -1.504,1.957 0,1.219 1.457,1.598 2.406,1.598 0.991996,0 1.686996,-0.606 1.972996,-1.313 0.058,0.602 0.464,1.234 1.175,1.234 0.313,0 1.235,-0.211 1.235,-1.429 z m -2.516,-0.766 c 0,1.43 -1.085996,1.941 -1.761996,1.941 -0.738,0 -1.355,-0.527 -1.355,-1.281 0,-0.828 0.633,-2.078 3.116996,-2.168 z"
         style="fill:#000000;fill-opacity:1;fill-rule:nonzero;stroke:none"
         id="path4604"
         inkscape:connector-curvature="0" /><path
         d="m 111.89678,94.443119 v -0.465 c -0.785,0 -1.16,0 -1.175,-0.453 v -2.875 c 0,-1.293 0,-1.762 -0.465,-2.305 -0.211,-0.254 -0.707,-0.555 -1.582,-0.555 -1.098,0 -1.805,0.649 -2.227,1.578 v -1.578 l -2.125,0.164 v 0.469 c 1.055,0 1.176,0.105 1.176,0.844 v 4.031 c 0,0.68 -0.164,0.68 -1.176,0.68 v 0.465 l 1.703,-0.043 1.684,0.043 v -0.465 c -1.008,0 -1.172,0 -1.172,-0.68 v -2.77 c 0,-1.566 1.066,-2.406 2.031,-2.406 0.949,0 1.113,0.813 1.113,1.668 v 3.508 c 0,0.68 -0.164,0.68 -1.171,0.68 v 0.465 l 1.699,-0.043 z"
         style="fill:#000000;fill-opacity:1;fill-rule:nonzero;stroke:none"
         id="path4606"
         inkscape:connector-curvature="0" /><path
         d="m 117.63178,92.517119 c 0,-0.797 -0.453,-1.25 -0.633,-1.43 -0.496,-0.484 -1.082,-0.602 -1.715,-0.723 -0.844,-0.168 -1.852,-0.363 -1.852,-1.234 0,-0.527 0.391,-1.145 1.684,-1.145 1.656,0 1.734,1.356 1.762,1.821 0.015,0.137 0.179,0.137 0.179,0.137 0.2,0 0.2,-0.075 0.2,-0.364 v -1.519 c 0,-0.254 0,-0.36 -0.168,-0.36 -0.075,0 -0.106,0 -0.301,0.18 -0.043,0.059 -0.195,0.195 -0.254,0.242 -0.574,-0.422 -1.191,-0.422 -1.418,-0.422 -1.836,0 -2.406,1.008 -2.406,1.852 0,0.527 0.238,0.949 0.644,1.277 0.485,0.391 0.907,0.485 1.989,0.696 0.332,0.058 1.566,0.3 1.566,1.382 0,0.77 -0.527,1.371 -1.703,1.371 -1.262,0 -1.805,-0.859 -2.09,-2.136 -0.047,-0.199 -0.062,-0.258 -0.211,-0.258 -0.195,0 -0.195,0.105 -0.195,0.375 v 1.988 c 0,0.258 0,0.364 0.164,0.364 0.074,0 0.09,-0.016 0.375,-0.305 0.031,-0.028 0.031,-0.059 0.305,-0.344 0.66,0.633 1.335,0.649 1.652,0.649 1.734,0 2.426,-1.012 2.426,-2.094 z"
         style="fill:#000000;fill-opacity:1;fill-rule:nonzero;stroke:none"
         id="path4608"
         inkscape:connector-curvature="0" /><path
         d="m 121.86178,94.443119 v -0.465 c -0.996,0 -1.055,-0.078 -1.055,-0.664 v -5.524 l -2.105,0.164 v 0.469 c 0.977,0 1.113,0.09 1.113,0.828 v 4.047 c 0,0.68 -0.168,0.68 -1.176,0.68 v 0.465 l 1.657,-0.043 c 0.527,0 1.054,0.027 1.566,0.043 z m -0.828,-9.09 c 0,-0.407 -0.348,-0.801 -0.797,-0.801 -0.512,0 -0.816,0.422 -0.816,0.801 0,0.406 0.347,0.797 0.801,0.797 0.511,0 0.812,-0.422 0.812,-0.797 z"
         style="fill:#000000;fill-opacity:1;fill-rule:nonzero;stroke:none"
         id="path4610"
         inkscape:connector-curvature="0" /><path
         d="m 128.57278,92.653119 c 0,-0.152 -0.148,-0.152 -0.195,-0.152 -0.133,0 -0.164,0.059 -0.196,0.152 -0.433,1.399 -1.414,1.579 -1.968,1.579 -0.801,0 -2.125,-0.645 -2.125,-3.071 0,-2.453 1.234,-3.086 2.031,-3.086 0.137,0 1.086,0.016 1.613,0.559 -0.617,0.043 -0.707,0.496 -0.707,0.691 0,0.391 0.27,0.692 0.692,0.692 0.39,0 0.691,-0.254 0.691,-0.707 0,-1.024 -1.145,-1.61 -2.301,-1.61 -1.883,0 -3.269,1.625 -3.269,3.493 0,1.761 1.234,3.144 2.769,3.386 v 1.25 c 0.559,0 1.145,0.133 1.145,0.617 0,0.618 -1.43,0.618 -2.559,0.618 h -0.195 v 0.39 h 0.39 c 1.625,0 3.629,0 3.629,-1.008 0,-0.707 -0.812,-1.011 -1.625,-1.011 v -0.84 c 1.746,-0.184 2.184,-1.809 2.184,-1.942 z"
         style="fill:#000000;fill-opacity:1;fill-rule:nonzero;stroke:none"
         id="path4612"
         inkscape:connector-curvature="0" /><path
         d="m 136.28378,93.103119 v -0.844 h -0.379 v 0.844 c 0,0.875 -0.375,0.965 -0.543,0.965 -0.496,0 -0.555,-0.68 -0.555,-0.754 v -3.012 c 0,-0.629 0,-1.219 -0.543,-1.774 -0.585,-0.589 -1.339,-0.828 -2.062,-0.828 -1.234,0 -2.273,0.707 -2.273,1.7 0,0.453 0.3,0.707 0.695,0.707 0.418,0 0.691,-0.301 0.691,-0.692 0,-0.18 -0.074,-0.676 -0.769,-0.691 0.406,-0.528 1.144,-0.692 1.625,-0.692 0.738,0 1.597,0.586 1.597,1.926 v 0.555 c -0.769,0.047 -1.82,0.094 -2.769,0.543 -1.129,0.512 -1.504,1.297 -1.504,1.957 0,1.219 1.457,1.598 2.406,1.598 0.992,0 1.688,-0.606 1.973,-1.313 0.058,0.602 0.465,1.234 1.176,1.234 0.312,0 1.234,-0.211 1.234,-1.429 z m -2.516,-0.766 c 0,1.43 -1.082,1.941 -1.761,1.941 -0.739,0 -1.356,-0.527 -1.356,-1.281 0,-0.828 0.633,-2.078 3.117,-2.168 z m 1.52,-7.469 -0.242,-0.226 c 0,0 -0.571,0.722 -1.235,0.722 -0.343,0 -0.718,-0.222 -0.976,-0.375 -0.406,-0.242 -0.676,-0.347 -0.934,-0.347 -0.57,0 -0.859,0.332 -1.625,1.176 l 0.242,0.226 c 0,0 0.571,-0.723 1.235,-0.723 0.343,0 0.722,0.227 0.976,0.375 0.407,0.243 0.676,0.348 0.934,0.348 0.57,0 0.859,-0.332 1.625,-1.176 z"
         style="fill:#000000;fill-opacity:1;fill-rule:nonzero;stroke:none"
         id="path4614"
         inkscape:connector-curvature="0" /><path
         d="m 143.62778,91.220119 c 0,-1.926 -1.504,-3.52 -3.328,-3.52 -1.879,0 -3.34,1.641 -3.34,3.52 0,1.945 1.566,3.391 3.328,3.391 1.82,0 3.34,-1.477 3.34,-3.391 z m -1.25,-0.117 c 0,0.539 0,1.351 -0.332,2.015 -0.328,0.676 -0.992,1.114 -1.746,1.114 -0.645,0 -1.309,-0.317 -1.715,-1.008 -0.375,-0.664 -0.375,-1.582 -0.375,-2.121 0,-0.59 0,-1.403 0.359,-2.063 0.406,-0.695 1.113,-1.008 1.719,-1.008 0.66,0 1.308,0.329 1.699,0.977 0.391,0.648 0.391,1.519 0.391,2.094 z"
         style="fill:#000000;fill-opacity:1;fill-rule:nonzero;stroke:none"
         id="path4616"
         inkscape:connector-curvature="0" /><path
         d="m 157.01078,94.443119 v -0.465 c -1.055,0 -1.176,-0.106 -1.176,-0.844 v -9.137 l -2.168,0.164 v 0.469 c 1.055,0 1.176,0.105 1.176,0.84 v 3.254 c -0.438,-0.543 -1.082,-0.934 -1.899,-0.934 -1.773,0 -3.355,1.477 -3.355,3.418 0,1.91 1.476,3.403 3.191,3.403 0.965,0 1.641,-0.512 2.016,-0.997 v 0.997 z m -2.215,-1.778 c 0,0.274 0,0.305 -0.164,0.559 -0.453,0.722 -1.129,1.054 -1.778,1.054 -0.675,0 -1.218,-0.39 -1.578,-0.964 -0.394,-0.618 -0.437,-1.477 -0.437,-2.094 0,-0.555 0.031,-1.457 0.465,-2.137 0.316,-0.465 0.89,-0.961 1.703,-0.961 0.527,0 1.16,0.223 1.625,0.903 0.164,0.253 0.164,0.285 0.164,0.554 z"
         style="fill:#000000;fill-opacity:1;fill-rule:nonzero;stroke:none"
         id="path4618"
         inkscape:connector-curvature="0" /><path
         d="m 163.69378,92.653119 c 0,-0.152 -0.121,-0.183 -0.195,-0.183 -0.137,0 -0.168,0.094 -0.195,0.211 -0.528,1.551 -1.883,1.551 -2.032,1.551 -0.754,0 -1.355,-0.45 -1.703,-1.008 -0.453,-0.723 -0.453,-1.715 -0.453,-2.258 h 4.203 c 0.328,0 0.375,0 0.375,-0.316 0,-1.489 -0.812,-2.95 -2.695,-2.95 -1.746,0 -3.129,1.551 -3.129,3.43 0,2.02 1.578,3.481 3.309,3.481 1.839,0 2.515,-1.672 2.515,-1.958 z m -0.992,-2.003 h -3.57 c 0.09,-2.243 1.355,-2.618 1.867,-2.618 1.551,0 1.703,2.032 1.703,2.618 z"
         style="fill:#000000;fill-opacity:1;fill-rule:nonzero;stroke:none"
         id="path4620"
         inkscape:connector-curvature="0" /><path
         d="m 175.90078,91.825119 h -0.375 c -0.074,0.45 -0.18,1.114 -0.332,1.34 -0.105,0.117 -1.098,0.117 -1.43,0.117 h -2.71 l 1.597,-1.547 c 2.348,-2.078 3.25,-2.89 3.25,-4.398 0,-1.715 -1.355,-2.918 -3.191,-2.918 -1.699,0 -2.813,1.383 -2.813,2.723 0,0.843 0.75,0.843 0.797,0.843 0.254,0 0.781,-0.179 0.781,-0.796 0,-0.391 -0.269,-0.786 -0.796,-0.786 -0.122,0 -0.153,0 -0.196,0.016 0.348,-0.98 1.16,-1.535 2.031,-1.535 1.372,0 2.02,1.219 2.02,2.453 0,1.203 -0.754,2.395 -1.582,3.328 l -2.891,3.219 c -0.164,0.168 -0.164,0.195 -0.164,0.559 h 5.582 z"
         style="fill:#000000;fill-opacity:1;fill-rule:nonzero;stroke:none"
         id="path4622"
         inkscape:connector-curvature="0" /><path
         d="m 182.90078,87.611119 v -0.59 h -0.316 v 0.59 c 0,0.617 -0.317,0.675 -0.449,0.675 -0.422,0 -0.469,-0.48 -0.469,-0.527 v -2.106 c 0,-0.453 0,-0.859 -0.453,-1.25 -0.496,-0.406 -1.129,-0.574 -1.746,-0.574 -1.024,0 -1.895,0.5 -1.895,1.192 0,0.316 0.242,0.496 0.57,0.496 0.364,0 0.59,-0.211 0.59,-0.496 0,-0.121 -0.062,-0.469 -0.648,-0.485 0.347,-0.359 0.965,-0.48 1.371,-0.48 0.617,0 1.34,0.406 1.34,1.355 v 0.391 c -0.649,0.031 -1.535,0.062 -2.336,0.379 -0.946,0.359 -1.262,0.902 -1.262,1.367 0,0.844 1.234,1.113 2.031,1.113 0.828,0 1.414,-0.422 1.657,-0.918 0.043,0.422 0.39,0.86 0.976,0.86 0.274,0 1.039,-0.137 1.039,-0.992 z m -0.226,1.656 c 0,-0.078 -0.106,-0.153 -0.227,-0.153 h -4.801 c -0.121,0 -0.226,0.075 -0.226,0.153 0,0.09 0.105,0.164 0.226,0.164 h 4.801 c 0.121,0 0.227,-0.074 0.227,-0.164 z m -1.879,-2.199 c 0,1.007 -0.922,1.371 -1.477,1.371 -0.633,0 -1.144,-0.379 -1.144,-0.907 0,-0.57 0.527,-1.457 2.621,-1.519 z"
         style="fill:#000000;fill-opacity:1;fill-rule:nonzero;stroke:none"
         id="path4624"
         inkscape:connector-curvature="0" /><path
         d="m 195.52978,91.220119 c 0,-1.926 -1.504,-3.52 -3.324,-3.52 -1.883,0 -3.344,1.641 -3.344,3.52 0,1.945 1.567,3.391 3.328,3.391 1.821,0 3.34,-1.477 3.34,-3.391 z m -1.25,-0.117 c 0,0.539 0,1.351 -0.328,2.015 -0.332,0.676 -0.996,1.114 -1.746,1.114 -0.649,0 -1.313,-0.317 -1.719,-1.008 -0.375,-0.664 -0.375,-1.582 -0.375,-2.121 0,-0.59 0,-1.403 0.36,-2.063 0.406,-0.695 1.117,-1.008 1.718,-1.008 0.66,0 1.309,0.329 1.699,0.977 0.391,0.648 0.391,1.519 0.391,2.094 z"
         style="fill:#000000;fill-opacity:1;fill-rule:nonzero;stroke:none"
         id="path4626"
         inkscape:connector-curvature="0" /><path
         d="m 201.44778,88.708119 c 0,-0.48 -0.469,-0.918 -1.113,-0.918 -1.102,0 -1.641,1.008 -1.852,1.656 v -1.656 l -2.094,0.164 v 0.469 c 1.055,0 1.172,0.105 1.172,0.844 v 4.031 c 0,0.68 -0.164,0.68 -1.172,0.68 v 0.465 l 1.715,-0.043 c 0.602,0 1.309,0 1.914,0.043 v -0.465 h -0.316 c -1.113,0 -1.145,-0.168 -1.145,-0.707 v -2.321 c 0,-1.488 0.633,-2.828 1.778,-2.828 0.105,0 0.133,0 0.164,0.012 -0.047,0.016 -0.348,0.195 -0.348,0.59 0,0.418 0.317,0.644 0.649,0.644 0.269,0 0.648,-0.179 0.648,-0.66 z"
         style="fill:#000000;fill-opacity:1;fill-rule:nonzero;stroke:none"
         id="path4628"
         inkscape:connector-curvature="0" /><path
         d="m 209.79978,94.443119 v -0.465 c -1.051,0 -1.172,-0.106 -1.172,-0.844 v -9.137 l -2.168,0.164 v 0.469 c 1.054,0 1.176,0.105 1.176,0.84 v 3.254 c -0.438,-0.543 -1.086,-0.934 -1.899,-0.934 -1.777,0 -3.355,1.477 -3.355,3.418 0,1.91 1.472,3.403 3.191,3.403 0.961,0 1.641,-0.512 2.016,-0.997 v 0.997 z m -2.211,-1.778 c 0,0.274 0,0.305 -0.164,0.559 -0.453,0.722 -1.129,1.054 -1.778,1.054 -0.679,0 -1.218,-0.39 -1.582,-0.964 -0.39,-0.618 -0.437,-1.477 -0.437,-2.094 0,-0.555 0.031,-1.457 0.468,-2.137 0.317,-0.465 0.887,-0.961 1.7,-0.961 0.527,0 1.16,0.223 1.629,0.903 0.164,0.253 0.164,0.285 0.164,0.554 z"
         style="fill:#000000;fill-opacity:1;fill-rule:nonzero;stroke:none"
         id="path4630"
         inkscape:connector-curvature="0" /><path
         d="m 216.48278,92.653119 c 0,-0.152 -0.117,-0.183 -0.195,-0.183 -0.133,0 -0.164,0.094 -0.195,0.211 -0.528,1.551 -1.879,1.551 -2.032,1.551 -0.754,0 -1.355,-0.45 -1.699,-1.008 -0.453,-0.723 -0.453,-1.715 -0.453,-2.258 h 4.199 c 0.332,0 0.379,0 0.379,-0.316 0,-1.489 -0.816,-2.95 -2.695,-2.95 -1.746,0 -3.133,1.551 -3.133,3.43 0,2.02 1.582,3.481 3.313,3.481 1.835,0 2.515,-1.672 2.515,-1.958 z m -0.992,-2.003 h -3.566 c 0.089,-2.243 1.355,-2.618 1.867,-2.618 1.551,0 1.699,2.032 1.699,2.618 z"
         style="fill:#000000;fill-opacity:1;fill-rule:nonzero;stroke:none"
         id="path4632"
         inkscape:connector-curvature="0" /><path
         d="m 229.15878,94.443119 v -0.465 c -0.781,0 -1.16,0 -1.172,-0.453 v -2.875 c 0,-1.293 0,-1.762 -0.469,-2.305 -0.211,-0.254 -0.707,-0.555 -1.578,-0.555 -1.265,0 -1.929,0.903 -2.183,1.477 -0.211,-1.313 -1.325,-1.477 -2.004,-1.477 -1.098,0 -1.805,0.649 -2.227,1.578 v -1.578 l -2.121,0.164 v 0.469 c 1.051,0 1.172,0.105 1.172,0.844 v 4.031 c 0,0.68 -0.164,0.68 -1.172,0.68 v 0.465 l 1.699,-0.043 1.688,0.043 v -0.465 c -1.012,0 -1.176,0 -1.176,-0.68 v -2.77 c 0,-1.566 1.07,-2.406 2.031,-2.406 0.949,0 1.114,0.813 1.114,1.668 v 3.508 c 0,0.68 -0.165,0.68 -1.172,0.68 v 0.465 l 1.699,-0.043 1.687,0.043 v -0.465 c -1.007,0 -1.175,0 -1.175,-0.68 v -2.77 c 0,-1.566 1.07,-2.406 2.035,-2.406 0.945,0 1.113,0.813 1.113,1.668 v 3.508 c 0,0.68 -0.168,0.68 -1.176,0.68 v 0.465 l 1.703,-0.043 z"
         style="fill:#000000;fill-opacity:1;fill-rule:nonzero;stroke:none"
         id="path4634"
         inkscape:connector-curvature="0" /><g
         transform="translate(6.9171468,-4.9957171)"
         id="g1544"><path
           inkscape:connector-curvature="0"
           id="path4636"
           style="fill:#000000;fill-opacity:1;fill-rule:nonzero;stroke:none"
           d="m 143.83478,210.87212 c 0,-0.164 0,-0.277 -0.211,-0.277 -0.18,0 -0.18,0.098 -0.195,0.262 -0.129,2.316 -1.864,3.644 -3.629,3.644 -0.989,0 -4.161,-0.551 -4.161,-5.379 0,-4.844 3.157,-5.394 4.145,-5.394 1.766,0 3.207,1.476 3.531,3.84 0.031,0.226 0.031,0.273 0.258,0.273 0.262,0 0.262,-0.047 0.262,-0.387 v -3.84 c 0,-0.273 0,-0.386 -0.18,-0.386 -0.066,0 -0.129,0 -0.258,0.191 l -0.812,1.199 c -0.598,-0.582 -1.422,-1.39 -2.981,-1.39 -3.027,0 -5.632,2.574 -5.632,5.879 0,3.351 2.621,5.894 5.632,5.894 2.641,0 4.231,-2.25 4.231,-4.129 z" /><path
           inkscape:connector-curvature="0"
           id="path4638"
           style="fill:#000000;fill-opacity:1;fill-rule:nonzero;stroke:none"
           d="m 155.31478,210.46612 h -0.402 c -0.406,2.496 -0.777,3.676 -3.567,3.676 h -2.152 c -0.762,0 -0.793,-0.114 -0.793,-0.649 v -4.324 h 1.457 c 1.571,0 1.75,0.52 1.75,1.895 h 0.403 v -4.289 h -0.403 c 0,1.39 -0.179,1.894 -1.75,1.894 h -1.457 v -3.887 c 0,-0.535 0.031,-0.648 0.793,-0.648 h 2.09 c 2.477,0 2.914,0.891 3.176,3.141 h 0.402 l -0.453,-3.645 h -9.117 v 0.504 h 0.387 c 1.25,0 1.281,0.176 1.281,0.762 v 8.484 c 0,0.586 -0.031,0.762 -1.281,0.762 h -0.387 v 0.504 h 9.344 z" /><path
           inkscape:connector-curvature="0"
           id="path4640"
           style="fill:#000000;fill-opacity:1;fill-rule:nonzero;stroke:none"
           d="m 165.89278,206.59512 c 0,-1.586 -1.605,-3.012 -3.824,-3.012 h -5.715 v 0.5 h 0.387 c 1.246,0 1.281,0.18 1.281,0.762 v 8.535 c 0,0.586 -0.035,0.762 -1.281,0.762 h -0.387 v 0.504 c 0.567,-0.051 1.766,-0.051 2.379,-0.051 0.617,0 1.832,0 2.399,0.051 v -0.504 h -0.391 c -1.246,0 -1.277,-0.176 -1.277,-0.762 v -3.852 h 2.734 c 1.945,0 3.695,-1.312 3.695,-2.933 z m -1.668,0 c 0,0.762 0,2.512 -2.578,2.512 h -2.234 v -4.375 c 0,-0.532 0.035,-0.649 0.793,-0.649 h 1.441 c 2.578,0 2.578,1.719 2.578,2.512 z" /></g><path
         d="m 200.02608,241.42931 v -0.504 h -0.418 c -1.281,0 -1.328,-0.175 -1.328,-0.757 v -8.535 c 0,-0.586 0.047,-0.762 1.328,-0.762 h 0.418 v -0.504 c -0.566,0.051 -1.844,0.051 -2.461,0.051 -0.629,0 -1.91,0 -2.476,-0.051 v 0.504 h 0.422 c 1.277,0 1.328,0.176 1.328,0.762 v 8.535 c 0,0.582 -0.051,0.757 -1.328,0.757 h -0.422 v 0.504 c 0.566,-0.046 1.847,-0.046 2.461,-0.046 0.632,0 1.91,0 2.476,0.046 z"
         style="fill:#000000;fill-opacity:1;fill-rule:nonzero;stroke:none"
         id="path4642"
         inkscape:connector-curvature="0" /><path
         d="m 55.373784,193.59912 v -0.5 h -0.422 c -1.277,0 -1.328,-0.18 -1.328,-0.762 v -8.535 c 0,-0.582 0.051,-0.762 1.328,-0.762 h 0.422 v -0.504 c -0.567,0.051 -1.848,0.051 -2.461,0.051 -0.633,0 -1.914,0 -2.481,-0.051 v 0.504 h 0.422 c 1.282,0 1.328,0.18 1.328,0.762 v 8.535 c 0,0.582 -0.046,0.762 -1.328,0.762 h -0.422 v 0.5 c 0.567,-0.047 1.848,-0.047 2.465,-0.047 0.629,0 1.91,0 2.477,0.047 z"
         style="fill:#000000;fill-opacity:1;fill-rule:nonzero;stroke:none"
         id="path4644"
         inkscape:connector-curvature="0" /><path
         d="m 61.674784,193.59912 v -0.5 h -0.422 c -1.281,0 -1.328,-0.18 -1.328,-0.762 v -8.535 c 0,-0.582 0.047,-0.762 1.328,-0.762 h 0.422 v -0.504 c -0.567,0.051 -1.848,0.051 -2.461,0.051 -0.633,0 -1.914,0 -2.481,-0.051 v 0.504 h 0.422 c 1.281,0 1.328,0.18 1.328,0.762 v 8.535 c 0,0.582 -0.051,0.762 -1.328,0.762 h -0.422 v 0.5 c 0.567,-0.047 1.848,-0.047 2.461,-0.047 0.633,0 1.914,0 2.481,0.047 z"
         style="fill:#000000;fill-opacity:1;fill-rule:nonzero;stroke:none"
         id="path4646"
         inkscape:connector-curvature="0" /><path
         d="m 160.79578,137.53612 v -0.5 h -0.418 c -1.282,0 -1.328,-0.179 -1.328,-0.761 v -8.536 c 0,-0.586 0.046,-0.761 1.328,-0.761 h 0.418 v -0.504 c -0.567,0.051 -1.844,0.051 -2.461,0.051 -0.633,0 -1.91,0 -2.477,-0.051 v 0.504 h 0.422 c 1.277,0 1.328,0.175 1.328,0.761 v 8.536 c 0,0.582 -0.051,0.761 -1.328,0.761 h -0.422 v 0.5 c 0.567,-0.047 1.844,-0.047 2.461,-0.047 0.633,0 1.91,0 2.477,0.047 z"
         style="fill:#000000;fill-opacity:1;fill-rule:nonzero;stroke:none"
         id="path4648"
         inkscape:connector-curvature="0" /><path
         d="m 167.09578,137.53612 v -0.5 h -0.421 c -1.278,0 -1.329,-0.179 -1.329,-0.761 v -8.536 c 0,-0.586 0.051,-0.761 1.329,-0.761 h 0.421 v -0.504 c -0.566,0.051 -1.843,0.051 -2.46,0.051 -0.633,0 -1.911,0 -2.477,-0.051 v 0.504 h 0.418 c 1.281,0 1.328,0.175 1.328,0.761 v 8.536 c 0,0.582 -0.047,0.761 -1.328,0.761 h -0.418 v 0.5 c 0.566,-0.047 1.844,-0.047 2.461,-0.047 0.633,0 1.91,0 2.476,0.047 z"
         style="fill:#000000;fill-opacity:1;fill-rule:nonzero;stroke:none"
         id="path4650"
         inkscape:connector-curvature="0" /><path
         d="m 173.39678,137.53612 v -0.5 h -0.422 c -1.277,0 -1.328,-0.179 -1.328,-0.761 v -8.536 c 0,-0.586 0.051,-0.761 1.328,-0.761 h 0.422 v -0.504 c -0.566,0.051 -1.847,0.051 -2.461,0.051 -0.632,0 -1.91,0 -2.48,-0.051 v 0.504 h 0.422 c 1.281,0 1.328,0.175 1.328,0.761 v 8.536 c 0,0.582 -0.047,0.761 -1.328,0.761 h -0.422 v 0.5 c 0.57,-0.047 1.848,-0.047 2.465,-0.047 0.629,0 1.91,0 2.476,0.047 z"
         style="fill:#000000;fill-opacity:1;fill-rule:nonzero;stroke:none"
         id="path4652"
         inkscape:connector-curvature="0" /><path
         inkscape:connector-curvature="0"
         id="path4656"
         style="fill:none;stroke:#000000;stroke-width:1.13385797;stroke-linecap:butt;stroke-linejoin:miter;stroke-miterlimit:4;stroke-dasharray:none;stroke-opacity:0.99516901"
         d="m 81.685784,114.96612 c 0.758,-0.379 21.972996,-15.723001 21.972996,-15.723001" /><path
         sodipodi:nodetypes="cc"
         inkscape:connector-curvature="0"
         id="path4660"
         style="fill:none;stroke:#000000;stroke-width:1.13385797;stroke-linecap:butt;stroke-linejoin:miter;stroke-miterlimit:4;stroke-dasharray:none;stroke-opacity:0.99516901"
         d="M 99.318296,272.12792 C 98.132488,271.21263 73.49857,255.92474 73.49857,255.92474" /><path
         d="m 7.8740751,47.779685 c 0.172,-0.625 0.242,-0.765 0.519,-0.836 0.211,-0.035 0.942,-0.035 1.395,-0.035 2.2699999,0 3.2419999,0.071 3.2419999,1.813 0,0.351 -0.066,1.222 -0.172,1.777 0,0.106 -0.07,0.352 -0.07,0.422 0,0.137 0.07,0.312 0.277,0.312 0.246,0 0.282,-0.175 0.352,-0.523 l 0.59,-3.871 c 0.035,-0.102 0.035,-0.313 0.035,-0.383 0,-0.242 -0.207,-0.242 -0.59,-0.242 H 1.1080752 c -0.52299999,0 -0.55799999,0.035 -0.72999999,0.453 l -1.324,3.902 c 0,0.036 -0.14100001,0.352 -0.14100001,0.418 0,0.106 0.14100001,0.246 0.27700001,0.246 0.211,0 0.246,-0.14 0.387,-0.488 1.184,-3.453 1.77699999,-3.836 5.05499999,-3.836 h 0.871 c 0.625,0 0.625,0.071 0.625,0.281 0,0.102 -0.067,0.383 -0.102,0.454 l -2.965,11.886 c -0.21,0.801 -0.277,1.047 -2.64799999,1.047 -0.805,0 -0.941,0 -0.941,0.418 0,0.277 0.242,0.277 0.382,0.277 0.594,0 1.21899999,-0.035 1.81299999,-0.035 0.629,0 1.289,-0.035 1.918,-0.035 0.629,0 1.219,0.035 1.848,0.035 0.628,0 1.289,0.035 1.9179999,0.035 0.207,0 0.488,0 0.488,-0.453 0,-0.242 -0.176,-0.242 -0.7699999,-0.242 -0.523,0 -0.836,0 -1.394,-0.035 -0.66,-0.07 -0.836,-0.141 -0.836,-0.488 0,-0.035 0,-0.141 0.105,-0.453 z"
         style="fill:#000000;fill-opacity:1;fill-rule:nonzero;stroke:none"
         id="path4662"
         inkscape:connector-curvature="0" /><path
         d="m 276.73824,329.14235 h 3.8 c 3.137,0 6.242,-2.301 6.242,-4.777 0,-1.742 -1.464,-3.379 -4.394,-3.379 h -7.18 c -0.418,0 -0.664,0 -0.664,0.418 0,0.277 0.176,0.277 0.629,0.277 0.277,0 0.695,0.035 0.941,0.035 0.383,0.071 0.489,0.106 0.489,0.383 0,0.071 0,0.141 -0.071,0.418 l -3,11.922 c -0.207,0.875 -0.242,1.047 -2.019,1.047 -0.352,0 -0.594,0 -0.594,0.418 0,0.281 0.242,0.281 0.313,0.281 0.629,0 2.195,-0.07 2.824,-0.07 0.488,0 0.976,0.035 1.43,0.035 0.488,0 0.976,0.035 1.429,0.035 0.176,0 0.453,0 0.453,-0.453 0,-0.246 -0.211,-0.246 -0.628,-0.246 -0.801,0 -1.43,0 -1.43,-0.383 0,-0.14 0.035,-0.242 0.07,-0.383 z m 1.605,-6.625 c 0.207,-0.765 0.242,-0.836 1.219,-0.836 h 2.129 c 1.847,0 3.031,0.594 3.031,2.125 0,0.875 -0.453,2.789 -1.324,3.594 -1.118,1.008 -2.442,1.184 -3.418,1.184 h -3.137 z"
         style="fill:#000000;fill-opacity:1;fill-rule:nonzero;stroke:none"
         id="path4664"
         inkscape:connector-curvature="0" /><path
         inkscape:connector-curvature="0"
         id="path4548-7"
         style="fill:none;stroke:#000000;stroke-width:1.93558836;stroke-linecap:butt;stroke-linejoin:miter;stroke-miterlimit:4;stroke-dasharray:none;stroke-opacity:0.99516901;marker-end:url(#Arrow1Mend-3)"
         d="M 24.691,308.539 V 49.404791" /></g></g></svg>