<?xml version="1.0" encoding="UTF-8" standalone="no"?>
<svg width="221.192mm" height="167.569mm"
 viewBox="0 0 627 475"
 xmlns="http://www.w3.org/2000/svg" xmlns:xlink="http://www.w3.org/1999/xlink"  version="1.2" baseProfile="tiny">
<title>Qt SVG Document</title>
<desc>Generated with Qt</desc>
<defs>
</defs>
<g fill="none" stroke="black" stroke-width="1" fill-rule="evenodd" stroke-linecap="square" stroke-linejoin="bevel" >

<g fill="none" stroke="#000000" stroke-opacity="1" stroke-width="1" stroke-linecap="square" stroke-linejoin="bevel" transform="matrix(1,0,0,1,0,0)"
font-family="Ubuntu" font-size="11" font-weight="400" font-style="normal" 
>
</g>

<g fill="none" stroke="#000000" stroke-opacity="1" stroke-width="1" stroke-linecap="square" stroke-linejoin="bevel" transform="matrix(1.0032,0,0,1.0032,0,0)"
font-family="Ubuntu" font-size="11" font-weight="400" font-style="normal" 
>
</g>

<g fill="none" stroke="#000000" stroke-opacity="1" stroke-width="1" stroke-linecap="round" stroke-linejoin="round" transform="matrix(1.0032,0,0,1.0032,0,0)"
font-family="Ubuntu" font-size="11" font-weight="400" font-style="normal" 
>
<polyline fill="none" vector-effect="none" points="45.5,442.5 51.5,442.5 " />
<polyline fill="none" vector-effect="none" points="603.5,442.5 597.5,442.5 " />
</g>

<g fill="none" stroke="#000000" stroke-opacity="1" stroke-width="1" stroke-linecap="square" stroke-linejoin="bevel" transform="matrix(1.0032,0,0,1.0032,0,0)"
font-family="Ubuntu" font-size="11" font-weight="400" font-style="normal" 
>
</g>

<g fill="none" stroke="#000000" stroke-opacity="1" stroke-width="1" stroke-linecap="square" stroke-linejoin="bevel" transform="matrix(1.0032,0,0,1.0032,16.0512,448.932)"
font-family="Ubuntu" font-size="11" font-weight="400" font-style="normal" 
>
</g>

<g fill="none" stroke="#000000" stroke-opacity="1" stroke-width="1" stroke-linecap="square" stroke-linejoin="bevel" transform="matrix(1.0032,0,0,1.0032,16.0512,448.932)"
font-family="Ubuntu" font-size="11" font-weight="400" font-style="normal" 
>
</g>

<g fill="none" stroke="#000000" stroke-opacity="1" stroke-width="1" stroke-linecap="square" stroke-linejoin="bevel" transform="matrix(1.0032,0,0,1.0032,16.0512,448.932)"
font-family="Ubuntu" font-size="11" font-weight="400" font-style="normal" 
>
</g>

<g fill="none" stroke="#000000" stroke-opacity="1" stroke-width="1" stroke-linecap="square" stroke-linejoin="bevel" transform="matrix(1.0032,0,0,1.0032,16.0512,448.932)"
font-family="Ubuntu" font-size="11" font-weight="400" font-style="normal" 
>
</g>

<g fill="none" stroke="#000000" stroke-opacity="1" stroke-width="1" stroke-linecap="square" stroke-linejoin="bevel" transform="matrix(1.0032,0,0,1.0032,16.0512,448.932)"
font-family="Ubuntu" font-size="11" font-weight="400" font-style="normal" 
>
</g>

<g fill="none" stroke="#000000" stroke-opacity="1" stroke-width="1" stroke-linecap="square" stroke-linejoin="bevel" transform="matrix(1.0032,0,0,1.0032,16.0512,448.932)"
font-family="Sans" font-size="9" font-weight="400" font-style="normal" 
>
<text fill="#000000" fill-opacity="1" stroke="none" xml:space="preserve" x="0" y="0" font-family="Sans" font-size="9" font-weight="400" font-style="normal" 
 >-3.6</text>
</g>

<g fill="none" stroke="#000000" stroke-opacity="1" stroke-width="1" stroke-linecap="square" stroke-linejoin="bevel" transform="matrix(1.0032,0,0,1.0032,16.0512,448.932)"
font-family="Ubuntu" font-size="11" font-weight="400" font-style="normal" 
>
</g>

<g fill="none" stroke="#000000" stroke-opacity="1" stroke-width="1" stroke-linecap="square" stroke-linejoin="bevel" transform="matrix(1.0032,0,0,1.0032,0,0)"
font-family="Ubuntu" font-size="11" font-weight="400" font-style="normal" 
>
</g>

<g fill="none" stroke="#000000" stroke-opacity="1" stroke-width="1" stroke-linecap="round" stroke-linejoin="round" transform="matrix(1.0032,0,0,1.0032,0,0)"
font-family="Ubuntu" font-size="11" font-weight="400" font-style="normal" 
>
<polyline fill="none" vector-effect="none" points="45.5,381.5 51.5,381.5 " />
<polyline fill="none" vector-effect="none" points="603.5,381.5 597.5,381.5 " />
</g>

<g fill="none" stroke="#000000" stroke-opacity="1" stroke-width="1" stroke-linecap="square" stroke-linejoin="bevel" transform="matrix(1.0032,0,0,1.0032,0,0)"
font-family="Ubuntu" font-size="11" font-weight="400" font-style="normal" 
>
</g>

<g fill="none" stroke="#000000" stroke-opacity="1" stroke-width="1" stroke-linecap="square" stroke-linejoin="bevel" transform="matrix(1.0032,0,0,1.0032,16.0512,387.737)"
font-family="Ubuntu" font-size="11" font-weight="400" font-style="normal" 
>
</g>

<g fill="none" stroke="#000000" stroke-opacity="1" stroke-width="1" stroke-linecap="square" stroke-linejoin="bevel" transform="matrix(1.0032,0,0,1.0032,16.0512,387.737)"
font-family="Ubuntu" font-size="11" font-weight="400" font-style="normal" 
>
</g>

<g fill="none" stroke="#000000" stroke-opacity="1" stroke-width="1" stroke-linecap="square" stroke-linejoin="bevel" transform="matrix(1.0032,0,0,1.0032,16.0512,387.737)"
font-family="Ubuntu" font-size="11" font-weight="400" font-style="normal" 
>
</g>

<g fill="none" stroke="#000000" stroke-opacity="1" stroke-width="1" stroke-linecap="square" stroke-linejoin="bevel" transform="matrix(1.0032,0,0,1.0032,16.0512,387.737)"
font-family="Ubuntu" font-size="11" font-weight="400" font-style="normal" 
>
</g>

<g fill="none" stroke="#000000" stroke-opacity="1" stroke-width="1" stroke-linecap="square" stroke-linejoin="bevel" transform="matrix(1.0032,0,0,1.0032,16.0512,387.737)"
font-family="Ubuntu" font-size="11" font-weight="400" font-style="normal" 
>
</g>

<g fill="none" stroke="#000000" stroke-opacity="1" stroke-width="1" stroke-linecap="square" stroke-linejoin="bevel" transform="matrix(1.0032,0,0,1.0032,16.0512,387.737)"
font-family="Sans" font-size="9" font-weight="400" font-style="normal" 
>
<text fill="#000000" fill-opacity="1" stroke="none" xml:space="preserve" x="0" y="0" font-family="Sans" font-size="9" font-weight="400" font-style="normal" 
 >-3.4</text>
</g>

<g fill="none" stroke="#000000" stroke-opacity="1" stroke-width="1" stroke-linecap="square" stroke-linejoin="bevel" transform="matrix(1.0032,0,0,1.0032,16.0512,387.737)"
font-family="Ubuntu" font-size="11" font-weight="400" font-style="normal" 
>
</g>

<g fill="none" stroke="#000000" stroke-opacity="1" stroke-width="1" stroke-linecap="square" stroke-linejoin="bevel" transform="matrix(1.0032,0,0,1.0032,0,0)"
font-family="Ubuntu" font-size="11" font-weight="400" font-style="normal" 
>
</g>

<g fill="none" stroke="#000000" stroke-opacity="1" stroke-width="1" stroke-linecap="round" stroke-linejoin="round" transform="matrix(1.0032,0,0,1.0032,0,0)"
font-family="Ubuntu" font-size="11" font-weight="400" font-style="normal" 
>
<polyline fill="none" vector-effect="none" points="45.5,320.5 51.5,320.5 " />
<polyline fill="none" vector-effect="none" points="603.5,320.5 597.5,320.5 " />
</g>

<g fill="none" stroke="#000000" stroke-opacity="1" stroke-width="1" stroke-linecap="square" stroke-linejoin="bevel" transform="matrix(1.0032,0,0,1.0032,0,0)"
font-family="Ubuntu" font-size="11" font-weight="400" font-style="normal" 
>
</g>

<g fill="none" stroke="#000000" stroke-opacity="1" stroke-width="1" stroke-linecap="square" stroke-linejoin="bevel" transform="matrix(1.0032,0,0,1.0032,16.0512,326.542)"
font-family="Ubuntu" font-size="11" font-weight="400" font-style="normal" 
>
</g>

<g fill="none" stroke="#000000" stroke-opacity="1" stroke-width="1" stroke-linecap="square" stroke-linejoin="bevel" transform="matrix(1.0032,0,0,1.0032,16.0512,326.542)"
font-family="Ubuntu" font-size="11" font-weight="400" font-style="normal" 
>
</g>

<g fill="none" stroke="#000000" stroke-opacity="1" stroke-width="1" stroke-linecap="square" stroke-linejoin="bevel" transform="matrix(1.0032,0,0,1.0032,16.0512,326.542)"
font-family="Ubuntu" font-size="11" font-weight="400" font-style="normal" 
>
</g>

<g fill="none" stroke="#000000" stroke-opacity="1" stroke-width="1" stroke-linecap="square" stroke-linejoin="bevel" transform="matrix(1.0032,0,0,1.0032,16.0512,326.542)"
font-family="Ubuntu" font-size="11" font-weight="400" font-style="normal" 
>
</g>

<g fill="none" stroke="#000000" stroke-opacity="1" stroke-width="1" stroke-linecap="square" stroke-linejoin="bevel" transform="matrix(1.0032,0,0,1.0032,16.0512,326.542)"
font-family="Ubuntu" font-size="11" font-weight="400" font-style="normal" 
>
</g>

<g fill="none" stroke="#000000" stroke-opacity="1" stroke-width="1" stroke-linecap="square" stroke-linejoin="bevel" transform="matrix(1.0032,0,0,1.0032,16.0512,326.542)"
font-family="Sans" font-size="9" font-weight="400" font-style="normal" 
>
<text fill="#000000" fill-opacity="1" stroke="none" xml:space="preserve" x="0" y="0" font-family="Sans" font-size="9" font-weight="400" font-style="normal" 
 >-3.2</text>
</g>

<g fill="none" stroke="#000000" stroke-opacity="1" stroke-width="1" stroke-linecap="square" stroke-linejoin="bevel" transform="matrix(1.0032,0,0,1.0032,16.0512,326.542)"
font-family="Ubuntu" font-size="11" font-weight="400" font-style="normal" 
>
</g>

<g fill="none" stroke="#000000" stroke-opacity="1" stroke-width="1" stroke-linecap="square" stroke-linejoin="bevel" transform="matrix(1.0032,0,0,1.0032,0,0)"
font-family="Ubuntu" font-size="11" font-weight="400" font-style="normal" 
>
</g>

<g fill="none" stroke="#000000" stroke-opacity="1" stroke-width="1" stroke-linecap="round" stroke-linejoin="round" transform="matrix(1.0032,0,0,1.0032,0,0)"
font-family="Ubuntu" font-size="11" font-weight="400" font-style="normal" 
>
<polyline fill="none" vector-effect="none" points="45.5,259.5 51.5,259.5 " />
<polyline fill="none" vector-effect="none" points="603.5,259.5 597.5,259.5 " />
</g>

<g fill="none" stroke="#000000" stroke-opacity="1" stroke-width="1" stroke-linecap="square" stroke-linejoin="bevel" transform="matrix(1.0032,0,0,1.0032,0,0)"
font-family="Ubuntu" font-size="11" font-weight="400" font-style="normal" 
>
</g>

<g fill="none" stroke="#000000" stroke-opacity="1" stroke-width="1" stroke-linecap="square" stroke-linejoin="bevel" transform="matrix(1.0032,0,0,1.0032,28.0896,265.346)"
font-family="Ubuntu" font-size="11" font-weight="400" font-style="normal" 
>
</g>

<g fill="none" stroke="#000000" stroke-opacity="1" stroke-width="1" stroke-linecap="square" stroke-linejoin="bevel" transform="matrix(1.0032,0,0,1.0032,28.0896,265.346)"
font-family="Ubuntu" font-size="11" font-weight="400" font-style="normal" 
>
</g>

<g fill="none" stroke="#000000" stroke-opacity="1" stroke-width="1" stroke-linecap="square" stroke-linejoin="bevel" transform="matrix(1.0032,0,0,1.0032,28.0896,265.346)"
font-family="Ubuntu" font-size="11" font-weight="400" font-style="normal" 
>
</g>

<g fill="none" stroke="#000000" stroke-opacity="1" stroke-width="1" stroke-linecap="square" stroke-linejoin="bevel" transform="matrix(1.0032,0,0,1.0032,28.0896,265.346)"
font-family="Ubuntu" font-size="11" font-weight="400" font-style="normal" 
>
</g>

<g fill="none" stroke="#000000" stroke-opacity="1" stroke-width="1" stroke-linecap="square" stroke-linejoin="bevel" transform="matrix(1.0032,0,0,1.0032,28.0896,265.346)"
font-family="Ubuntu" font-size="11" font-weight="400" font-style="normal" 
>
</g>

<g fill="none" stroke="#000000" stroke-opacity="1" stroke-width="1" stroke-linecap="square" stroke-linejoin="bevel" transform="matrix(1.0032,0,0,1.0032,28.0896,265.346)"
font-family="Sans" font-size="9" font-weight="400" font-style="normal" 
>
<text fill="#000000" fill-opacity="1" stroke="none" xml:space="preserve" x="0" y="0" font-family="Sans" font-size="9" font-weight="400" font-style="normal" 
 >-3</text>
</g>

<g fill="none" stroke="#000000" stroke-opacity="1" stroke-width="1" stroke-linecap="square" stroke-linejoin="bevel" transform="matrix(1.0032,0,0,1.0032,28.0896,265.346)"
font-family="Ubuntu" font-size="11" font-weight="400" font-style="normal" 
>
</g>

<g fill="none" stroke="#000000" stroke-opacity="1" stroke-width="1" stroke-linecap="square" stroke-linejoin="bevel" transform="matrix(1.0032,0,0,1.0032,0,0)"
font-family="Ubuntu" font-size="11" font-weight="400" font-style="normal" 
>
</g>

<g fill="none" stroke="#000000" stroke-opacity="1" stroke-width="1" stroke-linecap="round" stroke-linejoin="round" transform="matrix(1.0032,0,0,1.0032,0,0)"
font-family="Ubuntu" font-size="11" font-weight="400" font-style="normal" 
>
<polyline fill="none" vector-effect="none" points="45.5,198.5 51.5,198.5 " />
<polyline fill="none" vector-effect="none" points="603.5,198.5 597.5,198.5 " />
</g>

<g fill="none" stroke="#000000" stroke-opacity="1" stroke-width="1" stroke-linecap="square" stroke-linejoin="bevel" transform="matrix(1.0032,0,0,1.0032,0,0)"
font-family="Ubuntu" font-size="11" font-weight="400" font-style="normal" 
>
</g>

<g fill="none" stroke="#000000" stroke-opacity="1" stroke-width="1" stroke-linecap="square" stroke-linejoin="bevel" transform="matrix(1.0032,0,0,1.0032,16.0512,203.148)"
font-family="Ubuntu" font-size="11" font-weight="400" font-style="normal" 
>
</g>

<g fill="none" stroke="#000000" stroke-opacity="1" stroke-width="1" stroke-linecap="square" stroke-linejoin="bevel" transform="matrix(1.0032,0,0,1.0032,16.0512,203.148)"
font-family="Ubuntu" font-size="11" font-weight="400" font-style="normal" 
>
</g>

<g fill="none" stroke="#000000" stroke-opacity="1" stroke-width="1" stroke-linecap="square" stroke-linejoin="bevel" transform="matrix(1.0032,0,0,1.0032,16.0512,203.148)"
font-family="Ubuntu" font-size="11" font-weight="400" font-style="normal" 
>
</g>

<g fill="none" stroke="#000000" stroke-opacity="1" stroke-width="1" stroke-linecap="square" stroke-linejoin="bevel" transform="matrix(1.0032,0,0,1.0032,16.0512,203.148)"
font-family="Ubuntu" font-size="11" font-weight="400" font-style="normal" 
>
</g>

<g fill="none" stroke="#000000" stroke-opacity="1" stroke-width="1" stroke-linecap="square" stroke-linejoin="bevel" transform="matrix(1.0032,0,0,1.0032,16.0512,203.148)"
font-family="Ubuntu" font-size="11" font-weight="400" font-style="normal" 
>
</g>

<g fill="none" stroke="#000000" stroke-opacity="1" stroke-width="1" stroke-linecap="square" stroke-linejoin="bevel" transform="matrix(1.0032,0,0,1.0032,16.0512,203.148)"
font-family="Sans" font-size="9" font-weight="400" font-style="normal" 
>
<text fill="#000000" fill-opacity="1" stroke="none" xml:space="preserve" x="0" y="0" font-family="Sans" font-size="9" font-weight="400" font-style="normal" 
 >-2.8</text>
</g>

<g fill="none" stroke="#000000" stroke-opacity="1" stroke-width="1" stroke-linecap="square" stroke-linejoin="bevel" transform="matrix(1.0032,0,0,1.0032,16.0512,203.148)"
font-family="Ubuntu" font-size="11" font-weight="400" font-style="normal" 
>
</g>

<g fill="none" stroke="#000000" stroke-opacity="1" stroke-width="1" stroke-linecap="square" stroke-linejoin="bevel" transform="matrix(1.0032,0,0,1.0032,0,0)"
font-family="Ubuntu" font-size="11" font-weight="400" font-style="normal" 
>
</g>

<g fill="none" stroke="#000000" stroke-opacity="1" stroke-width="1" stroke-linecap="round" stroke-linejoin="round" transform="matrix(1.0032,0,0,1.0032,0,0)"
font-family="Ubuntu" font-size="11" font-weight="400" font-style="normal" 
>
<polyline fill="none" vector-effect="none" points="45.5,137.5 51.5,137.5 " />
<polyline fill="none" vector-effect="none" points="603.5,137.5 597.5,137.5 " />
</g>

<g fill="none" stroke="#000000" stroke-opacity="1" stroke-width="1" stroke-linecap="square" stroke-linejoin="bevel" transform="matrix(1.0032,0,0,1.0032,0,0)"
font-family="Ubuntu" font-size="11" font-weight="400" font-style="normal" 
>
</g>

<g fill="none" stroke="#000000" stroke-opacity="1" stroke-width="1" stroke-linecap="square" stroke-linejoin="bevel" transform="matrix(1.0032,0,0,1.0032,16.0512,141.953)"
font-family="Ubuntu" font-size="11" font-weight="400" font-style="normal" 
>
</g>

<g fill="none" stroke="#000000" stroke-opacity="1" stroke-width="1" stroke-linecap="square" stroke-linejoin="bevel" transform="matrix(1.0032,0,0,1.0032,16.0512,141.953)"
font-family="Ubuntu" font-size="11" font-weight="400" font-style="normal" 
>
</g>

<g fill="none" stroke="#000000" stroke-opacity="1" stroke-width="1" stroke-linecap="square" stroke-linejoin="bevel" transform="matrix(1.0032,0,0,1.0032,16.0512,141.953)"
font-family="Ubuntu" font-size="11" font-weight="400" font-style="normal" 
>
</g>

<g fill="none" stroke="#000000" stroke-opacity="1" stroke-width="1" stroke-linecap="square" stroke-linejoin="bevel" transform="matrix(1.0032,0,0,1.0032,16.0512,141.953)"
font-family="Ubuntu" font-size="11" font-weight="400" font-style="normal" 
>
</g>

<g fill="none" stroke="#000000" stroke-opacity="1" stroke-width="1" stroke-linecap="square" stroke-linejoin="bevel" transform="matrix(1.0032,0,0,1.0032,16.0512,141.953)"
font-family="Ubuntu" font-size="11" font-weight="400" font-style="normal" 
>
</g>

<g fill="none" stroke="#000000" stroke-opacity="1" stroke-width="1" stroke-linecap="square" stroke-linejoin="bevel" transform="matrix(1.0032,0,0,1.0032,16.0512,141.953)"
font-family="Sans" font-size="9" font-weight="400" font-style="normal" 
>
<text fill="#000000" fill-opacity="1" stroke="none" xml:space="preserve" x="0" y="0" font-family="Sans" font-size="9" font-weight="400" font-style="normal" 
 >-2.6</text>
</g>

<g fill="none" stroke="#000000" stroke-opacity="1" stroke-width="1" stroke-linecap="square" stroke-linejoin="bevel" transform="matrix(1.0032,0,0,1.0032,16.0512,141.953)"
font-family="Ubuntu" font-size="11" font-weight="400" font-style="normal" 
>
</g>

<g fill="none" stroke="#000000" stroke-opacity="1" stroke-width="1" stroke-linecap="square" stroke-linejoin="bevel" transform="matrix(1.0032,0,0,1.0032,0,0)"
font-family="Ubuntu" font-size="11" font-weight="400" font-style="normal" 
>
</g>

<g fill="none" stroke="#000000" stroke-opacity="1" stroke-width="1" stroke-linecap="round" stroke-linejoin="round" transform="matrix(1.0032,0,0,1.0032,0,0)"
font-family="Ubuntu" font-size="11" font-weight="400" font-style="normal" 
>
<polyline fill="none" vector-effect="none" points="45.5,76.5 51.5,76.5 " />
<polyline fill="none" vector-effect="none" points="603.5,76.5 597.5,76.5 " />
</g>

<g fill="none" stroke="#000000" stroke-opacity="1" stroke-width="1" stroke-linecap="square" stroke-linejoin="bevel" transform="matrix(1.0032,0,0,1.0032,0,0)"
font-family="Ubuntu" font-size="11" font-weight="400" font-style="normal" 
>
</g>

<g fill="none" stroke="#000000" stroke-opacity="1" stroke-width="1" stroke-linecap="square" stroke-linejoin="bevel" transform="matrix(1.0032,0,0,1.0032,16.0512,80.7576)"
font-family="Ubuntu" font-size="11" font-weight="400" font-style="normal" 
>
</g>

<g fill="none" stroke="#000000" stroke-opacity="1" stroke-width="1" stroke-linecap="square" stroke-linejoin="bevel" transform="matrix(1.0032,0,0,1.0032,16.0512,80.7576)"
font-family="Ubuntu" font-size="11" font-weight="400" font-style="normal" 
>
</g>

<g fill="none" stroke="#000000" stroke-opacity="1" stroke-width="1" stroke-linecap="square" stroke-linejoin="bevel" transform="matrix(1.0032,0,0,1.0032,16.0512,80.7576)"
font-family="Ubuntu" font-size="11" font-weight="400" font-style="normal" 
>
</g>

<g fill="none" stroke="#000000" stroke-opacity="1" stroke-width="1" stroke-linecap="square" stroke-linejoin="bevel" transform="matrix(1.0032,0,0,1.0032,16.0512,80.7576)"
font-family="Ubuntu" font-size="11" font-weight="400" font-style="normal" 
>
</g>

<g fill="none" stroke="#000000" stroke-opacity="1" stroke-width="1" stroke-linecap="square" stroke-linejoin="bevel" transform="matrix(1.0032,0,0,1.0032,16.0512,80.7576)"
font-family="Ubuntu" font-size="11" font-weight="400" font-style="normal" 
>
</g>

<g fill="none" stroke="#000000" stroke-opacity="1" stroke-width="1" stroke-linecap="square" stroke-linejoin="bevel" transform="matrix(1.0032,0,0,1.0032,16.0512,80.7576)"
font-family="Sans" font-size="9" font-weight="400" font-style="normal" 
>
<text fill="#000000" fill-opacity="1" stroke="none" xml:space="preserve" x="0" y="0" font-family="Sans" font-size="9" font-weight="400" font-style="normal" 
 >-2.4</text>
</g>

<g fill="none" stroke="#000000" stroke-opacity="1" stroke-width="1" stroke-linecap="square" stroke-linejoin="bevel" transform="matrix(1.0032,0,0,1.0032,16.0512,80.7576)"
font-family="Ubuntu" font-size="11" font-weight="400" font-style="normal" 
>
</g>

<g fill="none" stroke="#000000" stroke-opacity="1" stroke-width="1" stroke-linecap="square" stroke-linejoin="bevel" transform="matrix(1.0032,0,0,1.0032,0,0)"
font-family="Ubuntu" font-size="11" font-weight="400" font-style="normal" 
>
</g>

<g fill="none" stroke="#000000" stroke-opacity="1" stroke-width="1" stroke-linecap="round" stroke-linejoin="round" transform="matrix(1.0032,0,0,1.0032,0,0)"
font-family="Ubuntu" font-size="11" font-weight="400" font-style="normal" 
>
<polyline fill="none" vector-effect="none" points="45.5,15.5 51.5,15.5 " />
<polyline fill="none" vector-effect="none" points="603.5,15.5 597.5,15.5 " />
</g>

<g fill="none" stroke="#000000" stroke-opacity="1" stroke-width="1" stroke-linecap="square" stroke-linejoin="bevel" transform="matrix(1.0032,0,0,1.0032,0,0)"
font-family="Ubuntu" font-size="11" font-weight="400" font-style="normal" 
>
</g>

<g fill="none" stroke="#000000" stroke-opacity="1" stroke-width="1" stroke-linecap="square" stroke-linejoin="bevel" transform="matrix(1.0032,0,0,1.0032,16.0512,19.5624)"
font-family="Ubuntu" font-size="11" font-weight="400" font-style="normal" 
>
</g>

<g fill="none" stroke="#000000" stroke-opacity="1" stroke-width="1" stroke-linecap="square" stroke-linejoin="bevel" transform="matrix(1.0032,0,0,1.0032,16.0512,19.5624)"
font-family="Ubuntu" font-size="11" font-weight="400" font-style="normal" 
>
</g>

<g fill="none" stroke="#000000" stroke-opacity="1" stroke-width="1" stroke-linecap="square" stroke-linejoin="bevel" transform="matrix(1.0032,0,0,1.0032,16.0512,19.5624)"
font-family="Ubuntu" font-size="11" font-weight="400" font-style="normal" 
>
</g>

<g fill="none" stroke="#000000" stroke-opacity="1" stroke-width="1" stroke-linecap="square" stroke-linejoin="bevel" transform="matrix(1.0032,0,0,1.0032,16.0512,19.5624)"
font-family="Ubuntu" font-size="11" font-weight="400" font-style="normal" 
>
</g>

<g fill="none" stroke="#000000" stroke-opacity="1" stroke-width="1" stroke-linecap="square" stroke-linejoin="bevel" transform="matrix(1.0032,0,0,1.0032,16.0512,19.5624)"
font-family="Ubuntu" font-size="11" font-weight="400" font-style="normal" 
>
</g>

<g fill="none" stroke="#000000" stroke-opacity="1" stroke-width="1" stroke-linecap="square" stroke-linejoin="bevel" transform="matrix(1.0032,0,0,1.0032,16.0512,19.5624)"
font-family="Sans" font-size="9" font-weight="400" font-style="normal" 
>
<text fill="#000000" fill-opacity="1" stroke="none" xml:space="preserve" x="0" y="0" font-family="Sans" font-size="9" font-weight="400" font-style="normal" 
 >-2.2</text>
</g>

<g fill="none" stroke="#000000" stroke-opacity="1" stroke-width="1" stroke-linecap="square" stroke-linejoin="bevel" transform="matrix(1.0032,0,0,1.0032,16.0512,19.5624)"
font-family="Ubuntu" font-size="11" font-weight="400" font-style="normal" 
>
</g>

<g fill="none" stroke="#000000" stroke-opacity="1" stroke-width="1" stroke-linecap="square" stroke-linejoin="bevel" transform="matrix(1.0032,0,0,1.0032,0,0)"
font-family="Ubuntu" font-size="11" font-weight="400" font-style="normal" 
>
</g>

<g fill="none" stroke="#000000" stroke-opacity="1" stroke-width="1" stroke-linecap="round" stroke-linejoin="round" transform="matrix(1.0032,0,0,1.0032,0,0)"
font-family="Ubuntu" font-size="11" font-weight="400" font-style="normal" 
>
<polyline fill="none" vector-effect="none" points="45.5,442.5 45.5,436.5 " />
<polyline fill="none" vector-effect="none" points="45.5,15.5 45.5,21.5 " />
</g>

<g fill="none" stroke="#000000" stroke-opacity="1" stroke-width="1" stroke-linecap="square" stroke-linejoin="bevel" transform="matrix(1.0032,0,0,1.0032,0,0)"
font-family="Ubuntu" font-size="11" font-weight="400" font-style="normal" 
>
</g>

<g fill="none" stroke="#000000" stroke-opacity="1" stroke-width="1" stroke-linecap="square" stroke-linejoin="bevel" transform="matrix(1.0032,0,0,1.0032,40.6296,463.98)"
font-family="Ubuntu" font-size="11" font-weight="400" font-style="normal" 
>
</g>

<g fill="none" stroke="#000000" stroke-opacity="1" stroke-width="1" stroke-linecap="square" stroke-linejoin="bevel" transform="matrix(1.0032,0,0,1.0032,40.6296,463.98)"
font-family="Ubuntu" font-size="11" font-weight="400" font-style="normal" 
>
</g>

<g fill="none" stroke="#000000" stroke-opacity="1" stroke-width="1" stroke-linecap="square" stroke-linejoin="bevel" transform="matrix(1.0032,0,0,1.0032,40.6296,463.98)"
font-family="Ubuntu" font-size="11" font-weight="400" font-style="normal" 
>
</g>

<g fill="none" stroke="#000000" stroke-opacity="1" stroke-width="1" stroke-linecap="square" stroke-linejoin="bevel" transform="matrix(1.0032,0,0,1.0032,40.6296,463.98)"
font-family="Ubuntu" font-size="11" font-weight="400" font-style="normal" 
>
</g>

<g fill="none" stroke="#000000" stroke-opacity="1" stroke-width="1" stroke-linecap="square" stroke-linejoin="bevel" transform="matrix(1.0032,0,0,1.0032,40.6296,463.98)"
font-family="Ubuntu" font-size="11" font-weight="400" font-style="normal" 
>
</g>

<g fill="none" stroke="#000000" stroke-opacity="1" stroke-width="1" stroke-linecap="square" stroke-linejoin="bevel" transform="matrix(1.0032,0,0,1.0032,40.6296,463.98)"
font-family="Sans" font-size="9" font-weight="400" font-style="normal" 
>
<text fill="#000000" fill-opacity="1" stroke="none" xml:space="preserve" x="0" y="0" font-family="Sans" font-size="9" font-weight="400" font-style="normal" 
 > 3</text>
</g>

<g fill="none" stroke="#000000" stroke-opacity="1" stroke-width="1" stroke-linecap="square" stroke-linejoin="bevel" transform="matrix(1.0032,0,0,1.0032,40.6296,463.98)"
font-family="Ubuntu" font-size="11" font-weight="400" font-style="normal" 
>
</g>

<g fill="none" stroke="#000000" stroke-opacity="1" stroke-width="1" stroke-linecap="square" stroke-linejoin="bevel" transform="matrix(1.0032,0,0,1.0032,0,0)"
font-family="Ubuntu" font-size="11" font-weight="400" font-style="normal" 
>
</g>

<g fill="none" stroke="#000000" stroke-opacity="1" stroke-width="1" stroke-linecap="round" stroke-linejoin="round" transform="matrix(1.0032,0,0,1.0032,0,0)"
font-family="Ubuntu" font-size="11" font-weight="400" font-style="normal" 
>
<polyline fill="none" vector-effect="none" points="185.5,442.5 185.5,436.5 " />
<polyline fill="none" vector-effect="none" points="185.5,15.5 185.5,21.5 " />
</g>

<g fill="none" stroke="#000000" stroke-opacity="1" stroke-width="1" stroke-linecap="square" stroke-linejoin="bevel" transform="matrix(1.0032,0,0,1.0032,0,0)"
font-family="Ubuntu" font-size="11" font-weight="400" font-style="normal" 
>
</g>

<g fill="none" stroke="#000000" stroke-opacity="1" stroke-width="1" stroke-linecap="square" stroke-linejoin="bevel" transform="matrix(1.0032,0,0,1.0032,174.055,463.98)"
font-family="Ubuntu" font-size="11" font-weight="400" font-style="normal" 
>
</g>

<g fill="none" stroke="#000000" stroke-opacity="1" stroke-width="1" stroke-linecap="square" stroke-linejoin="bevel" transform="matrix(1.0032,0,0,1.0032,174.055,463.98)"
font-family="Ubuntu" font-size="11" font-weight="400" font-style="normal" 
>
</g>

<g fill="none" stroke="#000000" stroke-opacity="1" stroke-width="1" stroke-linecap="square" stroke-linejoin="bevel" transform="matrix(1.0032,0,0,1.0032,174.055,463.98)"
font-family="Ubuntu" font-size="11" font-weight="400" font-style="normal" 
>
</g>

<g fill="none" stroke="#000000" stroke-opacity="1" stroke-width="1" stroke-linecap="square" stroke-linejoin="bevel" transform="matrix(1.0032,0,0,1.0032,174.055,463.98)"
font-family="Ubuntu" font-size="11" font-weight="400" font-style="normal" 
>
</g>

<g fill="none" stroke="#000000" stroke-opacity="1" stroke-width="1" stroke-linecap="square" stroke-linejoin="bevel" transform="matrix(1.0032,0,0,1.0032,174.055,463.98)"
font-family="Ubuntu" font-size="11" font-weight="400" font-style="normal" 
>
</g>

<g fill="none" stroke="#000000" stroke-opacity="1" stroke-width="1" stroke-linecap="square" stroke-linejoin="bevel" transform="matrix(1.0032,0,0,1.0032,174.055,463.98)"
font-family="Sans" font-size="9" font-weight="400" font-style="normal" 
>
<text fill="#000000" fill-opacity="1" stroke="none" xml:space="preserve" x="0" y="0" font-family="Sans" font-size="9" font-weight="400" font-style="normal" 
 > 3.5</text>
</g>

<g fill="none" stroke="#000000" stroke-opacity="1" stroke-width="1" stroke-linecap="square" stroke-linejoin="bevel" transform="matrix(1.0032,0,0,1.0032,174.055,463.98)"
font-family="Ubuntu" font-size="11" font-weight="400" font-style="normal" 
>
</g>

<g fill="none" stroke="#000000" stroke-opacity="1" stroke-width="1" stroke-linecap="square" stroke-linejoin="bevel" transform="matrix(1.0032,0,0,1.0032,0,0)"
font-family="Ubuntu" font-size="11" font-weight="400" font-style="normal" 
>
</g>

<g fill="none" stroke="#000000" stroke-opacity="1" stroke-width="1" stroke-linecap="round" stroke-linejoin="round" transform="matrix(1.0032,0,0,1.0032,0,0)"
font-family="Ubuntu" font-size="11" font-weight="400" font-style="normal" 
>
<polyline fill="none" vector-effect="none" points="324.5,442.5 324.5,436.5 " />
<polyline fill="none" vector-effect="none" points="324.5,15.5 324.5,21.5 " />
</g>

<g fill="none" stroke="#000000" stroke-opacity="1" stroke-width="1" stroke-linecap="square" stroke-linejoin="bevel" transform="matrix(1.0032,0,0,1.0032,0,0)"
font-family="Ubuntu" font-size="11" font-weight="400" font-style="normal" 
>
</g>

<g fill="none" stroke="#000000" stroke-opacity="1" stroke-width="1" stroke-linecap="square" stroke-linejoin="bevel" transform="matrix(1.0032,0,0,1.0032,320.522,463.98)"
font-family="Ubuntu" font-size="11" font-weight="400" font-style="normal" 
>
</g>

<g fill="none" stroke="#000000" stroke-opacity="1" stroke-width="1" stroke-linecap="square" stroke-linejoin="bevel" transform="matrix(1.0032,0,0,1.0032,320.522,463.98)"
font-family="Ubuntu" font-size="11" font-weight="400" font-style="normal" 
>
</g>

<g fill="none" stroke="#000000" stroke-opacity="1" stroke-width="1" stroke-linecap="square" stroke-linejoin="bevel" transform="matrix(1.0032,0,0,1.0032,320.522,463.98)"
font-family="Ubuntu" font-size="11" font-weight="400" font-style="normal" 
>
</g>

<g fill="none" stroke="#000000" stroke-opacity="1" stroke-width="1" stroke-linecap="square" stroke-linejoin="bevel" transform="matrix(1.0032,0,0,1.0032,320.522,463.98)"
font-family="Ubuntu" font-size="11" font-weight="400" font-style="normal" 
>
</g>

<g fill="none" stroke="#000000" stroke-opacity="1" stroke-width="1" stroke-linecap="square" stroke-linejoin="bevel" transform="matrix(1.0032,0,0,1.0032,320.522,463.98)"
font-family="Ubuntu" font-size="11" font-weight="400" font-style="normal" 
>
</g>

<g fill="none" stroke="#000000" stroke-opacity="1" stroke-width="1" stroke-linecap="square" stroke-linejoin="bevel" transform="matrix(1.0032,0,0,1.0032,320.522,463.98)"
font-family="Sans" font-size="9" font-weight="400" font-style="normal" 
>
<text fill="#000000" fill-opacity="1" stroke="none" xml:space="preserve" x="0" y="0" font-family="Sans" font-size="9" font-weight="400" font-style="normal" 
 > 4</text>
</g>

<g fill="none" stroke="#000000" stroke-opacity="1" stroke-width="1" stroke-linecap="square" stroke-linejoin="bevel" transform="matrix(1.0032,0,0,1.0032,320.522,463.98)"
font-family="Ubuntu" font-size="11" font-weight="400" font-style="normal" 
>
</g>

<g fill="none" stroke="#000000" stroke-opacity="1" stroke-width="1" stroke-linecap="square" stroke-linejoin="bevel" transform="matrix(1.0032,0,0,1.0032,0,0)"
font-family="Ubuntu" font-size="11" font-weight="400" font-style="normal" 
>
</g>

<g fill="none" stroke="#000000" stroke-opacity="1" stroke-width="1" stroke-linecap="round" stroke-linejoin="round" transform="matrix(1.0032,0,0,1.0032,0,0)"
font-family="Ubuntu" font-size="11" font-weight="400" font-style="normal" 
>
<polyline fill="none" vector-effect="none" points="464.5,442.5 464.5,436.5 " />
<polyline fill="none" vector-effect="none" points="464.5,15.5 464.5,21.5 " />
</g>

<g fill="none" stroke="#000000" stroke-opacity="1" stroke-width="1" stroke-linecap="square" stroke-linejoin="bevel" transform="matrix(1.0032,0,0,1.0032,0,0)"
font-family="Ubuntu" font-size="11" font-weight="400" font-style="normal" 
>
</g>

<g fill="none" stroke="#000000" stroke-opacity="1" stroke-width="1" stroke-linecap="square" stroke-linejoin="bevel" transform="matrix(1.0032,0,0,1.0032,453.948,463.98)"
font-family="Ubuntu" font-size="11" font-weight="400" font-style="normal" 
>
</g>

<g fill="none" stroke="#000000" stroke-opacity="1" stroke-width="1" stroke-linecap="square" stroke-linejoin="bevel" transform="matrix(1.0032,0,0,1.0032,453.948,463.98)"
font-family="Ubuntu" font-size="11" font-weight="400" font-style="normal" 
>
</g>

<g fill="none" stroke="#000000" stroke-opacity="1" stroke-width="1" stroke-linecap="square" stroke-linejoin="bevel" transform="matrix(1.0032,0,0,1.0032,453.948,463.98)"
font-family="Ubuntu" font-size="11" font-weight="400" font-style="normal" 
>
</g>

<g fill="none" stroke="#000000" stroke-opacity="1" stroke-width="1" stroke-linecap="square" stroke-linejoin="bevel" transform="matrix(1.0032,0,0,1.0032,453.948,463.98)"
font-family="Ubuntu" font-size="11" font-weight="400" font-style="normal" 
>
</g>

<g fill="none" stroke="#000000" stroke-opacity="1" stroke-width="1" stroke-linecap="square" stroke-linejoin="bevel" transform="matrix(1.0032,0,0,1.0032,453.948,463.98)"
font-family="Ubuntu" font-size="11" font-weight="400" font-style="normal" 
>
</g>

<g fill="none" stroke="#000000" stroke-opacity="1" stroke-width="1" stroke-linecap="square" stroke-linejoin="bevel" transform="matrix(1.0032,0,0,1.0032,453.948,463.98)"
font-family="Sans" font-size="9" font-weight="400" font-style="normal" 
>
<text fill="#000000" fill-opacity="1" stroke="none" xml:space="preserve" x="0" y="0" font-family="Sans" font-size="9" font-weight="400" font-style="normal" 
 > 4.5</text>
</g>

<g fill="none" stroke="#000000" stroke-opacity="1" stroke-width="1" stroke-linecap="square" stroke-linejoin="bevel" transform="matrix(1.0032,0,0,1.0032,453.948,463.98)"
font-family="Ubuntu" font-size="11" font-weight="400" font-style="normal" 
>
</g>

<g fill="none" stroke="#000000" stroke-opacity="1" stroke-width="1" stroke-linecap="square" stroke-linejoin="bevel" transform="matrix(1.0032,0,0,1.0032,0,0)"
font-family="Ubuntu" font-size="11" font-weight="400" font-style="normal" 
>
</g>

<g fill="none" stroke="#000000" stroke-opacity="1" stroke-width="1" stroke-linecap="round" stroke-linejoin="round" transform="matrix(1.0032,0,0,1.0032,0,0)"
font-family="Ubuntu" font-size="11" font-weight="400" font-style="normal" 
>
<polyline fill="none" vector-effect="none" points="603.5,442.5 603.5,436.5 " />
<polyline fill="none" vector-effect="none" points="603.5,15.5 603.5,21.5 " />
</g>

<g fill="none" stroke="#000000" stroke-opacity="1" stroke-width="1" stroke-linecap="square" stroke-linejoin="bevel" transform="matrix(1.0032,0,0,1.0032,0,0)"
font-family="Ubuntu" font-size="11" font-weight="400" font-style="normal" 
>
</g>

<g fill="none" stroke="#000000" stroke-opacity="1" stroke-width="1" stroke-linecap="square" stroke-linejoin="bevel" transform="matrix(1.0032,0,0,1.0032,600.415,463.98)"
font-family="Ubuntu" font-size="11" font-weight="400" font-style="normal" 
>
</g>

<g fill="none" stroke="#000000" stroke-opacity="1" stroke-width="1" stroke-linecap="square" stroke-linejoin="bevel" transform="matrix(1.0032,0,0,1.0032,600.415,463.98)"
font-family="Ubuntu" font-size="11" font-weight="400" font-style="normal" 
>
</g>

<g fill="none" stroke="#000000" stroke-opacity="1" stroke-width="1" stroke-linecap="square" stroke-linejoin="bevel" transform="matrix(1.0032,0,0,1.0032,600.415,463.98)"
font-family="Ubuntu" font-size="11" font-weight="400" font-style="normal" 
>
</g>

<g fill="none" stroke="#000000" stroke-opacity="1" stroke-width="1" stroke-linecap="square" stroke-linejoin="bevel" transform="matrix(1.0032,0,0,1.0032,600.415,463.98)"
font-family="Ubuntu" font-size="11" font-weight="400" font-style="normal" 
>
</g>

<g fill="none" stroke="#000000" stroke-opacity="1" stroke-width="1" stroke-linecap="square" stroke-linejoin="bevel" transform="matrix(1.0032,0,0,1.0032,600.415,463.98)"
font-family="Ubuntu" font-size="11" font-weight="400" font-style="normal" 
>
</g>

<g fill="none" stroke="#000000" stroke-opacity="1" stroke-width="1" stroke-linecap="square" stroke-linejoin="bevel" transform="matrix(1.0032,0,0,1.0032,600.415,463.98)"
font-family="Sans" font-size="9" font-weight="400" font-style="normal" 
>
<text fill="#000000" fill-opacity="1" stroke="none" xml:space="preserve" x="0" y="0" font-family="Sans" font-size="9" font-weight="400" font-style="normal" 
 > 5</text>
</g>

<g fill="none" stroke="#000000" stroke-opacity="1" stroke-width="1" stroke-linecap="square" stroke-linejoin="bevel" transform="matrix(1.0032,0,0,1.0032,600.415,463.98)"
font-family="Ubuntu" font-size="11" font-weight="400" font-style="normal" 
>
</g>

<g fill="none" stroke="#000000" stroke-opacity="1" stroke-width="1" stroke-linecap="square" stroke-linejoin="bevel" transform="matrix(1.0032,0,0,1.0032,0,0)"
font-family="Ubuntu" font-size="11" font-weight="400" font-style="normal" 
>
</g>

<g fill="none" stroke="#000000" stroke-opacity="1" stroke-width="1" stroke-linecap="round" stroke-linejoin="round" transform="matrix(1.0032,0,0,1.0032,0,0)"
font-family="Ubuntu" font-size="11" font-weight="400" font-style="normal" 
>
<polyline fill="none" vector-effect="none" points="45.5,15.5 45.5,442.5 603.5,442.5 603.5,15.5 45.5,15.5 " />
</g>

<g fill="none" stroke="#000000" stroke-opacity="1" stroke-width="1" stroke-linecap="square" stroke-linejoin="bevel" transform="matrix(1.0032,0,0,1.0032,0,0)"
font-family="Ubuntu" font-size="11" font-weight="400" font-style="normal" 
>
</g>

<g fill="none" stroke="#000000" stroke-opacity="1" stroke-width="1" stroke-linecap="square" stroke-linejoin="bevel" transform="matrix(1.0032,0,0,1.0032,407.064,17.556)"
font-family="Ubuntu" font-size="11" font-weight="400" font-style="normal" 
>
</g>

<g fill="none" stroke="#000000" stroke-opacity="1" stroke-width="1" stroke-linecap="square" stroke-linejoin="bevel" transform="matrix(1.0032,0,0,1.0032,407.064,17.556)"
font-family="Ubuntu" font-size="11" font-weight="400" font-style="normal" 
>
</g>

<g fill="none" stroke="#000000" stroke-opacity="1" stroke-width="1" stroke-linecap="square" stroke-linejoin="bevel" transform="matrix(1.0032,0,0,1.0032,407.064,17.556)"
font-family="Ubuntu" font-size="11" font-weight="400" font-style="normal" 
>
</g>

<g fill="none" stroke="#000000" stroke-opacity="1" stroke-width="1" stroke-linecap="square" stroke-linejoin="bevel" transform="matrix(1.0032,0,0,1.0032,407.064,17.556)"
font-family="Ubuntu" font-size="11" font-weight="400" font-style="normal" 
>
<text fill="#000000" fill-opacity="1" stroke="none" xml:space="preserve" x="4" y="16" font-family="Sans" font-size="9" font-weight="400" font-style="normal" 
 >'AF_H_T-F-m.dat' u 1:2</text>
</g>

<g fill="none" stroke="#000000" stroke-opacity="1" stroke-width="1" stroke-linecap="square" stroke-linejoin="bevel" transform="matrix(1.0032,0,0,1.0032,407.064,17.556)"
font-family="Ubuntu" font-size="11" font-weight="400" font-style="normal" 
>
</g>

<g fill="none" stroke="#000000" stroke-opacity="1" stroke-width="1" stroke-linecap="square" stroke-linejoin="bevel" transform="matrix(1,0,0,1,0,0)"
font-family="Ubuntu" font-size="11" font-weight="400" font-style="normal" 
>
</g>

<g fill="none" stroke="#000000" stroke-opacity="1" stroke-width="1" stroke-linecap="square" stroke-linejoin="bevel" transform="matrix(1.0032,0,0,1.0032,407.064,17.556)"
font-family="Ubuntu" font-size="11" font-weight="400" font-style="normal" 
>
</g>

<g fill="none" stroke="#000000" stroke-opacity="1" stroke-width="1" stroke-linecap="square" stroke-linejoin="bevel" transform="matrix(1.0032,0,0,1.0032,407.064,17.556)"
font-family="Ubuntu" font-size="11" font-weight="400" font-style="normal" 
>
</g>

<g fill="none" stroke="#000000" stroke-opacity="1" stroke-width="1" stroke-linecap="square" stroke-linejoin="bevel" transform="matrix(1.0032,0,0,1.0032,407.064,17.556)"
font-family="Ubuntu" font-size="11" font-weight="400" font-style="normal" 
>
</g>

<g fill="none" stroke="#000000" stroke-opacity="1" stroke-width="1" stroke-linecap="square" stroke-linejoin="bevel" transform="matrix(1.0032,0,0,1.0032,0,0)"
font-family="Ubuntu" font-size="11" font-weight="400" font-style="normal" 
>
</g>

<g fill="none" stroke="#9400d3" stroke-opacity="1" stroke-width="3" stroke-linecap="round" stroke-linejoin="round" transform="matrix(1.0032,0,0,1.0032,0,0)"
font-family="Ubuntu" font-size="11" font-weight="400" font-style="normal" 
>
<path vector-effect="none" fill-rule="evenodd" d="M555.5,28.5 L589.5,28.5"/>
</g>

<g fill="none" stroke="#000000" stroke-opacity="1" stroke-width="1" stroke-linecap="square" stroke-linejoin="bevel" transform="matrix(1.0032,0,0,1.0032,0,0)"
font-family="Ubuntu" font-size="11" font-weight="400" font-style="normal" 
>
</g>

<g fill="none" stroke="#000000" stroke-opacity="1" stroke-width="1" stroke-linecap="square" stroke-linejoin="bevel" transform="matrix(1.0032,0,0,1.0032,0,0)"
font-family="Ubuntu" font-size="11" font-weight="400" font-style="normal" 
>
</g>

<g fill="none" stroke="#000000" stroke-opacity="1" stroke-width="1" stroke-linecap="square" stroke-linejoin="bevel" transform="matrix(1.0032,0,0,1.0032,0,0)"
font-family="Ubuntu" font-size="11" font-weight="400" font-style="normal" 
>
</g>

<g fill="none" stroke="#000000" stroke-opacity="1" stroke-width="1" stroke-linecap="square" stroke-linejoin="bevel" transform="matrix(1.0032,0,0,1.0032,0,0)"
font-family="Ubuntu" font-size="11" font-weight="400" font-style="normal" 
>
</g>

<g fill="none" stroke="#9400d3" stroke-opacity="1" stroke-width="3" stroke-linecap="round" stroke-linejoin="round" transform="matrix(1.0032,0,0,1.0032,0,0)"
font-family="Ubuntu" font-size="11" font-weight="400" font-style="normal" 
>
<polyline fill="none" vector-effect="none" points="45.5,45.8 45.5,45.8 45.8,45.9 46.1,46.1 46.3,46.2 46.6,46.3 46.9,46.4 47.2,46.5 47.5,46.6 47.7,46.7 48,46.9 48.3,47 48.6,47.1 48.9,47.2 49.1,47.3 49.4,47.4 49.7,47.5 50,47.7 50.2,47.8 50.5,47.9 50.8,48 51.1,48.1 51.4,48.2 51.6,48.4 51.9,48.5 52.2,48.6 52.5,48.7 52.8,48.8 53,48.9 53.3,49.1 53.6,49.2 53.9,49.3 54.2,49.4 54.4,49.5 54.7,49.6 55,49.8 55.3,49.9 55.6,50 55.8,50.1 56.1,50.2 56.4,50.3 56.7,50.5 56.9,50.6 57.2,50.7 57.5,50.8 57.8,50.9 58.1,51.1 58.3,51.2 58.6,51.3 58.9,51.4 59.2,51.5 59.5,51.6 59.7,51.8 60,51.9 60.3,52 60.6,52.1 60.9,52.2 61.1,52.4 61.4,52.5 61.7,52.6 62,52.7 62.3,52.8 62.5,53 62.8,53.1 63.1,53.2 63.4,53.3 63.6,53.4 63.9,53.6 64.2,53.7 64.5,53.8 64.8,53.9 65,54 65.3,54.2 65.6,54.3 65.9,54.4 66.2,54.5 66.4,54.6 66.7,54.8 67,54.9 67.3,55 67.6,55.1 67.8,55.2 68.1,55.4 68.4,55.5 68.7,55.6 69,55.7 69.2,55.9 69.5,56 69.8,56.1 70.1,56.2 70.3,56.3 70.6,56.5 70.9,56.6 71.2,56.7 71.5,56.8 71.7,57 72,57.1 72.3,57.2 72.6,57.3 72.9,57.5 73.1,57.6 73.4,57.7 73.7,57.8 74,57.9 74.3,58.1 74.5,58.2 74.8,58.3 75.1,58.4 75.4,58.6 75.7,58.7 75.9,58.8 76.2,58.9 76.5,59.1 76.8,59.2 77,59.3 77.3,59.4 77.6,59.6 77.9,59.7 78.2,59.8 78.4,59.9 78.7,60.1 79,60.2 79.3,60.3 79.6,60.4 79.8,60.6 80.1,60.7 80.4,60.8 80.7,60.9 81,61.1 81.2,61.2 81.5,61.3 81.8,61.4 82.1,61.6 82.4,61.7 82.6,61.8 82.9,61.9 83.2,62.1 83.5,62.2 83.8,62.3 84,62.5 84.3,62.6 84.6,62.7 84.9,62.8 85.1,63 85.4,63.1 85.7,63.2 86,63.3 86.3,63.5 86.5,63.6 86.8,63.7 87.1,63.9 87.4,64 87.7,64.1 87.9,64.2 88.2,64.4 88.5,64.5 88.8,64.6 89.1,64.8 89.3,64.9 89.6,65 89.9,65.1 90.2,65.3 90.5,65.4 90.7,65.5 91,65.7 91.3,65.8 91.6,65.9 91.8,66 92.1,66.2 92.4,66.3 92.7,66.4 93,66.6 93.2,66.7 93.5,66.8 93.8,67 94.1,67.1 94.4,67.2 94.6,67.3 94.9,67.5 95.2,67.6 95.5,67.7 95.8,67.9 96,68 96.3,68.1 96.6,68.3 96.9,68.4 97.2,68.5 97.4,68.7 97.7,68.8 98,68.9 98.3,69 98.5,69.2 98.8,69.3 99.1,69.4 99.4,69.6 99.7,69.7 99.9,69.8 100.2,70 100.5,70.1 100.8,70.2 101.1,70.4 101.3,70.5 101.6,70.6 101.9,70.8 102.2,70.9 102.5,71 102.7,71.2 103,71.3 103.3,71.4 103.6,71.6 103.9,71.7 104.1,71.8 104.4,72 104.7,72.1 105,72.2 105.2,72.4 105.5,72.5 105.8,72.6 106.1,72.8 106.4,72.9 106.6,73 106.9,73.2 107.2,73.3 107.5,73.4 107.8,73.6 108,73.7 108.3,73.9 108.6,74 108.9,74.1 109.2,74.3 109.4,74.4 109.7,74.5 110,74.7 110.3,74.8 110.6,74.9 110.8,75.1 111.1,75.2 111.4,75.3 111.7,75.5 111.9,75.6 112.2,75.8 112.5,75.9 112.8,76 113.1,76.2 113.3,76.3 113.6,76.4 113.9,76.6 114.2,76.7 114.5,76.8 114.7,77 115,77.1 115.3,77.3 115.6,77.4 115.9,77.5 116.1,77.7 116.4,77.8 116.7,77.9 117,78.1 117.3,78.2 117.5,78.4 117.8,78.5 118.1,78.6 118.4,78.8 118.7,78.9 118.9,79.1 119.2,79.2 119.5,79.3 119.8,79.5 120,79.6 120.3,79.8 120.6,79.9 120.9,80 121.2,80.2 121.4,80.3 121.7,80.5 122,80.6 122.3,80.7 122.6,80.9 122.8,81 123.1,81.2 123.4,81.3 123.7,81.4 124,81.6 124.2,81.7 124.5,81.9 124.8,82 125.1,82.1 125.4,82.3 125.6,82.4 125.9,82.6 126.2,82.7 126.5,82.8 126.7,83 127,83.1 127.3,83.3 127.6,83.4 127.9,83.5 128.1,83.7 128.4,83.8 128.7,84 129,84.1 129.3,84.3 129.5,84.4 129.8,84.5 130.1,84.7 130.4,84.8 130.7,85 130.9,85.1 131.2,85.3 131.5,85.4 131.8,85.5 132.1,85.7 132.3,85.8 132.6,86 132.9,86.1 133.2,86.3 133.4,86.4 133.7,86.6 134,86.7 134.3,86.8 134.6,87 134.8,87.1 135.1,87.3 135.4,87.4 135.7,87.6 136,87.7 136.2,87.9 136.5,88 136.8,88.1 137.1,88.3 137.4,88.4 137.6,88.6 137.9,88.7 138.2,88.9 138.5,89 138.8,89.2 139,89.3 139.3,89.5 139.6,89.6 139.9,89.7 140.1,89.9 140.4,90 140.7,90.2 141,90.3 141.3,90.5 141.5,90.6 141.8,90.8 142.1,90.9 142.4,91.1 142.7,91.2 142.9,91.4 143.2,91.5 143.5,91.7 143.8,91.8 144.1,91.9 144.3,92.1 144.6,92.2 144.9,92.4 145.2,92.5 145.5,92.7 145.7,92.8 146,93 146.3,93.1 146.6,93.3 146.8,93.4 147.1,93.6 147.4,93.7 147.7,93.9 148,94 148.2,94.2 148.5,94.3 148.8,94.5 149.1,94.6 149.4,94.8 149.6,94.9 149.9,95.1 150.2,95.2 150.5,95.4 150.8,95.5 151,95.7 151.3,95.8 151.6,96 151.9,96.1 152.2,96.3 152.4,96.4 152.7,96.6 153,96.7 153.3,96.9 153.6,97 153.8,97.2 154.1,97.3 154.4,97.5 154.7,97.6 154.9,97.8 155.2,97.9 155.5,98.1 155.8,98.2 156.1,98.4 156.3,98.5 156.6,98.7 156.9,98.8 157.2,99 157.5,99.2 157.7,99.3 158,99.5 158.3,99.6 158.6,99.8 158.9,99.9 159.1,100.1 159.4,100.2 159.7,100.4 160,100.5 160.3,100.7 160.5,100.8 160.8,101 161.1,101.1 161.4,101.3 161.6,101.5 161.9,101.6 162.2,101.8 162.5,101.9 162.8,102.1 163,102.2 163.3,102.4 163.6,102.5 163.9,102.7 164.2,102.8 164.4,103 164.7,103.2 165,103.3 165.3,103.5 165.6,103.6 165.8,103.8 166.1,103.9 166.4,104.1 166.7,104.2 167,104.4 167.2,104.6 167.5,104.7 167.8,104.9 168.1,105 168.3,105.2 168.6,105.3 168.9,105.5 169.2,105.6 169.5,105.8 169.7,106 170,106.1 170.3,106.3 170.6,106.4 170.9,106.6 171.1,106.7 171.4,106.9 171.7,107.1 172,107.2 172.3,107.4 172.5,107.5 172.8,107.7 173.1,107.9 173.4,108 173.7,108.2 173.9,108.3 174.2,108.5 174.5,108.6 174.8,108.8 175,109 175.3,109.1 175.6,109.3 175.9,109.4 176.2,109.6 176.4,109.8 176.7,109.9 177,110.1 177.3,110.2 177.6,110.4 177.8,110.6 178.1,110.7 178.4,110.9 178.7,111 179,111.2 179.2,111.4 179.5,111.5 179.8,111.7 180.1,111.8 180.4,112 180.6,112.2 180.9,112.3 181.2,112.5 181.5,112.6 181.7,112.8 182,113 182.3,113.1 182.6,113.3 182.9,113.4 183.1,113.6 183.4,113.8 183.7,113.9 184,114.1 184.3,114.3 184.5,114.4 184.8,114.6 185.1,114.7 185.4,114.9 185.7,115.1 185.9,115.2 186.2,115.4 186.5,115.6 186.8,115.7 187.1,115.9 187.3,116.1 187.6,116.2 187.9,116.4 188.2,116.5 188.5,116.7 188.7,116.9 189,117 189.3,117.2 189.6,117.4 189.8,117.5 190.1,117.7 190.4,117.9 190.7,118 191,118.2 191.2,118.3 191.5,118.5 191.8,118.7 192.1,118.8 192.4,119 192.6,119.2 192.9,119.3 193.2,119.5 193.5,119.7 193.8,119.8 194,120 194.3,120.2 194.6,120.3 194.9,120.5 195.2,120.7 195.4,120.8 195.7,121 196,121.2 196.3,121.3 196.5,121.5 196.8,121.7 197.1,121.8 197.4,122 197.7,122.2 197.9,122.3 198.2,122.5 198.5,122.7 198.8,122.8 199.1,123 199.3,123.2 199.6,123.3 199.9,123.5 200.2,123.7 200.5,123.8 200.7,124 201,124.2 201.3,124.3 201.6,124.5 201.9,124.7 202.1,124.9 202.4,125 202.7,125.2 203,125.4 203.2,125.5 203.5,125.7 203.8,125.9 204.1,126 204.4,126.2 204.6,126.4 204.9,126.5 205.2,126.7 205.5,126.9 205.8,127.1 206,127.2 206.3,127.4 206.6,127.6 206.9,127.7 207.2,127.9 207.4,128.1 207.7,128.3 208,128.4 208.3,128.6 208.6,128.8 208.8,128.9 209.1,129.1 209.4,129.3 209.7,129.5 209.9,129.6 210.2,129.8 210.5,130 210.8,130.1 211.1,130.3 211.3,130.5 211.6,130.7 211.9,130.8 212.2,131 212.5,131.2 212.7,131.3 213,131.5 213.3,131.7 213.6,131.9 213.9,132 214.1,132.2 214.4,132.4 214.7,132.6 215,132.7 215.3,132.9 215.5,133.1 215.8,133.3 216.1,133.4 216.4,133.6 216.6,133.8 216.9,134 217.2,134.1 217.5,134.3 217.8,134.5 218,134.6 218.3,134.8 218.6,135 218.9,135.2 219.2,135.3 219.4,135.5 219.7,135.7 220,135.9 220.3,136.1 220.6,136.2 220.8,136.4 221.1,136.6 221.4,136.8 221.7,136.9 222,137.1 222.2,137.3 222.5,137.5 222.8,137.6 223.1,137.8 223.4,138 223.6,138.2 223.9,138.3 224.2,138.5 224.5,138.7 224.7,138.9 225,139.1 225.3,139.2 225.6,139.4 225.9,139.6 226.1,139.8 226.4,139.9 226.7,140.1 227,140.3 227.3,140.5 227.5,140.7 227.8,140.8 228.1,141 228.4,141.2 228.7,141.4 228.9,141.5 229.2,141.7 229.5,141.9 229.8,142.1 230.1,142.3 230.3,142.4 230.6,142.6 230.9,142.8 231.2,143 231.4,143.2 231.7,143.3 232,143.5 232.3,143.7 232.6,143.9 232.8,144.1 233.1,144.2 233.4,144.4 233.7,144.6 234,144.8 234.2,145 234.5,145.1 234.8,145.3 235.1,145.5 235.4,145.7 235.6,145.9 235.9,146.1 236.2,146.2 236.5,146.4 236.8,146.6 237,146.8 237.3,147 237.6,147.1 237.9,147.3 238.1,147.5 238.4,147.7 238.7,147.9 239,148.1 239.3,148.2 239.5,148.4 239.8,148.6 240.1,148.8 240.4,149 240.7,149.2 240.9,149.3 241.2,149.5 241.5,149.7 241.8,149.9 242.1,150.1 242.3,150.3 242.6,150.4 242.9,150.6 243.2,150.8 243.5,151 243.7,151.2 244,151.4 244.3,151.6 244.6,151.7 244.8,151.9 245.1,152.1 245.4,152.3 245.7,152.5 246,152.7 246.2,152.8 246.5,153 246.8,153.2 247.1,153.4 247.4,153.6 247.6,153.8 247.9,154 248.2,154.2 248.5,154.3 248.8,154.5 249,154.7 249.3,154.9 249.6,155.1 249.9,155.3 250.2,155.5 250.4,155.6 250.7,155.8 251,156 251.3,156.2 251.5,156.4 251.8,156.6 252.1,156.8 252.4,157 252.7,157.1 252.9,157.3 253.2,157.5 253.5,157.7 253.8,157.9 254.1,158.1 254.3,158.3 254.6,158.5 254.9,158.7 255.2,158.8 255.5,159 255.7,159.2 256,159.4 256.3,159.6 256.6,159.8 256.9,160 257.1,160.2 257.4,160.4 257.7,160.5 258,160.7 258.3,160.9 258.5,161.1 258.8,161.3 259.1,161.5 259.4,161.7 259.6,161.9 259.9,162.1 260.2,162.3 260.5,162.5 260.8,162.6 261,162.8 261.3,163 261.6,163.2 261.9,163.4 262.2,163.6 262.4,163.8 262.7,164 263,164.2 263.3,164.4 263.6,164.6 263.8,164.8 264.1,164.9 264.4,165.1 264.7,165.3 265,165.5 265.2,165.7 265.5,165.9 265.8,166.1 266.1,166.3 266.3,166.5 266.6,166.7 266.9,166.9 267.2,167.1 267.5,167.3 267.7,167.5 268,167.7 268.3,167.8 268.6,168 268.9,168.2 269.1,168.4 269.4,168.6 269.7,168.8 270,169 270.3,169.2 270.5,169.4 270.8,169.6 271.1,169.8 271.4,170 271.7,170.2 271.9,170.4 272.2,170.6 272.5,170.8 272.8,171 273,171.2 273.3,171.4 273.6,171.6 273.9,171.7 274.2,171.9 274.4,172.1 274.7,172.3 275,172.5 275.3,172.7 275.6,172.9 275.8,173.1 276.1,173.3 276.4,173.5 276.7,173.7 277,173.9 277.2,174.1 277.5,174.3 277.8,174.5 278.1,174.7 278.4,174.9 278.6,175.1 278.9,175.3 279.2,175.5 279.5,175.7 279.7,175.9 280,176.1 280.3,176.3 280.6,176.5 280.9,176.7 281.1,176.9 281.4,177.1 281.7,177.3 282,177.5 282.3,177.7 282.5,177.9 282.8,178.1 283.1,178.3 283.4,178.5 283.7,178.7 283.9,178.9 284.2,179.1 284.5,179.3 284.8,179.5 285.1,179.7 285.3,179.9 285.6,180.1 285.9,180.3 286.2,180.5 286.4,180.7 286.7,180.9 287,181.1 287.3,181.3 287.6,181.5 287.8,181.7 288.1,181.9 288.4,182.1 288.7,182.3 289,182.5 289.2,182.7 289.5,182.9 289.8,183.1 290.1,183.3 290.4,183.5 290.6,183.7 290.9,183.9 291.2,184.1 291.5,184.3 291.8,184.5 292,184.7 292.3,184.9 292.6,185.1 292.9,185.4 293.2,185.6 293.4,185.8 293.7,186 294,186.2 294.3,186.4 294.5,186.6 294.8,186.8 295.1,187 295.4,187.2 295.7,187.4 295.9,187.6 296.2,187.8 296.5,188 296.8,188.2 297.1,188.4 297.3,188.6 297.6,188.8 297.9,189 298.2,189.2 298.5,189.5 298.7,189.7 299,189.9 299.3,190.1 299.6,190.3 299.9,190.5 300.1,190.7 300.4,190.9 300.7,191.1 301,191.3 301.2,191.5 301.5,191.7 301.8,191.9 302.1,192.1 302.4,192.3 302.6,192.6 302.9,192.8 303.2,193 303.5,193.2 303.8,193.4 304,193.6 304.3,193.8 304.6,194 304.9,194.2 305.2,194.4 305.4,194.6 305.7,194.8 306,195.1 306.3,195.3 306.6,195.5 306.8,195.7 307.1,195.9 307.4,196.1 307.7,196.3 307.9,196.5 308.2,196.7 308.5,196.9 308.8,197.1 309.1,197.4 309.3,197.6 309.6,197.8 309.9,198 310.2,198.2 310.5,198.4 310.7,198.6 311,198.8 311.3,199 311.6,199.2 311.9,199.5 312.1,199.7 312.4,199.9 312.7,200.1 313,200.3 313.3,200.5 313.5,200.7 313.8,200.9 314.1,201.1 314.4,201.3 314.6,201.5 314.9,201.8 315.2,202 315.5,202.2 315.8,202.4 316,202.6 316.3,202.8 316.6,203 316.9,203.2 317.2,203.4 317.4,203.6 317.7,203.8 318,204.1 318.3,204.3 318.6,204.5 318.8,204.7 319.1,204.9 319.4,205.1 319.7,205.3 320,205.5 320.2,205.7 320.5,205.9 320.8,206.2 321.1,206.4 321.3,206.6 321.6,206.8 321.9,207 322.2,207.2 322.5,207.4 322.7,207.6 323,207.8 323.3,208 323.6,208.2 323.9,208.5 324.1,208.7 324.4,208.9 324.7,209.1 325,209.3 325.3,209.5 325.5,209.7 325.8,209.9 326.1,210.1 326.4,210.3 326.7,210.6 326.9,210.8 327.2,211 327.5,211.2 327.8,211.4 328.1,211.6 328.3,211.8 328.6,212 328.9,212.2 329.2,212.4 329.4,212.6 329.7,212.9 330,213.1 330.3,213.3 330.6,213.5 330.8,213.7 331.1,213.9 331.4,214.1 331.7,214.3 332,214.5 332.2,214.7 332.5,215 332.8,215.2 333.1,215.4 333.4,215.6 333.6,215.8 333.9,216 334.2,216.2 334.5,216.4 334.8,216.6 335,216.8 335.3,217 335.6,217.3 335.9,217.5 336.1,217.7 336.4,217.9 336.7,218.1 337,218.3 337.3,218.5 337.5,218.7 337.8,218.9 338.1,219.1 338.4,219.4 338.7,219.6 338.9,219.8 339.2,220 339.5,220.2 339.8,220.4 340.1,220.6 340.3,220.8 340.6,221 340.9,221.2 341.2,221.4 341.5,221.7 341.7,221.9 342,222.1 342.3,222.3 342.6,222.5 342.8,222.7 343.1,222.9 343.4,223.1 343.7,223.3 344,223.5 344.2,223.8 344.5,224 344.8,224.2 345.1,224.4 345.4,224.6 345.6,224.8 345.9,225 346.2,225.2 346.5,225.4 346.8,225.6 347,225.8 347.3,226.1 347.6,226.3 347.9,226.5 348.2,226.7 348.4,226.9 348.7,227.1 349,227.3 349.3,227.5 349.5,227.7 349.8,227.9 350.1,228.1 350.4,228.4 350.7,228.6 350.9,228.8 351.2,229 351.5,229.2 351.8,229.4 352.1,229.6 352.3,229.8 352.6,230 352.9,230.2 353.2,230.5 353.5,230.7 353.7,230.9 354,231.1 354.3,231.3 354.6,231.5 354.9,231.7 355.1,231.9 355.4,232.1 355.7,232.3 356,232.6 356.2,232.8 356.5,233 356.8,233.2 357.1,233.4 357.4,233.6 357.6,233.8 357.9,234 358.2,234.2 358.5,234.4 358.8,234.6 359,234.9 359.3,235.1 359.6,235.3 359.9,235.5 360.2,235.7 360.4,235.9 360.7,236.1 361,236.3 361.3,236.5 361.6,236.7 361.8,237 362.1,237.2 362.4,237.4 362.7,237.6 363,237.8 363.2,238 363.5,238.2 363.8,238.4 364.1,238.6 364.3,238.8 364.6,239 364.9,239.3 365.2,239.5 365.5,239.7 365.7,239.9 366,240.1 366.3,240.3 366.6,240.5 366.9,240.7 367.1,240.9 367.4,241.1 367.7,241.4 368,241.6 368.3,241.8 368.5,242 368.8,242.2 369.1,242.4 369.4,242.6 369.7,242.8 369.9,243 370.2,243.2 370.5,243.4 370.8,243.7 371,243.9 371.3,244.1 371.6,244.3 371.9,244.5 372.2,244.7 372.4,244.9 372.7,245.1 373,245.3 373.3,245.5 373.6,245.8 373.8,246 374.1,246.2 374.4,246.4 374.7,246.6 375,246.8 375.2,247 375.5,247.2 375.8,247.4 376.1,247.6 376.4,247.8 376.6,248.1 376.9,248.3 377.2,248.5 377.5,248.7 377.7,248.9 378,249.1 378.3,249.3 378.6,249.5 378.9,249.7 379.1,249.9 379.4,250.2 379.7,250.4 380,250.6 380.3,250.8 380.5,251 380.8,251.2 381.1,251.4 381.4,251.6 381.7,251.8 381.9,252 382.2,252.2 382.5,252.5 382.8,252.7 383.1,252.9 383.3,253.1 383.6,253.3 383.9,253.5 384.2,253.7 384.4,253.9 384.7,254.1 385,254.3 385.3,254.6 385.6,254.8 385.8,255 386.1,255.2 386.4,255.4 386.7,255.6 387,255.8 387.2,256 387.5,256.2 387.8,256.4 388.1,256.7 388.4,256.9 388.6,257.1 388.9,257.3 389.2,257.5 389.5,257.7 389.8,257.9 390,258.1 390.3,258.3 390.6,258.5 390.9,258.7 391.1,259 391.4,259.2 391.7,259.4 392,259.6 392.3,259.8 392.5,260 392.8,260.2 393.1,260.4 393.4,260.6 393.7,260.8 393.9,261.1 394.2,261.3 394.5,261.5 394.8,261.7 395.1,261.9 395.3,262.1 395.6,262.3 395.9,262.5 396.2,262.7 396.5,262.9 396.7,263.1 397,263.4 397.3,263.6 397.6,263.8 397.9,264 398.1,264.2 398.4,264.4 398.7,264.6 399,264.8 399.2,265 399.5,265.2 399.8,265.5 400.1,265.7 400.4,265.9 400.6,266.1 400.9,266.3 401.2,266.5 401.5,266.7 401.8,266.9 402,267.1 402.3,267.3 402.6,267.6 402.9,267.8 403.2,268 403.4,268.2 403.7,268.4 404,268.6 404.3,268.8 404.6,269 404.8,269.2 405.1,269.4 405.4,269.6 405.7,269.9 405.9,270.1 406.2,270.3 406.5,270.5 406.8,270.7 407.1,270.9 407.3,271.1 407.6,271.3 407.9,271.5 408.2,271.7 408.5,272 408.7,272.2 409,272.4 409.3,272.6 409.6,272.8 409.9,273 410.1,273.2 410.4,273.4 410.7,273.6 411,273.8 411.3,274 411.5,274.3 411.8,274.5 412.1,274.7 412.4,274.9 412.6,275.1 412.9,275.3 413.2,275.5 413.5,275.7 413.8,275.9 414,276.1 414.3,276.4 414.6,276.6 414.9,276.8 415.2,277 415.4,277.2 415.7,277.4 416,277.6 416.3,277.8 416.6,278 416.8,278.2 417.1,278.5 417.4,278.7 417.7,278.9 418,279.1 418.2,279.3 418.5,279.5 418.8,279.7 419.1,279.9 419.3,280.1 419.6,280.3 419.9,280.5 420.2,280.8 420.5,281 420.7,281.2 421,281.4 421.3,281.6 421.6,281.8 421.9,282 422.1,282.2 422.4,282.4 422.7,282.6 423,282.9 423.3,283.1 423.5,283.3 423.8,283.5 424.1,283.7 424.4,283.9 424.7,284.1 424.9,284.3 425.2,284.5 425.5,284.7 425.8,285 426,285.2 426.3,285.4 426.6,285.6 426.9,285.8 427.2,286 427.4,286.2 427.7,286.4 428,286.6 428.3,286.8 428.6,287 428.8,287.3 429.1,287.5 429.4,287.7 429.7,287.9 430,288.1 430.2,288.3 430.5,288.5 430.8,288.7 431.1,288.9 431.4,289.1 431.6,289.4 431.9,289.6 432.2,289.8 432.5,290 432.8,290.2 433,290.4 433.3,290.6 433.6,290.8 433.9,291 434.1,291.2 434.4,291.5 434.7,291.7 435,291.9 435.3,292.1 435.5,292.3 435.8,292.5 436.1,292.7 436.4,292.9 436.7,293.1 436.9,293.3 437.2,293.5 437.5,293.8 437.8,294 438.1,294.2 438.3,294.4 438.6,294.6 438.9,294.8 439.2,295 439.5,295.2 439.7,295.4 440,295.6 440.3,295.9 440.6,296.1 440.8,296.3 441.1,296.5 441.4,296.7 441.7,296.9 442,297.1 442.2,297.3 442.5,297.5 442.8,297.7 443.1,298 443.4,298.2 443.6,298.4 443.9,298.6 444.2,298.8 444.5,299 444.8,299.2 445,299.4 445.3,299.6 445.6,299.8 445.9,300.1 446.2,300.3 446.4,300.5 446.7,300.7 447,300.9 447.3,301.1 447.5,301.3 447.8,301.5 448.1,301.7 448.4,301.9 448.7,302.1 448.9,302.4 449.2,302.6 449.5,302.8 449.8,303 450.1,303.2 450.3,303.4 450.6,303.6 450.9,303.8 451.2,304 451.5,304.2 451.7,304.5 452,304.7 452.3,304.9 452.6,305.1 452.9,305.3 453.1,305.5 453.4,305.7 453.7,305.9 454,306.1 454.2,306.3 454.5,306.6 454.8,306.8 455.1,307 455.4,307.2 455.6,307.4 455.9,307.6 456.2,307.8 456.5,308 456.8,308.2 457,308.4 457.3,308.6 457.6,308.9 457.9,309.1 458.2,309.3 458.4,309.5 458.7,309.7 459,309.9 459.3,310.1 459.6,310.3 459.8,310.5 460.1,310.7 460.4,311 460.7,311.2 460.9,311.4 461.2,311.6 461.5,311.8 461.8,312 462.1,312.2 462.3,312.4 462.6,312.6 462.9,312.8 463.2,313.1 463.5,313.3 463.7,313.5 464,313.7 464.3,313.9 464.6,314.1 464.9,314.3 465.1,314.5 465.4,314.7 465.7,314.9 466,315.2 466.3,315.4 466.5,315.6 466.8,315.8 467.1,316 467.4,316.2 467.7,316.4 467.9,316.6 468.2,316.8 468.5,317 468.8,317.2 469,317.5 469.3,317.7 469.6,317.9 469.9,318.1 470.2,318.3 470.4,318.5 470.7,318.7 471,318.9 471.3,319.1 471.6,319.3 471.8,319.6 472.1,319.8 472.4,320 472.7,320.2 473,320.4 473.2,320.6 473.5,320.8 473.8,321 474.1,321.2 474.4,321.4 474.6,321.7 474.9,321.9 475.2,322.1 475.5,322.3 475.7,322.5 476,322.7 476.3,322.9 476.6,323.1 476.9,323.3 477.1,323.5 477.4,323.8 477.7,324 478,324.2 478.3,324.4 478.5,324.6 478.8,324.8 479.1,325 479.4,325.2 479.7,325.4 479.9,325.6 480.2,325.8 480.5,326.1 480.8,326.3 481.1,326.5 481.3,326.7 481.6,326.9 481.9,327.1 482.2,327.3 482.4,327.5 482.7,327.7 483,327.9 483.3,328.2 483.6,328.4 483.8,328.6 484.1,328.8 484.4,329 484.7,329.2 485,329.4 485.2,329.6 485.5,329.8 485.8,330 486.1,330.3 486.4,330.5 486.6,330.7 486.9,330.9 487.2,331.1 487.5,331.3 487.8,331.5 488,331.7 488.3,331.9 488.6,332.1 488.9,332.4 489.1,332.6 489.4,332.8 489.7,333 490,333.2 490.3,333.4 490.5,333.6 490.8,333.8 491.1,334 491.4,334.2 491.7,334.4 491.9,334.7 492.2,334.9 492.5,335.1 492.8,335.3 493.1,335.5 493.3,335.7 493.6,335.9 493.9,336.1 494.2,336.3 494.5,336.5 494.7,336.8 495,337 495.3,337.2 495.6,337.4 495.8,337.6 496.1,337.8 496.4,338 496.7,338.2 497,338.4 497.2,338.6 497.5,338.9 497.8,339.1 498.1,339.3 498.4,339.5 498.6,339.7 498.9,339.9 499.2,340.1 499.5,340.3 499.8,340.5 500,340.7 500.3,341 500.6,341.2 500.9,341.4 501.2,341.6 501.4,341.8 501.7,342 502,342.2 502.3,342.4 502.6,342.6 502.8,342.8 503.1,343.1 503.4,343.3 503.7,343.5 503.9,343.7 504.2,343.9 504.5,344.1 504.8,344.3 505.1,344.5 505.3,344.7 505.6,344.9 505.9,345.1 506.2,345.4 506.5,345.6 506.7,345.8 507,346 507.3,346.2 507.6,346.4 507.9,346.6 508.1,346.8 508.4,347 508.7,347.2 509,347.5 509.3,347.7 509.5,347.9 509.8,348.1 510.1,348.3 510.4,348.5 510.6,348.7 510.9,348.9 511.2,349.1 511.5,349.3 511.8,349.6 512,349.8 512.3,350 512.6,350.2 512.9,350.4 513.2,350.6 513.4,350.8 513.7,351 514,351.2 514.3,351.4 514.6,351.7 514.8,351.9 515.1,352.1 515.4,352.3 515.7,352.5 516,352.7 516.2,352.9 516.5,353.1 516.8,353.3 517.1,353.5 517.3,353.8 517.6,354 517.9,354.2 518.2,354.4 518.5,354.6 518.7,354.8 519,355 519.3,355.2 519.6,355.4 519.9,355.6 520.1,355.9 520.4,356.1 520.7,356.3 521,356.5 521.3,356.7 521.5,356.9 521.8,357.1 522.1,357.3 522.4,357.5 522.7,357.7 522.9,357.9 523.2,358.2 523.5,358.4 523.8,358.6 524,358.8 524.3,359 524.6,359.2 524.9,359.4 525.2,359.6 525.4,359.8 525.7,360 526,360.3 526.3,360.5 526.6,360.7 526.8,360.9 527.1,361.1 527.4,361.3 527.7,361.5 528,361.7 528.2,361.9 528.5,362.1 528.8,362.4 529.1,362.6 529.4,362.8 529.6,363 529.9,363.2 530.2,363.4 530.5,363.6 530.7,363.8 531,364 531.3,364.2 531.6,364.5 531.9,364.7 532.1,364.9 532.4,365.1 532.7,365.3 533,365.5 533.3,365.7 533.5,365.9 533.8,366.1 534.1,366.3 534.4,366.6 534.7,366.8 534.9,367 535.2,367.2 535.5,367.4 535.8,367.6 536.1,367.8 536.3,368 536.6,368.2 536.9,368.4 537.2,368.7 537.5,368.9 537.7,369.1 538,369.3 538.3,369.5 538.6,369.7 538.8,369.9 539.1,370.1 539.4,370.3 539.7,370.5 540,370.8 540.2,371 540.5,371.2 540.8,371.4 541.1,371.6 541.4,371.8 541.6,372 541.9,372.2 542.2,372.4 542.5,372.6 542.8,372.8 543,373.1 543.3,373.3 543.6,373.5 543.9,373.7 544.2,373.9 544.4,374.1 544.7,374.3 545,374.5 545.3,374.7 545.5,374.9 545.8,375.2 546.1,375.4 546.4,375.6 546.7,375.8 546.9,376 547.2,376.2 547.5,376.4 547.8,376.6 548.1,376.8 548.3,377 548.6,377.3 548.9,377.5 549.2,377.7 549.5,377.9 549.7,378.1 550,378.3 550.3,378.5 550.6,378.7 550.9,378.9 551.1,379.1 551.4,379.4 551.7,379.6 552,379.8 552.2,380 552.5,380.2 552.8,380.4 553.1,380.6 553.4,380.8 553.6,381 553.9,381.2 554.2,381.5 554.5,381.7 554.8,381.9 555,382.1 555.3,382.3 555.6,382.5 555.9,382.7 556.2,382.9 556.4,383.1 556.7,383.3 557,383.6 557.3,383.8 557.6,384 557.8,384.2 558.1,384.4 558.4,384.6 558.7,384.8 558.9,385 559.2,385.2 559.5,385.4 559.8,385.7 560.1,385.9 560.3,386.1 560.6,386.3 560.9,386.5 561.2,386.7 561.5,386.9 561.7,387.1 562,387.3 562.3,387.5 562.6,387.8 562.9,388 563.1,388.2 563.4,388.4 563.7,388.6 564,388.8 564.3,389 564.5,389.2 564.8,389.4 565.1,389.6 565.4,389.9 565.6,390.1 565.9,390.3 566.2,390.5 566.5,390.7 566.8,390.9 567,391.1 567.3,391.3 567.6,391.5 567.9,391.7 568.2,392 568.4,392.2 568.7,392.4 569,392.6 569.3,392.8 569.6,393 569.8,393.2 570.1,393.4 570.4,393.6 570.7,393.8 571,394 571.2,394.3 571.5,394.5 571.8,394.7 572.1,394.9 572.4,395.1 572.6,395.3 572.9,395.5 573.2,395.7 573.5,395.9 573.7,396.1 574,396.4 574.3,396.6 574.6,396.8 574.9,397 575.1,397.2 575.4,397.4 575.7,397.6 576,397.8 576.3,398 576.5,398.2 576.8,398.5 577.1,398.7 577.4,398.9 577.7,399.1 577.9,399.3 578.2,399.5 578.5,399.7 578.8,399.9 579.1,400.1 579.3,400.3 579.6,400.6 579.9,400.8 580.2,401 580.4,401.2 580.7,401.4 581,401.6 581.3,401.8 581.6,402 581.8,402.2 582.1,402.4 582.4,402.7 582.7,402.9 583,403.1 583.2,403.3 583.5,403.5 583.8,403.7 584.1,403.9 584.4,404.1 584.6,404.3 584.9,404.5 585.2,404.8 585.5,405 585.8,405.2 586,405.4 586.3,405.6 586.6,405.8 586.9,406 587.1,406.2 587.4,406.4 587.7,406.6 588,406.9 588.3,407.1 588.5,407.3 588.8,407.5 589.1,407.7 589.4,407.9 589.7,408.1 589.9,408.3 590.2,408.5 590.5,408.7 590.8,409 591.1,409.2 591.3,409.4 591.6,409.6 591.9,409.8 592.2,410 592.5,410.2 592.7,410.4 593,410.6 593.3,410.8 593.6,411.1 593.8,411.3 594.1,411.5 594.4,411.7 594.7,411.9 595,412.1 595.2,412.3 595.5,412.5 595.8,412.7 596.1,412.9 596.4,413.2 596.6,413.4 596.9,413.6 597.2,413.8 597.5,414 597.8,414.2 598,414.4 598.3,414.6 598.6,414.8 598.9,415 599.2,415.3 599.4,415.5 599.7,415.7 600,415.9 600.3,416.1 600.5,416.3 600.8,416.5 601.1,416.7 601.4,416.9 601.7,417.1 601.9,417.4 602.2,417.6 602.5,417.8 602.8,418 603.1,418.2 603.3,418.4 " />
</g>

<g fill="none" stroke="#000000" stroke-opacity="1" stroke-width="1" stroke-linecap="square" stroke-linejoin="bevel" transform="matrix(1.0032,0,0,1.0032,0,0)"
font-family="Ubuntu" font-size="11" font-weight="400" font-style="normal" 
>
</g>

<g fill="none" stroke="#000000" stroke-opacity="1" stroke-width="1" stroke-linecap="square" stroke-linejoin="bevel" transform="matrix(1.0032,0,0,1.0032,404.572,32.604)"
font-family="Ubuntu" font-size="11" font-weight="400" font-style="normal" 
>
</g>

<g fill="none" stroke="#000000" stroke-opacity="1" stroke-width="1" stroke-linecap="square" stroke-linejoin="bevel" transform="matrix(1.0032,0,0,1.0032,404.572,32.604)"
font-family="Ubuntu" font-size="11" font-weight="400" font-style="normal" 
>
</g>

<g fill="none" stroke="#000000" stroke-opacity="1" stroke-width="1" stroke-linecap="square" stroke-linejoin="bevel" transform="matrix(1.0032,0,0,1.0032,404.572,32.604)"
font-family="Ubuntu" font-size="11" font-weight="400" font-style="normal" 
>
</g>

<g fill="none" stroke="#000000" stroke-opacity="1" stroke-width="1" stroke-linecap="square" stroke-linejoin="bevel" transform="matrix(1.0032,0,0,1.0032,404.572,32.604)"
font-family="Ubuntu" font-size="11" font-weight="400" font-style="normal" 
>
<text fill="#000000" fill-opacity="1" stroke="none" xml:space="preserve" x="4" y="16" font-family="Sans" font-size="9" font-weight="400" font-style="normal" 
 >'PM_H_T-F-m.dat' u 1:2</text>
</g>

<g fill="none" stroke="#000000" stroke-opacity="1" stroke-width="1" stroke-linecap="square" stroke-linejoin="bevel" transform="matrix(1.0032,0,0,1.0032,404.572,32.604)"
font-family="Ubuntu" font-size="11" font-weight="400" font-style="normal" 
>
</g>

<g fill="none" stroke="#000000" stroke-opacity="1" stroke-width="1" stroke-linecap="square" stroke-linejoin="bevel" transform="matrix(1,0,0,1,0,0)"
font-family="Ubuntu" font-size="11" font-weight="400" font-style="normal" 
>
</g>

<g fill="none" stroke="#000000" stroke-opacity="1" stroke-width="1" stroke-linecap="square" stroke-linejoin="bevel" transform="matrix(1.0032,0,0,1.0032,404.572,32.604)"
font-family="Ubuntu" font-size="11" font-weight="400" font-style="normal" 
>
</g>

<g fill="none" stroke="#000000" stroke-opacity="1" stroke-width="1" stroke-linecap="square" stroke-linejoin="bevel" transform="matrix(1.0032,0,0,1.0032,404.572,32.604)"
font-family="Ubuntu" font-size="11" font-weight="400" font-style="normal" 
>
</g>

<g fill="none" stroke="#000000" stroke-opacity="1" stroke-width="1" stroke-linecap="square" stroke-linejoin="bevel" transform="matrix(1.0032,0,0,1.0032,404.572,32.604)"
font-family="Ubuntu" font-size="11" font-weight="400" font-style="normal" 
>
</g>

<g fill="none" stroke="#000000" stroke-opacity="1" stroke-width="1" stroke-linecap="square" stroke-linejoin="bevel" transform="matrix(1.0032,0,0,1.0032,0,0)"
font-family="Ubuntu" font-size="11" font-weight="400" font-style="normal" 
>
</g>

<g fill="none" stroke="#009e73" stroke-opacity="1" stroke-width="3" stroke-linecap="round" stroke-linejoin="round" transform="matrix(1.0032,0,0,1.0032,0,0)"
font-family="Ubuntu" font-size="11" font-weight="400" font-style="normal" 
>
<path vector-effect="none" fill-rule="evenodd" d="M555.5,43.5 L589.5,43.5"/>
</g>

<g fill="none" stroke="#000000" stroke-opacity="1" stroke-width="1" stroke-linecap="square" stroke-linejoin="bevel" transform="matrix(1.0032,0,0,1.0032,0,0)"
font-family="Ubuntu" font-size="11" font-weight="400" font-style="normal" 
>
</g>

<g fill="none" stroke="#000000" stroke-opacity="1" stroke-width="1" stroke-linecap="square" stroke-linejoin="bevel" transform="matrix(1.0032,0,0,1.0032,0,0)"
font-family="Ubuntu" font-size="11" font-weight="400" font-style="normal" 
>
</g>

<g fill="none" stroke="#000000" stroke-opacity="1" stroke-width="1" stroke-linecap="square" stroke-linejoin="bevel" transform="matrix(1.0032,0,0,1.0032,0,0)"
font-family="Ubuntu" font-size="11" font-weight="400" font-style="normal" 
>
</g>

<g fill="none" stroke="#000000" stroke-opacity="1" stroke-width="1" stroke-linecap="square" stroke-linejoin="bevel" transform="matrix(1.0032,0,0,1.0032,0,0)"
font-family="Ubuntu" font-size="11" font-weight="400" font-style="normal" 
>
</g>

<g fill="none" stroke="#009e73" stroke-opacity="1" stroke-width="3" stroke-linecap="round" stroke-linejoin="round" transform="matrix(1.0032,0,0,1.0032,0,0)"
font-family="Ubuntu" font-size="11" font-weight="400" font-style="normal" 
>
<polyline fill="none" vector-effect="none" points="603.9,418.8 603.9,418.8 603.6,418.6 603.3,418.4 603.1,418.2 602.8,418 602.5,417.8 602.2,417.6 601.9,417.4 601.7,417.1 601.4,416.9 601.1,416.7 600.8,416.5 600.5,416.3 600.3,416.1 600,415.9 599.7,415.7 599.4,415.5 599.2,415.3 598.9,415 598.6,414.8 598.3,414.6 598,414.4 597.8,414.2 597.5,414 597.2,413.8 596.9,413.6 596.6,413.4 596.4,413.2 596.1,412.9 595.8,412.7 595.5,412.5 595.2,412.3 595,412.1 594.7,411.9 594.4,411.7 594.1,411.5 593.8,411.3 593.6,411.1 593.3,410.8 593,410.6 592.7,410.4 592.5,410.2 592.2,410 591.9,409.8 591.6,409.6 591.3,409.4 591.1,409.2 590.8,409 590.5,408.7 590.2,408.5 589.9,408.3 589.7,408.1 589.4,407.9 589.1,407.7 588.8,407.5 588.5,407.3 588.3,407.1 588,406.9 587.7,406.6 587.4,406.4 587.1,406.2 586.9,406 586.6,405.8 586.3,405.6 586,405.4 585.8,405.2 585.5,405 585.2,404.8 584.9,404.5 584.6,404.3 584.4,404.1 584.1,403.9 583.8,403.7 583.5,403.5 583.2,403.3 583,403.1 582.7,402.9 582.4,402.7 582.1,402.4 581.8,402.2 581.6,402 581.3,401.8 581,401.6 580.7,401.4 580.4,401.2 580.2,401 579.9,400.8 579.6,400.6 579.3,400.3 579.1,400.1 578.8,399.9 578.5,399.7 578.2,399.5 577.9,399.3 577.7,399.1 577.4,398.9 577.1,398.7 576.8,398.5 576.5,398.2 576.3,398 576,397.8 575.7,397.6 575.4,397.4 575.1,397.2 574.9,397 574.6,396.8 574.3,396.6 574,396.4 573.7,396.1 573.5,395.9 573.2,395.7 572.9,395.5 572.6,395.3 572.4,395.1 572.1,394.9 571.8,394.7 571.5,394.5 571.2,394.3 571,394 570.7,393.8 570.4,393.6 570.1,393.4 569.8,393.2 569.6,393 569.3,392.8 569,392.6 568.7,392.4 568.4,392.2 568.2,392 567.9,391.7 567.6,391.5 567.3,391.3 567,391.1 566.8,390.9 566.5,390.7 566.2,390.5 565.9,390.3 565.6,390.1 565.4,389.9 565.1,389.6 564.8,389.4 564.5,389.2 564.3,389 564,388.8 563.7,388.6 563.4,388.4 563.1,388.2 562.9,388 562.6,387.8 562.3,387.5 562,387.3 561.7,387.1 561.5,386.9 561.2,386.7 560.9,386.5 560.6,386.3 560.3,386.1 560.1,385.9 559.8,385.7 559.5,385.4 559.2,385.2 558.9,385 558.7,384.8 558.4,384.6 558.1,384.4 557.8,384.2 557.6,384 557.3,383.8 557,383.6 556.7,383.3 556.4,383.1 556.2,382.9 555.9,382.7 555.6,382.5 555.3,382.3 555,382.1 554.8,381.9 554.5,381.7 554.2,381.5 553.9,381.2 553.6,381 553.4,380.8 553.1,380.6 552.8,380.4 552.5,380.2 552.2,380 552,379.8 551.7,379.6 551.4,379.4 551.1,379.1 550.9,378.9 550.6,378.7 550.3,378.5 550,378.3 549.7,378.1 549.5,377.9 549.2,377.7 548.9,377.5 548.6,377.3 548.3,377 548.1,376.8 547.8,376.6 547.5,376.4 547.2,376.2 546.9,376 546.7,375.8 546.4,375.6 546.1,375.4 545.8,375.2 545.5,374.9 545.3,374.7 545,374.5 544.7,374.3 544.4,374.1 544.2,373.9 543.9,373.7 543.6,373.5 543.3,373.3 543,373.1 542.8,372.8 542.5,372.6 542.2,372.4 541.9,372.2 541.6,372 541.4,371.8 541.1,371.6 540.8,371.4 540.5,371.2 540.2,371 540,370.8 539.7,370.5 539.4,370.3 539.1,370.1 538.8,369.9 538.6,369.7 538.3,369.5 538,369.3 537.7,369.1 537.5,368.9 537.2,368.7 536.9,368.4 536.6,368.2 536.3,368 536.1,367.8 535.8,367.6 535.5,367.4 535.2,367.2 534.9,367 534.7,366.8 534.4,366.6 534.1,366.3 533.8,366.1 533.5,365.9 533.3,365.7 533,365.5 532.7,365.3 532.4,365.1 532.1,364.9 531.9,364.7 531.6,364.5 531.3,364.2 531,364 530.7,363.8 530.5,363.6 530.2,363.4 529.9,363.2 529.6,363 529.4,362.8 529.1,362.6 528.8,362.4 528.5,362.1 528.2,361.9 528,361.7 527.7,361.5 527.4,361.3 527.1,361.1 526.8,360.9 526.6,360.7 526.3,360.5 526,360.3 525.7,360 525.4,359.8 525.2,359.6 524.9,359.4 524.6,359.2 524.3,359 524,358.8 523.8,358.6 523.5,358.4 523.2,358.2 522.9,357.9 522.7,357.7 522.4,357.5 522.1,357.3 521.8,357.1 521.5,356.9 521.3,356.7 521,356.5 520.7,356.3 520.4,356.1 520.1,355.9 519.9,355.6 519.6,355.4 519.3,355.2 519,355 518.7,354.8 518.5,354.6 518.2,354.4 517.9,354.2 517.6,354 517.3,353.8 517.1,353.5 516.8,353.3 516.5,353.1 516.2,352.9 516,352.7 515.7,352.5 515.4,352.3 515.1,352.1 514.8,351.9 514.6,351.7 514.3,351.4 514,351.2 513.7,351 513.4,350.8 513.2,350.6 512.9,350.4 512.6,350.2 512.3,350 512,349.8 511.8,349.6 511.5,349.3 511.2,349.1 510.9,348.9 510.6,348.7 510.4,348.5 510.1,348.3 509.8,348.1 509.5,347.9 509.3,347.7 509,347.5 508.7,347.2 508.4,347 508.1,346.8 507.9,346.6 507.6,346.4 507.3,346.2 507,346 506.7,345.8 506.5,345.6 506.2,345.4 505.9,345.1 505.6,344.9 505.3,344.7 505.1,344.5 504.8,344.3 504.5,344.1 504.2,343.9 503.9,343.7 503.7,343.5 503.4,343.3 503.1,343.1 502.8,342.8 502.6,342.6 502.3,342.4 502,342.2 501.7,342 501.4,341.8 501.2,341.6 500.9,341.4 500.6,341.2 500.3,341 500,340.7 499.8,340.5 499.5,340.3 499.2,340.1 498.9,339.9 498.6,339.7 498.4,339.5 498.1,339.3 497.8,339.1 497.5,338.9 497.2,338.6 497,338.4 496.7,338.2 496.4,338 496.1,337.8 495.8,337.6 495.6,337.4 495.3,337.2 495,337 494.7,336.8 494.5,336.5 494.2,336.3 493.9,336.1 493.6,335.9 493.3,335.7 493.1,335.5 492.8,335.3 492.5,335.1 492.2,334.9 491.9,334.7 491.7,334.4 491.4,334.2 491.1,334 490.8,333.8 490.5,333.6 490.3,333.4 490,333.2 489.7,333 489.4,332.8 489.1,332.6 488.9,332.4 488.6,332.1 488.3,331.9 488,331.7 487.8,331.5 487.5,331.3 487.2,331.1 486.9,330.9 486.6,330.7 486.4,330.5 486.1,330.3 485.8,330 485.5,329.8 485.2,329.6 485,329.4 484.7,329.2 484.4,329 484.1,328.8 483.8,328.6 483.6,328.4 483.3,328.2 483,327.9 482.7,327.7 482.4,327.5 482.2,327.3 481.9,327.1 481.6,326.9 481.3,326.7 481.1,326.5 480.8,326.3 480.5,326.1 480.2,325.8 479.9,325.6 479.7,325.4 479.4,325.2 479.1,325 478.8,324.8 478.5,324.6 478.3,324.4 478,324.2 477.7,324 477.4,323.8 477.1,323.5 476.9,323.3 476.6,323.1 476.3,322.9 476,322.7 475.7,322.5 475.5,322.3 475.2,322.1 474.9,321.9 474.6,321.7 474.4,321.4 474.1,321.2 473.8,321 473.5,320.8 473.2,320.6 473,320.4 472.7,320.2 472.4,320 472.1,319.8 471.8,319.6 471.6,319.3 471.3,319.1 471,318.9 470.7,318.7 470.4,318.5 470.2,318.3 469.9,318.1 469.6,317.9 469.3,317.7 469,317.5 468.8,317.2 468.5,317 468.2,316.8 467.9,316.6 467.7,316.4 467.4,316.2 467.1,316 466.8,315.8 466.5,315.6 466.3,315.4 466,315.2 465.7,314.9 465.4,314.7 465.1,314.5 464.9,314.3 464.6,314.1 464.3,313.9 464,313.7 463.7,313.5 463.5,313.3 463.2,313.1 462.9,312.8 462.6,312.6 462.3,312.4 462.1,312.2 461.8,312 461.5,311.8 461.2,311.6 460.9,311.4 460.7,311.2 460.4,311 460.1,310.7 459.8,310.5 459.6,310.3 459.3,310.1 459,309.9 458.7,309.7 458.4,309.5 458.2,309.3 457.9,309.1 457.6,308.9 457.3,308.6 457,308.4 456.8,308.2 456.5,308 456.2,307.8 455.9,307.6 455.6,307.4 455.4,307.2 455.1,307 454.8,306.8 454.5,306.6 454.2,306.3 454,306.1 453.7,305.9 453.4,305.7 453.1,305.5 452.9,305.3 452.6,305.1 452.3,304.9 452,304.7 451.7,304.5 451.5,304.2 451.2,304 450.9,303.8 450.6,303.6 450.3,303.4 450.1,303.2 449.8,303 449.5,302.8 449.2,302.6 448.9,302.4 448.7,302.1 448.4,301.9 448.1,301.7 447.8,301.5 447.5,301.3 447.3,301.1 447,300.9 446.7,300.7 446.4,300.5 446.2,300.3 445.9,300.1 445.6,299.8 445.3,299.6 445,299.4 444.8,299.2 444.5,299 444.2,298.8 443.9,298.6 443.6,298.4 443.4,298.2 443.1,298 442.8,297.7 442.5,297.5 442.2,297.3 442,297.1 441.7,296.9 441.4,296.7 441.1,296.5 440.8,296.3 440.6,296.1 440.3,295.9 440,295.6 439.7,295.4 439.5,295.2 439.2,295 438.9,294.8 438.6,294.6 438.3,294.4 438.1,294.2 437.8,294 437.5,293.8 437.2,293.5 436.9,293.3 436.7,293.1 436.4,292.9 436.1,292.7 435.8,292.5 435.5,292.3 435.3,292.1 435,291.9 434.7,291.7 434.4,291.5 434.1,291.2 433.9,291 433.6,290.8 433.3,290.6 433,290.4 432.8,290.2 432.5,290 432.2,289.8 431.9,289.6 431.6,289.4 431.4,289.1 431.1,288.9 430.8,288.7 430.5,288.5 430.2,288.3 430,288.1 429.7,287.9 429.4,287.7 429.1,287.5 428.8,287.3 428.6,287 428.3,286.8 428,286.6 427.7,286.4 427.4,286.2 427.2,286 426.9,285.8 426.6,285.6 426.3,285.4 426,285.2 425.8,285 425.5,284.7 425.2,284.5 424.9,284.3 424.7,284.1 424.4,283.9 424.1,283.7 423.8,283.5 423.5,283.3 423.3,283.1 423,282.9 422.7,282.6 422.4,282.4 422.1,282.2 421.9,282 421.6,281.8 421.3,281.6 421,281.4 420.7,281.2 420.5,281 420.2,280.8 419.9,280.5 419.6,280.3 419.3,280.1 419.1,279.9 418.8,279.7 418.5,279.5 418.2,279.3 418,279.1 417.7,278.9 417.4,278.7 417.1,278.5 416.8,278.2 416.6,278 416.3,277.8 416,277.6 415.7,277.4 415.4,277.2 415.2,277 414.9,276.8 414.6,276.6 414.3,276.4 414,276.1 413.8,275.9 413.5,275.7 413.2,275.5 412.9,275.3 412.6,275.1 412.4,274.9 412.1,274.7 411.8,274.5 411.5,274.3 411.3,274 411,273.8 410.7,273.6 410.4,273.4 410.1,273.2 409.9,273 409.6,272.8 409.3,272.6 409,272.4 408.7,272.2 408.5,272 408.2,271.7 407.9,271.5 407.6,271.3 407.3,271.1 407.1,270.9 406.8,270.7 406.5,270.5 406.2,270.3 405.9,270.1 405.7,269.9 405.4,269.6 405.1,269.4 404.8,269.2 404.6,269 404.3,268.8 404,268.6 403.7,268.4 403.4,268.2 403.2,268 402.9,267.8 402.6,267.6 402.3,267.3 402,267.1 401.8,266.9 401.5,266.7 401.2,266.5 400.9,266.3 400.6,266.1 400.4,265.9 400.1,265.7 399.8,265.5 399.5,265.2 399.2,265 399,264.8 398.7,264.6 398.4,264.4 398.1,264.2 397.9,264 397.6,263.8 397.3,263.6 397,263.4 396.7,263.1 396.5,262.9 396.2,262.7 395.9,262.5 395.6,262.3 395.3,262.1 395.1,261.9 394.8,261.7 394.5,261.5 394.2,261.3 393.9,261.1 393.7,260.8 393.4,260.6 393.1,260.4 392.8,260.2 392.5,260 392.3,259.8 392,259.6 391.7,259.4 391.4,259.2 391.1,259 390.9,258.7 390.6,258.5 390.3,258.3 390,258.1 389.8,257.9 389.5,257.7 389.2,257.5 388.9,257.3 388.6,257.1 388.4,256.9 388.1,256.7 387.8,256.4 387.5,256.2 387.2,256 387,255.8 386.7,255.6 386.4,255.4 386.1,255.2 385.8,255 385.6,254.8 385.3,254.6 385,254.3 384.7,254.1 384.4,253.9 384.2,253.7 383.9,253.5 383.6,253.3 383.3,253.1 383.1,252.9 382.8,252.7 382.5,252.5 382.2,252.2 381.9,252 381.7,251.8 381.4,251.6 381.1,251.4 380.8,251.2 380.5,251 380.3,250.8 380,250.6 379.7,250.4 379.4,250.2 379.1,249.9 378.9,249.7 378.6,249.5 378.3,249.3 378,249.1 377.7,248.9 377.5,248.7 377.2,248.5 376.9,248.3 376.6,248.1 376.4,247.8 376.1,247.6 375.8,247.4 375.5,247.2 375.2,247 375,246.8 374.7,246.6 374.4,246.4 374.1,246.2 373.8,246 373.6,245.8 373.3,245.5 373,245.3 372.7,245.1 372.4,244.9 372.2,244.7 371.9,244.5 371.6,244.3 371.3,244.1 371,243.9 370.8,243.7 370.5,243.4 370.2,243.2 369.9,243 369.7,242.8 369.4,242.6 369.1,242.4 368.8,242.2 368.5,242 368.3,241.8 368,241.6 367.7,241.4 367.4,241.1 367.1,240.9 366.9,240.7 366.6,240.5 366.3,240.3 366,240.1 365.7,239.9 365.5,239.7 365.2,239.5 364.9,239.3 364.6,239 364.3,238.8 364.1,238.6 363.8,238.4 363.5,238.2 363.2,238 363,237.8 362.7,237.6 362.4,237.4 362.1,237.2 361.8,237 361.6,236.7 361.3,236.5 361,236.3 360.7,236.1 360.4,235.9 360.2,235.7 359.9,235.5 359.6,235.3 359.3,235.1 359,234.9 358.8,234.6 358.5,234.4 358.2,234.2 357.9,234 357.6,233.8 357.4,233.6 357.1,233.4 356.8,233.2 356.5,233 356.2,232.8 356,232.6 355.7,232.3 355.4,232.1 355.1,231.9 354.9,231.7 354.6,231.5 354.3,231.3 354,231.1 353.7,230.9 353.5,230.7 353.2,230.5 352.9,230.2 352.6,230 352.3,229.8 352.1,229.6 351.8,229.4 351.5,229.2 351.2,229 350.9,228.8 350.7,228.6 350.4,228.4 350.1,228.1 349.8,227.9 349.5,227.7 349.3,227.5 349,227.3 348.7,227.1 348.4,226.9 348.2,226.7 347.9,226.5 347.6,226.3 347.3,226.1 347,225.8 346.8,225.6 346.5,225.4 346.2,225.2 345.9,225 345.6,224.8 345.4,224.6 345.1,224.4 344.8,224.2 344.5,224 344.2,223.8 344,223.5 343.7,223.3 343.4,223.1 343.1,222.9 342.8,222.7 342.6,222.5 342.3,222.3 342,222.1 341.7,221.9 341.5,221.7 341.2,221.4 340.9,221.2 340.6,221 340.3,220.8 340.1,220.6 339.8,220.4 339.5,220.2 339.2,220 338.9,219.8 338.7,219.6 338.4,219.4 338.1,219.1 337.8,218.9 337.5,218.7 337.3,218.5 337,218.3 336.7,218.1 336.4,217.9 336.1,217.7 335.9,217.5 335.6,217.3 335.3,217 335,216.8 334.8,216.6 334.5,216.4 334.2,216.2 333.9,216 333.6,215.8 333.4,215.6 333.1,215.4 332.8,215.2 332.5,215 332.2,214.7 332,214.5 331.7,214.3 331.4,214.1 331.1,213.9 330.8,213.7 330.6,213.5 330.3,213.3 330,213.1 329.7,212.9 329.4,212.6 329.2,212.4 328.9,212.2 328.6,212 328.3,211.8 328.1,211.6 327.8,211.4 327.5,211.2 327.2,211 326.9,210.8 326.7,210.6 326.4,210.3 326.1,210.1 325.8,209.9 325.5,209.7 325.3,209.5 325,209.3 324.7,209.1 324.4,208.9 324.1,208.7 323.9,208.5 323.6,208.2 323.3,208 323,207.8 322.7,207.6 322.5,207.4 322.2,207.2 321.9,207 321.6,206.8 321.3,206.6 321.1,206.4 320.8,206.2 320.5,205.9 320.2,205.7 320,205.5 319.7,205.3 319.4,205.1 319.1,204.9 318.8,204.7 318.6,204.5 318.3,204.3 318,204.1 317.7,203.8 317.4,203.6 317.2,203.4 316.9,203.2 316.6,203 316.3,202.8 316,202.6 315.8,202.4 315.5,202.2 315.2,202 314.9,201.8 314.6,201.5 314.4,201.3 314.1,201.1 313.8,200.9 313.5,200.7 313.3,200.5 313,200.3 312.7,200.1 312.4,199.9 312.1,199.7 311.9,199.5 311.6,199.2 311.3,199 311,198.8 310.7,198.6 310.5,198.4 310.2,198.2 309.9,198 309.6,197.8 309.3,197.6 " />
</g>

<g fill="none" stroke="#000000" stroke-opacity="1" stroke-width="1" stroke-linecap="square" stroke-linejoin="bevel" transform="matrix(1.0032,0,0,1.0032,0,0)"
font-family="Ubuntu" font-size="11" font-weight="400" font-style="normal" 
>
</g>

<g fill="none" stroke="#000000" stroke-opacity="1" stroke-width="1" stroke-linecap="square" stroke-linejoin="bevel" transform="matrix(1.0032,0,0,1.0032,0,0)"
font-family="Ubuntu" font-size="11" font-weight="400" font-style="normal" 
>
</g>

<g fill="none" stroke="#000000" stroke-opacity="1" stroke-width="1" stroke-linecap="round" stroke-linejoin="round" transform="matrix(1.0032,0,0,1.0032,0,0)"
font-family="Ubuntu" font-size="11" font-weight="400" font-style="normal" 
>
<polyline fill="none" vector-effect="none" points="45.5,15.5 45.5,442.5 603.5,442.5 603.5,15.5 45.5,15.5 " />
</g>

<g fill="none" stroke="#000000" stroke-opacity="1" stroke-width="1" stroke-linecap="square" stroke-linejoin="bevel" transform="matrix(1.0032,0,0,1.0032,0,0)"
font-family="Ubuntu" font-size="11" font-weight="400" font-style="normal" 
>
</g>

<g fill="none" stroke="#000000" stroke-opacity="1" stroke-width="1" stroke-linecap="square" stroke-linejoin="bevel" transform="matrix(1,0,0,1,0,0)"
font-family="Ubuntu" font-size="11" font-weight="400" font-style="normal" 
>
</g>
</g>
</svg>
